<svg width="30" height="28" viewBox="0 0 30 28" fill="none" xmlns="http://www.w3.org/2000/svg">
<g clip-path="url(#clip0_1137_11490)">
<path d="M19.5662 24.0707C19.5036 24.3182 19.4567 24.5348 19.3864 24.7901C20.0195 24.9293 20.6292 25.0762 21.2467 25.2077C22.1456 25.4011 23.0523 25.5867 23.9591 25.7801C24.4437 25.8807 24.6157 25.7646 24.7251 25.2773C25.241 22.9492 25.7491 20.621 26.265 18.3006C26.3509 17.8983 26.4369 17.4961 26.5385 17.0939C26.6402 16.6917 26.9294 16.4906 27.2655 16.5757C27.6016 16.6608 27.7657 16.9624 27.6719 17.3724C27.1951 19.5381 26.7183 21.6961 26.2415 23.8619C26.1164 24.4188 25.9992 24.968 25.8819 25.5249C25.6553 26.6155 24.8658 27.1569 23.7715 26.9326C22.2707 26.6232 20.7699 26.2983 19.2691 25.9657C18.9799 25.9039 18.8314 25.9735 18.6516 26.1978C16.8304 28.6188 13.18 28.6188 11.3588 26.1978C11.1868 25.9657 11.0305 25.9039 10.7412 25.9657C9.23265 26.3061 7.71624 26.6232 6.19982 26.9403C5.19148 27.1492 4.37856 26.6309 4.15188 25.6332C3.8783 24.442 3.62817 23.2431 3.36241 22.0442C2.54167 18.3238 1.72093 14.5956 0.900185 10.8751C0.626605 9.52928 0.321759 8.18343 0.0325459 6.83757C-0.139419 5.99448 0.384292 5.18232 1.26756 4.96575C2.21337 4.7337 3.17481 4.54807 4.12843 4.34696C4.72249 4.21547 5.31655 4.08398 5.94969 3.94475C5.94969 3.25635 5.94969 2.59116 5.94969 1.92597C5.95751 0.688398 6.64537 0 7.8882 0C12.6407 0 17.3932 0 22.1534 0C23.3728 0 24.0685 0.688398 24.0763 1.88729C24.0763 2.45193 24.092 3.02431 24.0685 3.58895C24.0529 3.8674 24.1623 3.96796 24.4202 4.0221C25.7569 4.30055 27.0935 4.59448 28.4223 4.87293C29.3681 5.07403 29.8997 5.52265 29.9856 6.30387C30.0247 6.65967 29.9387 7.04641 29.8606 7.40995C29.5245 8.97238 29.1805 10.5348 28.8288 12.0895C28.7819 12.2829 28.6646 12.5304 28.5005 12.6155C28.3442 12.7006 28.0237 12.6928 27.9064 12.5845C27.7579 12.4453 27.6485 12.1514 27.6876 11.9503C27.8517 11.0376 28.0706 10.1326 28.266 9.22762C28.4458 8.4 28.6256 7.56464 28.8132 6.73702C28.8835 6.42762 28.8132 6.16464 28.4927 6.09503C27.0388 5.76243 25.5771 5.45304 24.0685 5.12818C24.0685 5.32928 24.0685 5.48398 24.0685 5.63094C24.0685 11.1459 24.0685 16.6608 24.0685 22.1834C24.0685 23.1425 23.6151 23.7768 22.7553 24.0088C22.5834 24.0552 22.3958 24.063 22.216 24.063C21.3483 24.0707 20.4729 24.0707 19.5662 24.0707ZM10.4677 22.9028C10.6631 21.7812 11.1555 20.8376 12.0154 20.1028C12.883 19.3525 13.8913 18.9657 15.0482 18.9657C17.229 18.9735 18.7142 20.2575 19.5896 22.9028C20.4103 22.9028 21.2389 22.9028 22.0753 22.9028C22.7475 22.9028 22.896 22.7558 22.896 22.0829C22.896 15.3845 22.896 8.67845 22.896 1.98011C22.896 1.30718 22.7475 1.16022 22.0675 1.16022C17.3775 1.16022 12.6954 1.16022 8.00545 1.16022C7.25506 1.16022 7.12999 1.29171 7.12999 2.04199C7.12999 8.70166 7.12999 15.3691 7.12999 22.0287C7.12999 22.1448 7.12218 22.2608 7.13781 22.3768C7.17689 22.6862 7.34886 22.8873 7.66934 22.895C8.59169 22.9105 9.51405 22.9028 10.4677 22.9028ZM5.95751 5.13591C4.44891 5.46077 3.01848 5.7547 1.58023 6.07956C1.22848 6.15691 1.1425 6.41989 1.22066 6.76796C1.63494 8.58564 2.02577 10.411 2.43223 12.2365C3.39367 16.5989 4.35511 20.9613 5.31655 25.3315C5.41035 25.7414 5.60576 25.8729 6.01222 25.7878C6.9424 25.5945 7.87257 25.4011 8.80274 25.2C9.41243 25.0685 10.0143 24.9293 10.6396 24.7823C10.5771 24.5271 10.5224 24.3028 10.4755 24.1017C10.4208 24.0862 10.3973 24.0707 10.3739 24.0707C9.52968 24.0707 8.67767 24.0707 7.83348 24.063C7.63807 24.063 7.44266 24.0475 7.25506 24.0011C6.40305 23.7613 5.95751 23.1271 5.95751 22.1989C5.95751 16.684 5.95751 11.1691 5.95751 5.65414C5.95751 5.49945 5.95751 5.34475 5.95751 5.13591ZM18.4015 23.4983C18.4093 21.6729 16.8616 20.126 15.0325 20.1337C13.1409 20.1337 11.6402 21.6188 11.6245 23.4906C11.6167 25.3006 13.1722 26.8475 15.0091 26.8475C16.846 26.8475 18.3937 25.316 18.4015 23.4983Z" fill="black" stroke="black" stroke-width="0.2"/>
<path d="M28.2586 14.6117C28.2586 14.9443 28.0006 15.1918 27.6645 15.1841C27.344 15.1763 27.1017 14.9366 27.1017 14.6194C27.0939 14.2868 27.3519 14.0393 27.6958 14.0471C28.0241 14.0548 28.2586 14.2946 28.2586 14.6117Z" fill="black"/>
<path d="M14.8547 9.16014C13.3149 9.16014 11.7828 9.16014 10.2429 9.16014C10.1022 9.16014 9.95373 9.16788 9.81303 9.14467C9.50036 9.09053 9.32058 8.88942 9.31277 8.58777C9.30495 8.30158 9.4691 8.10047 9.75831 8.03086C9.89901 7.99992 10.0397 7.99219 10.1804 7.99219C13.2914 7.99219 16.4102 7.99219 19.5212 7.99219C19.5994 7.99219 19.6775 7.99219 19.7557 7.99219C20.1544 8.02313 20.3967 8.25517 20.3888 8.58777C20.381 8.92036 20.1309 9.15241 19.7323 9.15241C18.3253 9.16014 16.9183 9.16014 15.5113 9.16014C15.3003 9.16014 15.0814 9.16014 14.8547 9.16014Z" fill="black"/>
<path d="M14.8608 13.0876C13.2975 13.0876 11.742 13.0876 10.1787 13.0876C10.0458 13.0876 9.91291 13.0953 9.78784 13.0721C9.50644 13.0102 9.28758 12.8091 9.33448 12.5307C9.36575 12.3296 9.55334 12.1285 9.72531 11.9815C9.81911 11.8964 10.0223 11.9274 10.1787 11.9274C13.2897 11.9274 16.3928 11.9274 19.5038 11.9274C20.1135 11.9274 20.3871 12.0975 20.4027 12.492C20.4184 12.8942 20.1292 13.0876 19.5038 13.0876C17.9562 13.0876 16.4085 13.0876 14.8608 13.0876Z" fill="black"/>
<path d="M13.2678 17.0273C12.197 17.0273 11.1339 17.0273 10.063 17.0273C9.59405 17.0273 9.29702 16.7953 9.30484 16.4318C9.31265 16.0837 9.59405 15.8671 10.0474 15.8594C12.197 15.8594 14.3387 15.8594 16.4883 15.8594C16.9494 15.8594 17.2074 16.0759 17.2152 16.4318C17.2152 16.7953 16.9573 17.0196 16.5039 17.0196C15.433 17.0273 14.3543 17.0273 13.2678 17.0273Z" fill="black"/>
<path d="M18.134 5.22852C17.6259 5.22852 17.1178 5.23626 16.6097 5.22852C16.172 5.22079 15.9297 5.00421 15.9297 4.64841C15.9297 4.29261 16.1642 4.07604 16.6097 4.0683C17.6493 4.06057 18.6889 4.06057 19.7285 4.0683C20.1585 4.07604 20.4086 4.31581 20.3929 4.66388C20.3773 4.99648 20.135 5.22079 19.7285 5.22852C19.2048 5.23626 18.6733 5.22852 18.134 5.22852Z" fill="black"/>
<path d="M14.4932 24.0152C15.1029 23.3965 15.6266 22.8628 16.1581 22.3368C16.4317 22.0661 16.7444 22.0429 16.9945 22.2362C17.2524 22.4451 17.315 22.8009 17.0727 23.0561C16.3692 23.7755 15.6579 24.4871 14.9309 25.1832C14.6808 25.423 14.3759 25.4075 14.118 25.1755C13.7741 24.8661 13.4458 24.5335 13.1253 24.1931C12.883 23.9379 12.9064 23.5744 13.1331 23.3578C13.3676 23.1412 13.6724 23.1257 13.9382 23.3655C14.118 23.5512 14.2743 23.76 14.4932 24.0152Z" fill="black"/>
</g>
<defs>
<clipPath id="clip0_1137_11490">
<rect width="30" height="28" fill="white"/>
</clipPath>
</defs>
</svg>
