<svg width="32" height="35" viewBox="0 0 32 35" fill="none" xmlns="http://www.w3.org/2000/svg">
<g clip-path="url(#clip0_1137_11561)">
<path d="M11.3954 24.6729C11.3954 25.5743 11.3721 26.3351 11.4071 27.096C11.4187 27.3184 11.5352 27.5408 11.6517 27.7398C12.4671 29.1796 13.3059 30.6077 14.1213 32.0475C14.564 32.8201 14.3659 33.1713 13.469 33.1713C11.6983 33.183 9.93929 33.183 8.16863 33.1713C7.28331 33.1713 7.09692 32.8201 7.53958 32.0358C8.29677 30.7248 9.03067 29.3903 9.8228 28.091C10.149 27.5525 10.3237 27.0141 10.2771 26.382C10.2422 25.8786 10.2655 25.3753 10.2655 24.7666C10.0558 24.8719 9.90435 24.9305 9.77621 25.0241C8.75109 25.6679 7.74927 26.3234 6.7125 26.9321C6.37468 27.1311 6.28148 27.3652 6.29313 27.7281C6.31643 28.4305 6.30478 29.1328 6.30478 29.8351C6.30478 30.3034 6.08345 30.5609 5.59419 30.5492C3.96332 30.5375 2.33245 30.5375 0.701579 30.5492C0.200669 30.5492 0.0142842 30.3034 0.0142842 29.8234C0.0259333 28.208 0.0259333 26.581 0.0142842 24.9656C0.0142842 24.4271 0.282213 24.2281 0.771474 24.2281C2.3674 24.2281 3.95167 24.2281 5.54759 24.2281C6.08345 24.2281 6.32808 24.4973 6.31643 25.0241C6.30478 25.2582 6.31643 25.4923 6.31643 25.8318C6.95713 25.4338 7.50464 25.0943 8.06379 24.7549C8.70449 24.3569 9.35684 23.9589 9.98589 23.5375C10.1257 23.4438 10.2888 23.2565 10.2888 23.1044C10.3121 20.9622 10.3004 18.8201 10.3004 16.5492C9.61312 16.9823 9.00737 17.3569 8.41326 17.7315C7.84246 18.0943 7.24836 18.4338 6.70085 18.8318C6.51447 18.9606 6.36303 19.2532 6.35138 19.4756C6.30478 20.2716 6.33973 21.0793 6.32808 21.8753C6.31643 22.5425 6.16499 22.7064 5.501 22.7064C3.95167 22.7064 2.39069 22.7064 0.841368 22.7064C0.177371 22.7064 0.0492314 22.5776 0.0492314 21.9221C0.00263514 20.3652 0.00263513 18.785 0.0142842 17.2047C0.0142842 16.5726 0.177371 16.4204 0.81807 16.4204C2.30915 16.4087 3.81188 16.4204 5.30296 16.4204C6.16499 16.4204 6.25819 16.5258 6.30478 17.392C6.30478 17.4739 6.32808 17.5442 6.35138 17.708C7.26001 17.1462 8.08709 16.5141 8.99572 16.081C10.0441 15.5776 10.3936 14.8636 10.3121 13.7047C10.1956 12.1127 10.2888 10.509 10.2888 8.78831C9.8461 9.05754 9.49663 9.27995 9.13551 9.49065C8.30842 10.0057 7.48134 10.509 6.67755 11.0592C6.49117 11.188 6.33973 11.4806 6.32808 11.703C6.28148 12.5224 6.30478 13.3418 6.31643 14.1612C6.32808 14.6997 6.0718 14.9455 5.54759 14.9455C3.95167 14.9455 2.3674 14.9455 0.771474 14.9455C0.223967 14.9455 0.0142842 14.688 0.0259333 14.1495C0.0375824 12.5927 0.0259333 11.0241 0.0375824 9.46724C0.0375824 8.7649 0.154073 8.64785 0.853017 8.63614C2.3441 8.62443 3.84683 8.63614 5.33791 8.63614C6.22324 8.63614 6.26984 8.69467 6.32808 9.59601C6.32808 9.66624 6.35138 9.73647 6.38633 9.88865C7.64443 9.06925 8.89088 8.28497 10.1373 7.50069C10.1956 7.46557 10.2538 7.38363 10.2655 7.3251C10.2888 6.97393 10.3703 6.64617 9.8461 6.47059C8.22688 5.93213 7.36485 4.4338 7.62113 2.74818C7.84246 1.27326 9.19375 0.102694 10.7547 -0.00265686C12.2691 -0.0963023 13.8184 1.09768 14.1213 2.60771C14.4591 4.26992 13.5738 5.8736 12.0128 6.45888C11.7798 6.55253 11.4886 6.71641 11.4071 6.92711C11.2323 7.33681 11.5818 7.5241 11.908 7.71139C12.9914 8.32009 14.0514 8.95219 15.1348 9.57259C15.3794 8.61273 15.3794 8.61273 16.3579 8.61273C17.7908 8.61273 19.2353 8.61273 20.6681 8.61273C21.3787 8.61273 21.5301 8.7532 21.5301 9.46724C21.5418 10.989 21.5301 12.5107 21.5301 14.0325C21.5301 14.7582 21.3787 14.9104 20.6914 14.9104C19.1421 14.9221 17.5811 14.9221 16.0318 14.9104C15.3911 14.9104 15.228 14.7465 15.228 14.1144C15.2163 13.2131 15.2047 12.3234 15.228 11.4221C15.2396 11.0709 15.1231 10.8602 14.8086 10.6846C13.6903 10.0642 12.5953 9.40871 11.4071 8.72978C11.3954 8.99901 11.3721 9.18631 11.3721 9.36189C11.3721 11.1177 11.3838 12.8736 11.3605 14.6294C11.3488 15.0626 11.5003 15.2967 11.873 15.4957C13.1777 16.2214 14.4591 16.994 15.7638 17.7197C15.9502 17.8251 16.288 17.8368 16.4744 17.7315C19.2236 16.1629 22.3922 16.4789 24.6171 18.5626C26.8421 20.6462 27.3663 23.8184 25.9568 26.6629C25.9102 26.7448 25.8752 26.8385 25.817 26.9907C26.1665 27.3301 26.5276 27.6813 26.8887 28.0208C26.9702 28.091 27.0984 28.1729 27.1916 28.1612C27.8672 28.0442 28.2749 28.4656 28.6943 28.8753C29.6029 29.7766 30.5349 30.6662 31.4551 31.5676C32.1541 32.2465 32.1541 32.8201 31.4784 33.5341C31.1406 33.8853 30.8144 34.2482 30.465 34.5759C29.9175 35.091 29.3466 35.1027 28.8108 34.5876C27.7041 33.5224 26.5975 32.4572 25.5141 31.3569C25.3044 31.1462 25.1879 30.795 25.1297 30.4789C25.0598 30.1395 24.3841 29.1094 24.0463 29.0391C23.9415 29.0157 23.79 29.086 23.6852 29.1562C20.074 31.4973 15.461 29.8703 13.8767 26.2883C13.8184 26.1713 13.7485 26.0308 13.6437 25.9723C12.9448 25.5626 12.2225 25.1529 11.3954 24.6729ZM13.3292 24.4856C13.1195 22.2381 13.7252 20.3652 15.228 18.7498C13.9466 18.0124 12.7234 17.2983 11.3954 16.5375C11.3954 18.8435 11.3954 20.9973 11.4071 23.1512C11.4071 23.2565 11.5003 23.4087 11.5935 23.4789C12.1293 23.8067 12.6885 24.1111 13.3292 24.4856ZM5.13988 9.74818C3.85848 9.74818 2.64697 9.73647 1.42382 9.75988C1.31898 9.75988 1.14424 9.92376 1.14424 10.0174C1.12095 11.2582 1.1326 12.499 1.1326 13.7632C2.50719 13.7632 3.81188 13.7632 5.13988 13.7632C5.13988 12.4288 5.13988 11.1295 5.13988 9.74818ZM20.3769 13.7749C20.3769 12.4288 20.3769 11.1177 20.3769 9.795C19.0256 9.795 17.7209 9.795 16.4045 9.795C16.4045 11.1412 16.4045 12.4405 16.4045 13.7749C17.7325 13.7749 19.0256 13.7749 20.3769 13.7749ZM1.12095 17.5793C1.12095 18.8552 1.1093 20.0609 1.1326 21.2666C1.1326 21.3836 1.30733 21.606 1.40052 21.606C2.63533 21.6294 3.87013 21.6177 5.12823 21.6177C5.12823 20.2365 5.12823 18.9254 5.12823 17.5793C3.78858 17.5793 2.49554 17.5793 1.12095 17.5793ZM5.10493 29.4137C5.10493 28.0325 5.10493 26.7331 5.10493 25.4221C3.76529 25.4221 2.47224 25.4221 1.15589 25.4221C1.15589 26.7682 1.15589 28.0676 1.15589 29.4137C2.49554 29.4137 3.78858 29.4137 5.10493 29.4137ZM10.8945 1.16791C9.68301 1.16791 8.70449 2.12778 8.69284 3.33346C8.69284 4.52744 9.67136 5.51072 10.8829 5.52243C12.0944 5.52243 13.0729 4.55085 13.0845 3.35687C13.0845 2.13948 12.106 1.16791 10.8945 1.16791ZM20.0157 17.8953C16.9171 17.8953 14.4242 20.4121 14.4242 23.5141C14.4242 26.6161 16.9287 29.1328 20.0157 29.1328C23.126 29.1445 25.6655 26.5927 25.6422 23.4789C25.6189 20.3886 23.1027 17.8953 20.0157 17.8953ZM30.663 32.8084C29.5796 31.591 28.5545 30.4438 27.6808 29.4723C27.1799 29.8703 26.7489 30.2097 26.4926 30.4087C27.541 31.5676 28.5545 32.7147 29.5796 33.8502C30.0456 33.4054 30.4417 33.0308 30.663 32.8084ZM8.86758 32.0241C10.2072 32.0241 11.442 32.0241 12.805 32.0241C12.141 30.8652 11.5119 29.7766 10.8363 28.606C10.149 29.7883 9.51993 30.8769 8.86758 32.0241ZM25.1763 27.9505C24.8851 28.3134 24.92 28.407 25.6888 29.0157C25.7937 29.0977 25.9917 29.0626 26.1548 29.086C26.1664 29.0274 26.1664 28.9689 26.1781 28.8987C25.8403 28.5943 25.5141 28.2666 25.1763 27.9505Z" fill="black"/>
<path d="M13.3282 24.4911C12.6759 24.1165 12.1284 23.8005 11.5808 23.4727C11.4877 23.4142 11.3945 23.262 11.3945 23.145C11.3828 20.9911 11.3828 18.8373 11.3828 16.5312C12.7108 17.3038 13.934 18.0062 15.2154 18.7436C13.7359 20.3707 13.1185 22.2436 13.3282 24.4911Z" fill="white"/>
<path d="M20.0246 20.0078C20.805 20.0078 21.4923 20.476 21.7836 21.2135C22.0631 21.9158 21.9001 22.4777 21.306 23.1215C21.038 23.4142 20.8866 23.8356 20.6303 24.1516C20.4905 24.3272 20.2342 24.5262 20.0595 24.5028C19.8848 24.4794 19.6285 24.2219 19.6052 24.0229C19.4771 23.2737 19.9663 22.8055 20.4556 22.3372C20.8633 21.9627 20.8749 21.6115 20.5022 21.3071C20.1411 21.0028 19.5819 21.1199 19.3606 21.5413C19.3023 21.6583 19.3256 21.8339 19.2441 21.9275C19.0693 22.1148 18.8597 22.3958 18.65 22.4192C18.2888 22.4543 18.1374 22.1382 18.1491 21.7871C18.1607 20.8389 19.0227 20.0195 20.0246 20.0078Z" fill="black"/>
<path d="M20.8983 25.6735C20.9099 26.1184 20.5954 26.4578 20.1527 26.4578C19.7217 26.4578 19.3606 26.1184 19.3839 25.6852C19.4072 25.2287 19.6518 24.9712 20.1061 24.9244C20.5371 24.8893 20.8866 25.2287 20.8983 25.6735Z" fill="black"/>
</g>
<defs>
<clipPath id="clip0_1137_11561">
<rect width="32" height="35" fill="white"/>
</clipPath>
</defs>
</svg>
