<svg width="20" height="20" viewBox="0 0 20 20" fill="none" xmlns="http://www.w3.org/2000/svg">
<path d="M9.5 17H3.66667C3.22464 17 2.80072 16.8244 2.48816 16.5118C2.17559 16.1993 2 15.7754 2 15.3333V3.66667C2 3.22464 2.17559 2.80072 2.48816 2.48816C2.80072 2.17559 3.22464 2 3.66667 2H15.3333C15.7754 2 16.1993 2.17559 16.5118 2.48816C16.8244 2.80072 17 3.22464 17 3.66667V9.5" stroke="black" stroke-width="1.04167" stroke-linecap="round" stroke-linejoin="round"/>
<path d="M2 7.83594H17" stroke="black" stroke-width="1.04167" stroke-linecap="round" stroke-linejoin="round"/>
<path d="M7.83594 2V17" stroke="black" stroke-width="1.04167" stroke-linecap="round" stroke-linejoin="round"/>
<path d="M13.6641 15.3307C13.6641 15.7728 13.8397 16.1967 14.1522 16.5092C14.4648 16.8218 14.8887 16.9974 15.3307 16.9974C15.7728 16.9974 16.1967 16.8218 16.5092 16.5092C16.8218 16.1967 16.9974 15.7728 16.9974 15.3307C16.9974 14.8887 16.8218 14.4648 16.5092 14.1522C16.1967 13.8397 15.7728 13.6641 15.3307 13.6641C14.8887 13.6641 14.4648 13.8397 14.1522 14.1522C13.8397 14.4648 13.6641 14.8887 13.6641 15.3307Z" stroke="black" stroke-width="1.04167" stroke-linecap="round" stroke-linejoin="round"/>
<path d="M15.3359 12.4141V13.6641" stroke="black" stroke-width="1.04167" stroke-linecap="round" stroke-linejoin="round"/>
<path d="M15.3359 17V18.25" stroke="black" stroke-width="1.04167" stroke-linecap="round" stroke-linejoin="round"/>
<path d="M17.8637 13.875L16.7812 14.5" stroke="black" stroke-width="1.04167" stroke-linecap="round" stroke-linejoin="round"/>
<path d="M13.888 16.1641L12.8047 16.7891" stroke="black" stroke-width="1.04167" stroke-linecap="round" stroke-linejoin="round"/>
<path d="M12.8047 13.875L13.888 14.5" stroke="black" stroke-width="1.04167" stroke-linecap="round" stroke-linejoin="round"/>
<path d="M16.7812 16.1641L17.8646 16.7891" stroke="black" stroke-width="1.04167" stroke-linecap="round" stroke-linejoin="round"/>
</svg>
