<svg width="20" height="20" viewBox="0 0 20 20" fill="none" xmlns="http://www.w3.org/2000/svg">
<path d="M4.16927 3.33594H7.5026C7.72362 3.33594 7.93558 3.42374 8.09186 3.58002C8.24814 3.7363 8.33594 3.94826 8.33594 4.16927V9.16927C8.33594 9.39028 8.24814 9.60225 8.09186 9.75853C7.93558 9.91481 7.72362 10.0026 7.5026 10.0026H4.16927C3.94826 10.0026 3.7363 9.91481 3.58002 9.75853C3.42374 9.60225 3.33594 9.39028 3.33594 9.16927V4.16927C3.33594 3.94826 3.42374 3.7363 3.58002 3.58002C3.7363 3.42374 3.94826 3.33594 4.16927 3.33594Z" stroke="black" stroke-width="1.04167" stroke-linecap="round" stroke-linejoin="round"/>
<path d="M4.16927 13.3359H7.5026C7.72362 13.3359 7.93558 13.4237 8.09186 13.58C8.24814 13.7363 8.33594 13.9483 8.33594 14.1693V15.8359C8.33594 16.057 8.24814 16.2689 8.09186 16.4252C7.93558 16.5815 7.72362 16.6693 7.5026 16.6693H4.16927C3.94826 16.6693 3.7363 16.5815 3.58002 16.4252C3.42374 16.2689 3.33594 16.057 3.33594 15.8359V14.1693C3.33594 13.9483 3.42374 13.7363 3.58002 13.58C3.7363 13.4237 3.94826 13.3359 4.16927 13.3359Z" stroke="black" stroke-width="1.04167" stroke-linecap="round" stroke-linejoin="round"/>
<path d="M12.4974 10H15.8307C16.0517 10 16.2637 10.0878 16.42 10.2441C16.5763 10.4004 16.6641 10.6123 16.6641 10.8333V15.8333C16.6641 16.0543 16.5763 16.2663 16.42 16.4226C16.2637 16.5789 16.0517 16.6667 15.8307 16.6667H12.4974C12.2764 16.6667 12.0644 16.5789 11.9081 16.4226C11.7519 16.2663 11.6641 16.0543 11.6641 15.8333V10.8333C11.6641 10.6123 11.7519 10.4004 11.9081 10.2441C12.0644 10.0878 12.2764 10 12.4974 10Z" stroke="black" stroke-width="1.04167" stroke-linecap="round" stroke-linejoin="round"/>
<path d="M12.4974 3.33594H15.8307C16.0517 3.33594 16.2637 3.42374 16.42 3.58002C16.5763 3.7363 16.6641 3.94826 16.6641 4.16927V5.83594C16.6641 6.05695 16.5763 6.26891 16.42 6.42519C16.2637 6.58147 16.0517 6.66927 15.8307 6.66927H12.4974C12.2764 6.66927 12.0644 6.58147 11.9081 6.42519C11.7519 6.26891 11.6641 6.05695 11.6641 5.83594V4.16927C11.6641 3.94826 11.7519 3.7363 11.9081 3.58002C12.0644 3.42374 12.2764 3.33594 12.4974 3.33594Z" stroke="black" stroke-width="1.04167" stroke-linecap="round" stroke-linejoin="round"/>
</svg>
