<svg width="24" height="28" viewBox="0 0 24 28" fill="none" xmlns="http://www.w3.org/2000/svg">
<g clip-path="url(#clip0_70_1686)">
<path d="M12.4417 16.2482V17.7286H20.9967C21.574 17.7286 21.6922 17.8462 21.6922 18.4304C21.6922 19.2238 21.6922 20.0171 21.6922 20.8112C21.6922 21.1975 21.5274 21.4095 21.245 21.3875C20.9056 21.3613 20.8277 21.1238 20.8277 20.8204C20.8326 20.1022 20.8277 19.3833 20.8277 18.6375H12.4326C12.4326 18.8842 12.4326 19.1465 12.4326 19.4088C12.4326 19.9093 12.4368 20.4099 12.4326 20.9104C12.4285 21.194 12.2935 21.3868 12.0007 21.3854C11.7079 21.384 11.5757 21.1876 11.5737 20.9054C11.5681 20.283 11.5737 19.6605 11.5737 19.038C11.5737 18.9069 11.5737 18.7764 11.5737 18.6282H3.29961C3.29961 18.7622 3.29961 18.8906 3.29961 19.0189C3.29961 19.657 3.29961 20.2886 3.29961 20.9232C3.30668 20.9816 3.30136 21.041 3.28402 21.0972C3.26668 21.1533 3.23772 21.2051 3.19909 21.2489C3.16046 21.2927 3.11306 21.3276 3.06009 21.3511C3.00712 21.3747 2.94981 21.3864 2.89203 21.3854C2.83459 21.3941 2.77599 21.3896 2.72048 21.3722C2.66498 21.3548 2.61397 21.325 2.57119 21.285C2.5284 21.245 2.49492 21.1958 2.47318 21.1409C2.45143 21.086 2.44198 21.0269 2.4455 20.9678C2.43483 20.0282 2.43483 19.0884 2.4455 18.1483C2.44898 17.8711 2.63886 17.7413 2.89968 17.7314C3.12712 17.7229 3.35455 17.7314 3.58199 17.7314H11.5375V16.2511H4.91324C4.2977 16.2511 4.18015 16.1305 4.18015 15.5024C4.18015 11.3762 4.18015 7.25 4.18015 3.12381C4.2031 2.77957 4.13081 2.43568 3.97149 2.13125C3.72984 1.62741 3.54055 1.0992 3.40672 0.555215C3.38502 0.494235 3.3779 0.428854 3.38597 0.36451C3.39404 0.300165 3.41705 0.238711 3.4531 0.185255C3.48915 0.131799 3.5372 0.0878846 3.59325 0.0571594C3.6493 0.0264342 3.71172 0.00978519 3.77535 0.00859741C3.88271 -4.59045e-05 3.99048 -0.00217306 4.09808 0.0022202H20.2226C20.9237 0.0022202 21.0663 0.201439 20.8054 0.871414C20.601 1.39747 20.3568 1.90792 20.1454 2.43114C20.1148 2.54873 20.1058 2.67109 20.1189 2.79201C20.1189 7.02786 20.1189 11.2639 20.1189 15.5003C20.1189 16.1596 20.0264 16.2518 19.365 16.2518H12.4417V16.2482ZM13.6637 15.34V14.9288C13.6637 13.5251 13.6637 12.1213 13.6637 10.7176C13.6637 10.2404 13.7987 10.1057 14.2612 10.105C15.3142 10.1022 16.3675 10.1022 17.421 10.105C17.9558 10.105 18.0671 10.2199 18.0678 10.7764C18.0678 12.1554 18.0678 13.535 18.0678 14.914C18.0678 15.0557 18.0817 15.1975 18.0894 15.3393H19.221V2.45738H5.06904V15.34H6.25145V14.9225C6.25145 13.5187 6.25145 12.1149 6.25145 10.7112C6.25145 10.2213 6.36551 10.105 6.84195 10.1036C7.90843 10.1012 8.97375 10.1012 10.0379 10.1036C10.5178 10.1036 10.6312 10.2199 10.6319 10.7076C10.6319 12.1114 10.6319 13.5152 10.6319 14.9189V15.3386L13.6637 15.34ZM17.1762 15.3641V11.004H14.5331C14.5331 12.4085 14.5331 13.7966 14.5422 15.1869C14.5422 15.2479 14.6729 15.3585 14.7446 15.3592C15.5458 15.3684 16.3464 15.3641 17.1789 15.3641H17.1762ZM7.12712 15.3372H9.73605V11.0125H7.12712V15.3372ZM4.46671 0.900482C4.62321 1.54919 4.6232 1.54919 5.23179 1.54919H19.1563C19.7176 1.54919 19.7322 1.53501 19.8352 0.900482H4.46671Z" fill="black" stroke="black" stroke-width="0.1"/>
<path d="M21.0773 28.0007C20.506 27.9944 19.9493 27.8156 19.4776 27.4869C19.006 27.1582 18.6405 26.6944 18.4273 26.154C18.2142 25.6136 18.163 25.021 18.2802 24.451C18.3974 23.881 18.6777 23.3592 19.0857 22.9515C19.4937 22.5438 20.0111 22.2686 20.5726 22.1605C21.134 22.0525 21.7143 22.1165 22.24 22.3445C22.7658 22.5725 23.2134 22.9542 23.5264 23.4414C23.8394 23.9287 24.0037 24.4995 23.9985 25.0819C23.9956 25.4693 23.9176 25.8524 23.7691 26.209C23.6205 26.5656 23.4043 26.8888 23.1329 27.16C22.8615 27.4313 22.5401 27.6451 22.1874 27.7894C21.8346 27.9337 21.4573 28.0055 21.0773 28.0007ZM22.6832 26.3084C23.0086 25.9096 23.1693 25.3976 23.1315 24.8803C23.0938 24.3631 22.8605 23.881 22.4809 23.5357C22.2845 23.3517 22.0545 23.2091 21.8039 23.1159C21.5534 23.0228 21.2873 22.981 21.0209 22.9929C20.7545 23.0048 20.493 23.0702 20.2514 23.1854C20.0098 23.3005 19.7929 23.4632 19.6132 23.664C19.2821 24.0164 19.0922 24.4822 19.0807 24.9701C19.0692 25.4579 19.2371 25.9325 19.5513 26.3006L20.1237 25.7739C19.7335 25.0011 19.7947 24.4077 20.2997 23.9709C20.5153 23.7835 20.7872 23.6766 21.0705 23.6679C21.3537 23.6593 21.6314 23.7494 21.8576 23.9235C22.4141 24.3559 22.4927 24.9415 22.1025 25.7887L22.6832 26.3084ZM20.2586 26.9203C20.5215 27.0634 20.8162 27.1347 21.1141 27.1272C21.412 27.1198 21.7029 27.0338 21.9585 26.8777C21.8649 26.7331 21.7367 26.6151 21.586 26.5348C21.4354 26.4545 21.2672 26.4146 21.0972 26.4188C20.9272 26.423 20.7611 26.4711 20.6144 26.5587C20.4678 26.6463 20.3453 26.7705 20.2586 26.9195V26.9203ZM21.208 24.497L21.0383 24.4899C20.9354 24.6395 20.7712 24.7785 20.7434 24.9408C20.7316 24.9925 20.7329 25.0463 20.7472 25.0973C20.7615 25.1483 20.7884 25.1947 20.8252 25.2321C20.8621 25.2696 20.9077 25.2968 20.9578 25.3112C21.0079 25.3256 21.0607 25.3267 21.1113 25.3144C21.1943 25.2896 21.27 25.2442 21.3316 25.1824C21.3933 25.1205 21.439 25.0441 21.4647 24.9599C21.4758 24.8146 21.3019 24.6523 21.208 24.4963V24.497Z" fill="black"/>
<path d="M2.87602 27.993C2.30496 27.9902 1.74751 27.8151 1.27406 27.4896C0.800598 27.1641 0.432355 26.7029 0.215816 26.1643C-0.000722469 25.6257 -0.0558526 25.0337 0.0573913 24.4632C0.170635 23.8926 0.447174 23.3691 0.852095 22.9586C1.25702 22.5481 1.77217 22.2692 2.33251 22.1569C2.89286 22.0446 3.47328 22.1041 4.0005 22.3277C4.52772 22.5514 4.9781 22.9293 5.29479 23.4137C5.61148 23.8981 5.78027 24.4673 5.77986 25.0494C5.78258 25.4381 5.7092 25.8235 5.56403 26.1829C5.41886 26.5424 5.20481 26.8687 4.93441 27.1428C4.66401 27.4169 4.34268 27.6333 3.98924 27.7793C3.63581 27.9253 3.25735 27.998 2.87602 27.993ZM4.46462 26.3071C4.62949 26.1006 4.7528 25.863 4.82749 25.6078C4.90219 25.3527 4.92681 25.0851 4.89993 24.8202C4.87306 24.5554 4.79522 24.2986 4.67088 24.0644C4.54654 23.8303 4.37812 23.6234 4.17527 23.4557C3.9694 23.2829 3.73214 23.1532 3.47706 23.0739C3.22197 22.9946 2.95407 22.9674 2.68865 22.9937C2.42324 23.0201 2.16552 23.0995 1.93022 23.2274C1.69492 23.3553 1.48666 23.5292 1.31734 23.7392C1.01856 24.0953 0.855317 24.549 0.857359 25.0175C0.859402 25.486 1.0266 25.9382 1.32847 26.2915L1.90924 25.7662C1.71461 25.511 1.6184 25.1921 1.63878 24.8696C1.65915 24.5471 1.7947 24.2433 2.01982 24.0157C2.2249 23.8162 2.49035 23.6935 2.77275 23.6677C3.05515 23.6419 3.33776 23.7147 3.57434 23.8739C4.16623 24.2766 4.25804 24.8325 3.88593 25.7882L4.46462 26.3071ZM3.75379 26.9161C3.66266 26.7659 3.53524 26.642 3.38371 26.5563C3.23218 26.4706 3.06162 26.426 2.88834 26.4267C2.71505 26.4274 2.54484 26.4734 2.39399 26.5604C2.24315 26.6473 2.11671 26.7722 2.02678 26.9232C2.29751 27.0512 2.59254 27.117 2.89098 27.1159C3.18942 27.1148 3.48398 27.0469 3.75379 26.9168V26.9161ZM2.82038 25.3855L2.988 25.3777C3.07981 25.221 3.23283 25.0714 3.24952 24.9069C3.2573 24.8546 3.25191 24.8012 3.23385 24.7516C3.2158 24.702 3.18567 24.6579 3.14631 24.6235C3.10695 24.589 3.05964 24.5653 3.00884 24.5547C2.95803 24.544 2.90538 24.5466 2.85585 24.5624C2.77497 24.5934 2.70287 24.6443 2.64596 24.7106C2.58905 24.7769 2.54909 24.8565 2.52965 24.9424C2.52826 25.0898 2.71605 25.238 2.82038 25.3855Z" fill="black"/>
<path d="M9.10164 25.0713C9.09753 24.4883 9.26308 23.9172 9.57735 23.43C9.89162 22.9429 10.3405 22.5617 10.8673 22.3345C11.3941 22.1074 11.9751 22.0445 12.5369 22.1539C13.0987 22.2633 13.6161 22.54 14.0237 22.949C14.4313 23.358 14.7108 23.881 14.8268 24.4519C14.9429 25.0228 14.8903 25.6159 14.6757 26.1564C14.4611 26.6968 14.0942 27.1603 13.6213 27.4882C13.1483 27.8161 12.5906 27.9938 12.0187 27.9987C11.6384 28.0023 11.2612 27.9294 10.9086 27.7842C10.556 27.6389 10.235 27.4242 9.96405 27.1522C9.69305 26.8803 9.47738 26.5565 9.32939 26.1994C9.1814 25.8423 9.104 25.459 9.10164 25.0713ZM11.0171 25.7711C10.8255 25.513 10.7318 25.1929 10.7534 24.8699C10.775 24.5469 10.9104 24.2428 11.1347 24.0136C11.337 23.8107 11.6029 23.687 11.8858 23.6641C12.1687 23.6413 12.4505 23.7209 12.6815 23.8888C12.8956 24.0599 13.0632 24.2839 13.1684 24.5396C13.2394 24.7458 13.259 24.9668 13.2254 25.1826C13.1918 25.3985 13.106 25.6024 12.9758 25.7761L13.5767 26.3106C13.7419 26.1037 13.8653 25.8655 13.9398 25.6098C14.0143 25.3541 14.0385 25.0859 14.011 24.8206C13.9835 24.5554 13.9047 24.2982 13.7793 24.0641C13.654 23.83 13.4844 23.6234 13.2804 23.4563C12.8635 23.1093 12.3286 22.945 11.793 22.9997C11.2574 23.0543 10.765 23.3233 10.4238 23.7477C10.1237 24.1019 9.95988 24.5551 9.96295 25.0231C9.96602 25.4912 10.1357 25.9421 10.4405 26.2922L11.0171 25.7711ZM11.1333 26.9338C11.4053 27.0591 11.7007 27.1231 11.9992 27.1215C12.2977 27.1199 12.5923 27.0527 12.8631 26.9246C12.7723 26.7737 12.6449 26.6491 12.4931 26.5629C12.3414 26.4767 12.1705 26.4318 11.9968 26.4324C11.8231 26.433 11.6525 26.4792 11.5014 26.5666C11.3502 26.6539 11.2237 26.7794 11.134 26.931L11.1333 26.9338ZM11.5617 24.8622C11.5617 24.9208 11.5617 24.9794 11.5617 25.038C11.7099 25.1358 11.8511 25.2968 12.0083 25.3159C12.0593 25.3253 12.1119 25.3211 12.1608 25.3036C12.2097 25.286 12.2533 25.2559 12.2874 25.216C12.3214 25.1761 12.3446 25.1278 12.3548 25.076C12.3651 25.0242 12.3619 24.9705 12.3456 24.9203C12.306 24.7785 12.1182 24.5793 11.9916 24.5758C11.8539 24.5708 11.7071 24.758 11.5624 24.8622H11.5617Z" fill="black"/>
<path d="M13.9624 6.59095C14.1655 6.59095 14.3686 6.59095 14.5717 6.59095C14.6377 6.58083 14.705 6.58608 14.7687 6.60632C14.8324 6.62656 14.8907 6.66127 14.9393 6.70782C14.9879 6.75436 15.0255 6.81154 15.0493 6.87505C15.0731 6.93856 15.0825 7.00673 15.0767 7.07446C15.0885 7.52466 15.0864 7.97627 15.0767 8.42718C15.0818 8.48883 15.0739 8.55088 15.0536 8.6092C15.0334 8.66752 15.0011 8.72075 14.9591 8.76537C14.917 8.80998 14.8661 8.84494 14.8097 8.86792C14.7534 8.8909 14.6929 8.90137 14.6322 8.89863C14.1669 8.91281 13.7002 8.91352 13.2349 8.89863C13.1713 8.90201 13.1078 8.891 13.0488 8.86636C12.9899 8.84173 12.9371 8.8041 12.8941 8.75617C12.8512 8.70825 12.8192 8.65123 12.8004 8.5892C12.7816 8.52716 12.7766 8.46165 12.7856 8.39739C12.7856 7.95854 12.7856 7.5197 12.7856 7.08156C12.778 7.0141 12.7857 6.94576 12.8081 6.88181C12.8305 6.81786 12.8669 6.76001 12.9147 6.71268C12.9625 6.66536 13.0203 6.62985 13.0836 6.60886C13.147 6.58788 13.2142 6.58199 13.2801 6.59165L13.9624 6.59095ZM13.6634 7.99754H14.1857V7.50126H13.6634V7.99754Z" fill="black" stroke="black" stroke-width="0.1"/>
<path d="M11.5728 7.67242C11.5867 8.89184 11.6424 8.93013 10.46 8.91028C10.2332 8.90673 10.0065 8.91027 9.77976 8.90531C9.71338 8.91243 9.64627 8.90419 9.58345 8.88121C9.52063 8.85823 9.4637 8.8211 9.41691 8.77258C9.37012 8.72407 9.33466 8.66542 9.31319 8.601C9.29172 8.53658 9.28477 8.46806 9.29288 8.40053C9.29288 7.96239 9.29288 7.52424 9.29288 7.0861C9.28406 7.01881 9.29058 6.95035 9.31193 6.88604C9.33328 6.82174 9.36889 6.76331 9.41599 6.7153C9.46308 6.6673 9.52039 6.63101 9.58348 6.60924C9.64657 6.58748 9.71374 6.58084 9.77976 6.58983C10.2214 6.58983 10.6631 6.58983 11.1013 6.58983C11.1644 6.5829 11.2282 6.59062 11.288 6.61242C11.3478 6.63423 11.402 6.66954 11.4465 6.71571C11.491 6.76189 11.5246 6.81773 11.545 6.87905C11.5653 6.94037 11.5717 7.00558 11.5638 7.0698C11.5756 7.30518 11.5728 7.537 11.5728 7.67242ZM10.2026 7.49447C10.108 8.04392 10.1818 8.11126 10.6895 7.96238V7.49447H10.2026Z" fill="black" stroke="black" stroke-width="0.1"/>
<path d="M11.5764 4.82328C11.5764 5.05512 11.5813 5.28624 11.5764 5.51737C11.5822 5.57888 11.5748 5.64093 11.5547 5.69923C11.5346 5.75752 11.5022 5.81066 11.4599 5.85492C11.4176 5.89918 11.3664 5.93352 11.3097 5.95555C11.2531 5.97757 11.1924 5.98675 11.1319 5.98245C10.6666 5.99309 10.1999 5.9938 9.73462 5.98245C9.67691 5.9856 9.61922 5.97622 9.56533 5.95494C9.51145 5.93366 9.4626 5.90097 9.42204 5.85902C9.38147 5.81707 9.3501 5.76681 9.33001 5.71158C9.30992 5.65635 9.30156 5.5974 9.30548 5.53863C9.29436 5.06362 9.29366 4.58862 9.30548 4.11361C9.30219 4.05195 9.3121 3.99029 9.33454 3.93293C9.35698 3.87557 9.39141 3.82387 9.43542 3.78143C9.47943 3.739 9.53198 3.70684 9.58941 3.6872C9.64685 3.66755 9.70779 3.66089 9.76801 3.66767C10.2097 3.66271 10.652 3.66767 11.0944 3.66767C11.1606 3.659 11.228 3.666 11.2912 3.68811C11.3544 3.71022 11.4117 3.74685 11.4588 3.79517C11.5058 3.8435 11.5414 3.9022 11.5626 3.96677C11.5839 4.03133 11.5902 4.10002 11.5813 4.1675C11.5785 4.38586 11.5771 4.60492 11.5764 4.82328ZM10.1909 4.5638V5.07426H10.6952V4.5638H10.1909Z" fill="black" stroke="black" stroke-width="0.1"/>
<path d="M12.7859 4.80789C12.7671 3.65156 12.7511 3.63879 13.8987 3.66077C14.1262 3.66502 14.3529 3.66077 14.5804 3.66077C14.6467 3.65273 14.714 3.65994 14.7772 3.68186C14.8404 3.70379 14.8981 3.73988 14.9458 3.78748C14.9936 3.83508 15.0303 3.89299 15.0532 3.95694C15.0762 4.0209 15.0847 4.08928 15.0784 4.15706C15.0881 4.59591 15.0867 5.03547 15.0784 5.47432C15.0856 5.54183 15.078 5.61013 15.0563 5.67432C15.0346 5.73852 14.9992 5.797 14.9526 5.84559C14.9061 5.89419 14.8496 5.93168 14.7871 5.95538C14.7247 5.97907 14.6579 5.98838 14.5915 5.98265C14.161 5.98974 13.7304 5.99328 13.2999 5.98265C12.9354 5.97414 12.7956 5.81462 12.788 5.43036C12.7824 5.22263 12.7859 5.01562 12.7859 4.80789ZM13.6609 5.06807H14.1957V4.5718H13.6609V5.06807Z" fill="black" stroke="black" stroke-width="0.1"/>
<path d="M5.81074 7.71264C5.81074 7.49357 5.81074 7.2745 5.81074 7.05614C5.80345 6.99492 5.80975 6.93281 5.8292 6.87441C5.84864 6.81601 5.88072 6.76281 5.92307 6.71876C5.96541 6.67471 6.01694 6.64094 6.07382 6.61994C6.13071 6.59894 6.19151 6.59124 6.25171 6.59744C6.7045 6.59176 7.1559 6.59744 7.61077 6.59744C7.6708 6.58922 7.73187 6.59478 7.78951 6.61373C7.84715 6.63267 7.89991 6.66452 7.94391 6.70694C7.98792 6.74935 8.02207 6.80125 8.04386 6.85885C8.06564 6.91645 8.07451 6.97829 8.06983 7.03984C8.08095 7.51343 8.07887 7.98844 8.06983 8.46203C8.07487 8.52053 8.06744 8.57946 8.04803 8.63476C8.02862 8.69006 7.99769 8.74041 7.95738 8.78237C7.91707 8.82433 7.86834 8.85691 7.81451 8.87786C7.76068 8.8988 7.70304 8.90762 7.64555 8.90371C7.18094 8.91506 6.71563 8.91648 6.25449 8.90371C6.19114 8.90876 6.1275 8.89898 6.06842 8.87514C6.00934 8.85131 5.95637 8.81403 5.91357 8.76616C5.87077 8.71829 5.83926 8.6611 5.82144 8.59893C5.80362 8.53676 5.79996 8.47127 5.81074 8.40744C5.81491 8.1749 5.81074 7.94377 5.81074 7.71264ZM7.19763 7.50421H6.69546V7.99552H7.19763V7.50421Z" fill="black" stroke="black" stroke-width="0.1"/>
<path d="M17.4237 6.5903C17.6504 6.5903 17.8771 6.5903 18.1039 6.5903C18.164 6.58363 18.2249 6.59059 18.2821 6.61066C18.3394 6.63074 18.3915 6.66345 18.4349 6.70646C18.4783 6.74946 18.5118 6.8017 18.5331 6.85945C18.5544 6.91719 18.5629 6.97901 18.5581 7.0405C18.5671 7.50274 18.5629 7.96216 18.5581 8.42724C18.5649 8.48856 18.5585 8.55066 18.5392 8.60916C18.5199 8.66766 18.4882 8.72112 18.4464 8.76576C18.4046 8.8104 18.3537 8.84513 18.2973 8.86749C18.2408 8.88985 18.1803 8.89929 18.1199 8.89515C17.6562 8.90744 17.1911 8.90744 16.7246 8.89515C16.6642 8.89877 16.6038 8.88897 16.5475 8.8664C16.4912 8.84384 16.4403 8.80906 16.3985 8.76448C16.3567 8.71991 16.3249 8.66658 16.3053 8.60823C16.2857 8.54987 16.2788 8.48788 16.2851 8.42653C16.28 7.97657 16.28 7.52756 16.2851 7.07949C16.2768 7.01214 16.2839 6.94374 16.3059 6.87967C16.328 6.81561 16.3643 6.75763 16.412 6.71029C16.4597 6.66294 16.5176 6.62753 16.581 6.60683C16.6444 6.58614 16.7117 6.58072 16.7775 6.59101C16.9938 6.59243 17.2094 6.5903 17.4237 6.5903ZM17.1691 7.99477H17.6629V7.49353H17.1691V7.99477Z" fill="black" stroke="black" stroke-width="0.1"/>
<path d="M5.81565 4.83114C5.81565 4.60001 5.81565 4.36889 5.81565 4.13777C5.80828 4.07654 5.81432 4.0144 5.83336 3.95584C5.85239 3.89728 5.88395 3.84376 5.92573 3.79913C5.96752 3.7545 6.01849 3.71989 6.07499 3.69778C6.13149 3.67567 6.1921 3.66661 6.25245 3.67126C6.71776 3.66063 7.18307 3.66276 7.64839 3.67126C7.70586 3.6673 7.7635 3.67602 7.81736 3.69683C7.87123 3.71763 7.92007 3.75003 7.96053 3.79182C8.001 3.83361 8.03215 3.8838 8.05186 3.93898C8.07157 3.99415 8.07937 4.05301 8.07474 4.11153C8.0854 4.58418 8.0854 5.05872 8.07474 5.53515C8.07893 5.59666 8.06996 5.65837 8.04843 5.71599C8.0269 5.77362 7.99334 5.82578 7.95007 5.86887C7.9068 5.91197 7.85486 5.94496 7.79785 5.96556C7.74083 5.98616 7.6801 5.99387 7.61987 5.98818C7.17821 5.99456 6.73654 5.99385 6.29835 5.98818C6.23231 5.99665 6.16524 5.98945 6.10237 5.96713C6.03951 5.94482 5.98256 5.90799 5.93596 5.85954C5.88937 5.81108 5.8544 5.7523 5.83377 5.68779C5.81314 5.62328 5.80741 5.55479 5.81704 5.48765C5.81704 5.26716 5.81565 5.05021 5.81565 4.83114ZM6.69898 5.07431H7.19489V4.57804H6.69898V5.07431Z" fill="black" stroke="black" stroke-width="0.1"/>
<path d="M16.2859 4.79983C16.2678 3.62648 16.2664 3.64279 17.3988 3.66052C17.5782 3.66052 17.757 3.66052 17.9364 3.66052C18.4379 3.66052 18.5568 3.77891 18.5624 4.2759C18.5624 4.67788 18.5624 5.07987 18.5624 5.48114C18.5706 5.54851 18.5637 5.61691 18.5423 5.68117C18.5208 5.74543 18.4852 5.80386 18.4384 5.85207C18.3915 5.90028 18.3344 5.937 18.2716 5.95945C18.2087 5.9819 18.1417 5.9895 18.0755 5.98167C17.6457 5.98734 17.2158 5.98167 16.786 5.98167C16.7169 5.99018 16.6468 5.98226 16.5812 5.95852C16.5156 5.93478 16.4562 5.89585 16.4079 5.84482C16.3595 5.79379 16.3233 5.73203 16.3023 5.66438C16.2813 5.59673 16.2759 5.52503 16.2866 5.45491C16.2866 5.23702 16.2864 5.01866 16.2859 4.79983ZM17.1692 5.07136H17.6805V4.56586H17.1692V5.07136Z" fill="black" stroke="black" stroke-width="0.1"/>
</g>
<defs>
<clipPath id="clip0_70_1686">
<rect width="24" height="28" fill="white"/>
</clipPath>
</defs>
</svg>
