<svg width="34" height="25" viewBox="0 0 34 25" fill="none" xmlns="http://www.w3.org/2000/svg">
<g clip-path="url(#clip0_62_1548)">
<path d="M28.5782 15.8039V13.1258H17.6923V15.8053C17.8193 15.8149 17.9449 15.8329 18.0718 15.8329C18.8393 15.8329 19.6068 15.8218 20.3728 15.8412C20.5438 15.8324 20.7149 15.8574 20.8756 15.9149C21.0362 15.9723 21.1831 16.061 21.3072 16.1753C21.4313 16.2897 21.5299 16.4274 21.5971 16.58C21.6643 16.7326 21.6987 16.8969 21.6981 17.0628C21.718 19.2923 21.718 21.5217 21.6981 23.7512C21.7 24.0634 21.5778 24.3643 21.3568 24.5915C21.1358 24.8187 20.833 24.9547 20.5112 24.9714C20.3643 24.9863 20.2166 24.9928 20.069 24.9908C18.0176 24.9908 15.9667 24.9908 13.9163 24.9908C12.7751 24.9908 12.2901 24.5292 12.2886 23.4361C12.2886 21.4093 12.2886 19.3798 12.2886 17.3475C12.2886 16.3041 12.7822 15.8384 13.865 15.8343C14.6724 15.8343 15.4812 15.8343 16.3157 15.8343V13.1299H5.43558V15.8343H6.76794C7.18164 15.8343 7.59391 15.8343 8.00761 15.8343C8.20047 15.8195 8.39436 15.8452 8.57601 15.9097C8.75767 15.9742 8.92282 16.0759 9.06016 16.2079C9.1975 16.3399 9.30381 16.499 9.3718 16.6745C9.43979 16.8499 9.46787 17.0375 9.45412 17.2245C9.47124 18.3673 9.45412 19.5115 9.45412 20.6544C9.45412 21.5982 9.45412 22.5406 9.45412 23.4845C9.48114 23.6889 9.45929 23.8966 9.39028 24.0915C9.32127 24.2864 9.20694 24.4633 9.05611 24.6087C8.90528 24.754 8.72201 24.8637 8.52042 24.9295C8.31883 24.9953 8.10432 25.0153 7.89348 24.988C5.78316 24.9954 3.67333 24.9954 1.56396 24.988C1.34855 25.0193 1.12856 25.0009 0.921913 24.9342C0.715267 24.8675 0.527811 24.7544 0.374839 24.6042C0.221866 24.454 0.107699 24.2709 0.0416487 24.0698C-0.0244011 23.8688 -0.0404666 23.6554 -0.00523778 23.4472C-0.00523778 21.4204 -0.00523778 19.3908 -0.00523778 17.3585C-0.037607 17.1511 -0.0190971 16.9392 0.0487883 16.7399C0.116674 16.5407 0.232037 16.3598 0.385527 16.2118C0.539016 16.0637 0.726329 15.9528 0.932296 15.888C1.13826 15.8231 1.3571 15.8061 1.5711 15.8384C2.37994 15.8384 3.19021 15.8384 4.04185 15.8384C4.05183 15.674 4.06609 15.5372 4.06609 15.4004C4.06609 14.5146 4.06609 13.6288 4.06609 12.7416C4.06609 11.9954 4.23585 11.8281 5.00047 11.8281H16.3058V9.15969C15.467 9.15969 14.6581 9.15969 13.8478 9.15969C12.7722 9.15969 12.2787 8.68571 12.2787 7.63961C12.2787 5.59531 12.2787 3.55146 12.2787 1.50809C12.2462 1.30393 12.2638 1.09523 12.3301 0.898889C12.3963 0.702546 12.5094 0.524092 12.6601 0.377956C12.8109 0.231819 12.995 0.122104 13.1976 0.0577202C13.4002 -0.00666312 13.6157 -0.0239233 13.8265 0.00734538C15.9368 0.000896498 18.0466 0.000896498 20.156 0.00734538C20.3668 -0.0235478 20.5822 -0.00590699 20.7847 0.0588378C20.9872 0.123583 21.1711 0.233616 21.3216 0.380022C21.472 0.526428 21.5847 0.705105 21.6506 0.901567C21.7165 1.09803 21.7338 1.30677 21.7009 1.51087C21.7066 3.53766 21.7066 5.5672 21.7009 7.59952C21.7009 8.62628 21.2187 9.08092 20.1517 9.08783C19.3414 9.08783 18.5312 9.08783 17.6838 9.08783V11.8295H28.8949C29.7765 11.8295 29.9163 11.9677 29.9163 12.8314C29.9163 13.8153 29.9163 14.7992 29.9163 15.8412H32.2359C33.5197 15.8412 33.9891 16.2986 33.9891 17.5534C33.9891 19.512 33.9891 21.4702 33.9891 23.4278C33.9891 24.5168 33.4941 24.9949 32.3657 24.9977C30.3 24.9977 28.2344 24.9977 26.1688 24.9977C25.0276 24.9977 24.5354 24.5085 24.534 23.3933C24.534 21.4061 24.534 19.4194 24.534 17.4331C24.534 16.3124 25.0219 15.844 26.1774 15.8412H28.4341C28.4831 15.8325 28.5313 15.82 28.5782 15.8039ZM8.11318 23.6904V17.1678H1.35569V23.6904H8.11318ZM13.6239 23.6904C13.7922 23.6987 13.9092 23.707 14.0233 23.707C15.999 23.707 17.9762 23.6987 19.952 23.7167C20.3343 23.7167 20.417 23.5923 20.4142 23.251C20.3999 21.3799 20.4142 19.5074 20.4056 17.6363C20.4056 17.4981 20.3914 17.3599 20.3799 17.165H13.6239V23.6904ZM25.9021 17.1222V23.5812H32.641V17.1222H25.9021ZM20.3614 7.87729C20.3794 7.81379 20.3927 7.74915 20.4013 7.68383C20.4013 5.65657 20.4013 3.62793 20.4127 1.60344C20.4127 1.28975 20.2516 1.26764 19.9991 1.26764C17.9948 1.26764 15.9891 1.26764 13.9848 1.26764C13.8707 1.26764 13.7565 1.287 13.6353 1.29805V7.74185L20.3614 7.87729Z" fill="black"/>
</g>
<defs>
<clipPath id="clip0_62_1548">
<rect width="34" height="25" fill="white"/>
</clipPath>
</defs>
</svg>
