<svg width="32" height="28" viewBox="0 0 32 28" fill="none" xmlns="http://www.w3.org/2000/svg">
<g clip-path="url(#clip0_66_1656)">
<path d="M23.1367 24.2981C23.1367 23.5281 23.1313 22.8377 23.1367 22.1476C23.1203 21.9069 23.1559 21.6655 23.241 21.4394C23.3261 21.2134 23.4588 21.0079 23.6303 20.8366C23.8018 20.6652 24.0082 20.5321 24.2356 20.4458C24.4631 20.3596 24.7065 20.3224 24.9496 20.3366C26.6951 20.3246 28.4404 20.3246 30.1856 20.3366C30.4289 20.3227 30.6724 20.3604 30.8998 20.4473C31.1271 20.5342 31.3331 20.6682 31.504 20.8403C31.6748 21.0124 31.8066 21.2188 31.8904 21.4454C31.9742 21.6721 32.0082 21.9139 31.9901 22.1546C31.9967 23.5067 31.9967 24.8587 31.9901 26.2108C32.0044 26.4478 31.968 26.6852 31.8831 26.9073C31.7982 27.1295 31.6668 27.3312 31.4975 27.4994C31.3282 27.6676 31.1249 27.7984 30.9009 27.8832C30.677 27.9679 30.4374 28.0047 30.1981 27.9912C28.4528 28.0046 26.7075 28.0046 24.962 27.9912C23.8276 27.9838 23.1456 27.2811 23.136 26.1467C23.1342 25.9297 23.136 25.7124 23.136 25.4341H20.8749C20.3988 25.4341 19.9227 25.4415 19.4469 25.4313C19.2118 25.4358 18.9783 25.3922 18.761 25.303C18.5437 25.2139 18.3474 25.0813 18.1843 24.9134C18.0212 24.7456 17.8949 24.5462 17.8133 24.3277C17.7316 24.1092 17.6965 23.8764 17.71 23.6438C17.7036 21.0344 17.7078 18.4246 17.7078 15.8147V15.2755H12.9156C12.9071 15.4577 12.8915 15.6399 12.8915 15.8221C12.8897 17.63 12.8915 19.4379 12.8893 21.2458C12.8865 22.5957 12.1998 23.2749 10.8382 23.2759C7.90301 23.278 4.96786 23.278 2.03271 23.2759C0.70195 23.2759 0.000355058 22.582 0 21.275C0 16.2757 0 11.2765 0 6.27729C0 4.94529 0.706919 4.24711 2.05579 4.24536C3.67414 4.2436 5.29286 4.25767 6.91121 4.24008C7.33209 4.22944 7.75076 4.30357 8.14186 4.45798C8.53295 4.6124 8.88832 4.84388 9.18643 5.13839C10.0698 5.9741 10.9605 6.80218 11.8586 7.62264C12.1937 7.91348 12.4602 8.27384 12.6389 8.67814C12.8177 9.08244 12.9044 9.52076 12.8929 9.96199C12.8854 11.1579 12.8929 12.3516 12.8929 13.5464V14.0807H17.7089V13.577C17.7089 10.7944 17.7089 8.01177 17.7089 5.22914C17.7089 3.91438 18.3693 3.26404 19.7033 3.26192C20.8274 3.26192 21.9515 3.26192 23.1367 3.26192C23.1367 2.76177 23.1331 2.29608 23.1367 1.83004C23.147 0.724909 23.8322 0.0172347 24.9372 0.00949665C26.6983 -0.00316555 28.4595 -0.00316555 30.2208 0.00949665C30.4562 -0.00162498 30.6914 0.0361598 30.9112 0.120426C31.1311 0.204692 31.3307 0.333575 31.4972 0.498795C31.6638 0.664016 31.7936 0.86192 31.8783 1.0798C31.9631 1.29767 32.0009 1.5307 31.9893 1.76391C32.0002 3.14738 32.0002 4.53084 31.9893 5.9143C31.9999 6.14361 31.9626 6.37261 31.8798 6.587C31.797 6.80138 31.6704 6.99656 31.5081 7.16034C31.3457 7.32411 31.151 7.45297 30.9361 7.53887C30.7212 7.62476 30.4908 7.66586 30.2591 7.65958C28.4663 7.67951 26.6734 7.67951 24.8804 7.65958C24.649 7.6659 24.4187 7.62523 24.2038 7.54009C23.9889 7.45494 23.7938 7.32711 23.6306 7.16447C23.4674 7.00183 23.3396 6.80782 23.2549 6.59439C23.1703 6.38096 23.1307 6.15263 23.1384 5.92345C23.1285 5.43771 23.1384 4.95162 23.1384 4.3973H22.6059C21.606 4.3973 20.6065 4.39238 19.607 4.39941C19.0879 4.40328 18.8614 4.58829 18.8614 5.04624C18.8564 8.0174 18.858 10.9884 18.866 13.9594C18.8748 13.9999 18.8888 14.0391 18.9076 14.0761H23.1392C23.1392 13.4638 23.1392 12.8419 23.1392 12.2197C23.1392 10.8037 23.774 10.166 25.1882 10.1642C26.7741 10.1621 28.3609 10.1621 29.9485 10.1642C31.3417 10.166 31.995 10.8089 31.9957 12.174C31.9957 13.4318 31.9986 14.6892 31.9957 15.947C31.9925 17.133 31.3091 17.8238 30.1097 17.8312C28.4597 17.841 26.8076 17.8361 25.1591 17.8333C23.8006 17.8308 23.1427 17.1791 23.1395 15.8418C23.1395 15.6698 23.1395 15.4978 23.1395 15.2854H18.8785C18.8703 15.4409 18.8554 15.5924 18.855 15.7444C18.8536 18.3068 18.8536 20.8693 18.855 23.4318C18.855 24.1468 19.0013 24.2942 19.7111 24.2956C20.8334 24.2995 21.9565 24.2981 23.1367 24.2981ZM6.49331 5.3839C4.9836 5.3839 3.54277 5.3839 2.1023 5.3839C1.33537 5.3839 1.14364 5.57137 1.14364 6.32407C1.14364 11.2898 1.14364 16.2555 1.14364 21.2211C1.14364 21.9559 1.32792 22.1399 2.06928 22.1402C4.98762 22.1416 7.90597 22.1416 10.8243 22.1402C11.5646 22.1402 11.7404 21.9612 11.7407 21.2127C11.7419 17.7871 11.7419 14.3615 11.7407 10.9359C11.7407 10.771 11.7237 10.606 11.713 10.4136C10.9166 10.4136 10.1706 10.3784 9.43 10.4203C6.78588 10.5743 6.37898 9.67814 6.48727 7.52592C6.52242 6.83864 6.49331 6.1482 6.49331 5.3839ZM27.5394 16.6976C28.3958 16.6976 29.2522 16.7043 30.1086 16.6951C30.6604 16.6891 30.8443 16.4992 30.8464 15.947C30.8511 14.6585 30.8511 13.3701 30.8464 12.0819C30.8464 11.4941 30.6689 11.308 30.0887 11.3063C28.4081 11.3 26.7275 11.3 25.0469 11.3063C24.4621 11.3084 24.2867 11.492 24.2846 12.078C24.2806 13.3508 24.2806 14.6236 24.2846 15.8963C24.2846 16.5294 24.4575 16.6937 25.1143 16.6976C25.9218 16.7018 26.7306 16.6979 27.5394 16.6976ZM27.5777 1.14417C26.7213 1.14417 25.8649 1.13854 25.0085 1.14628C24.4795 1.1512 24.2874 1.33762 24.2846 1.85536C24.278 3.17528 24.278 4.4952 24.2846 5.81512C24.2871 6.33356 24.4799 6.52736 25.0071 6.52947C26.7041 6.53651 28.401 6.53651 30.0979 6.52947C30.6557 6.52772 30.8436 6.33919 30.8461 5.79085C30.8513 4.48664 30.8513 3.18243 30.8461 1.87823C30.8439 1.33199 30.6565 1.14839 30.1004 1.14382C29.2586 1.13925 28.4182 1.14417 27.5774 1.14417H27.5777ZM27.5777 26.8572C28.4341 26.8572 29.2905 26.8639 30.1469 26.8548C30.644 26.8495 30.8429 26.656 30.8453 26.1689C30.8529 24.8323 30.8529 23.4967 30.8453 22.162C30.8425 21.6696 30.6479 21.4754 30.1469 21.473C28.4341 21.4652 26.7213 21.4652 25.0085 21.473C24.4802 21.4751 24.2878 21.6678 24.2853 22.1859C24.2789 23.5059 24.2789 24.8258 24.2853 26.1457C24.2881 26.6631 24.4809 26.8513 25.0085 26.8562C25.8642 26.8636 26.7206 26.8576 27.577 26.8576L27.5777 26.8572ZM7.79637 5.46022L7.64405 5.56891C7.64405 6.60228 7.63482 7.63531 7.64938 8.66833C7.64274 8.74427 7.6521 8.82075 7.67686 8.89292C7.70161 8.9651 7.74123 9.03139 7.7932 9.0876C7.84517 9.14381 7.90836 9.18872 7.97877 9.21947C8.04917 9.25023 8.12526 9.26616 8.2022 9.26627C9.32206 9.28667 10.4423 9.27365 11.5625 9.27365L11.6733 9.12241C10.4442 7.83761 9.15027 6.61531 7.79637 5.46022Z" fill="black"/>
<path d="M6.4827 20.0419C5.32699 20.0419 4.17127 20.0479 3.01556 20.0402C2.53161 20.037 2.24472 19.7356 2.33775 19.3515C2.36142 19.2181 2.43498 19.0984 2.54376 19.0164C2.65254 18.9343 2.78854 18.8958 2.92466 18.9087C5.26804 18.9087 7.61143 18.9087 9.95482 18.9087C10.3308 18.9087 10.5719 19.0916 10.5691 19.4714C10.5733 19.551 10.5599 19.6305 10.5296 19.7044C10.4994 19.7782 10.4532 19.8446 10.3942 19.8988C10.3352 19.953 10.265 19.9937 10.1884 20.018C10.1118 20.0423 10.0307 20.0496 9.95091 20.0395C8.79342 20.0451 7.63771 20.0412 6.4827 20.0419Z" fill="black"/>
<path d="M6.47709 12.9471C7.58772 12.9471 8.69834 12.9446 9.80896 12.9471C10.3298 12.9471 10.5802 13.1367 10.5748 13.507C10.5695 13.8676 10.2961 14.0796 9.79831 14.0807C7.56121 14.0845 5.32434 14.0845 3.08771 14.0807C2.53133 14.0807 2.22953 13.774 2.34457 13.3583C2.43724 13.0223 2.68862 12.9443 3.0032 12.9453C4.16069 12.9499 5.31889 12.9471 6.47709 12.9471Z" fill="black"/>
<path d="M6.42625 17.0819C5.31598 17.0819 4.20571 17.0858 3.0958 17.0819C2.57919 17.0795 2.31645 16.8835 2.31254 16.5216C2.30864 16.1597 2.5799 15.9494 3.08337 15.9483C5.33539 15.9443 7.58753 15.9443 9.83978 15.9483C10.3283 15.9483 10.6081 16.1896 10.5669 16.5557C10.5201 16.9729 10.2215 17.0833 9.85221 17.0833L6.42625 17.0819Z" fill="black"/>
<path d="M27.5646 13.6075C26.9937 13.6075 26.4227 13.6134 25.8518 13.6054C25.381 13.5987 25.1321 13.3943 25.1328 13.0349C25.1335 12.6754 25.3814 12.4746 25.8536 12.4721C26.9955 12.4676 28.1373 12.4676 29.2792 12.4721C29.7464 12.4739 29.9985 12.68 29.9978 13.0349C29.9971 13.3898 29.7493 13.5976 29.2774 13.6036C28.7058 13.6138 28.1355 13.6075 27.5646 13.6075Z" fill="black"/>
<path d="M27.6043 15.5314C27.0174 15.5314 26.4309 15.5359 25.8439 15.5314C25.3785 15.5268 25.1143 15.3182 25.1338 14.9612C25.1573 14.5493 25.4264 14.3984 25.8084 14.3984C26.982 14.3984 28.1556 14.3984 29.3292 14.3984C29.7151 14.3984 29.9935 14.5637 29.9864 14.9749C29.9793 15.3861 29.7063 15.5377 29.315 15.5342C28.7462 15.5271 28.1756 15.5314 27.6043 15.5314Z" fill="black"/>
<path d="M27.5714 3.43295C26.9844 3.43295 26.3979 3.43295 25.811 3.43295C25.424 3.43295 25.142 3.28382 25.1406 2.8723C25.1406 2.46852 25.4055 2.29652 25.7985 2.29688C26.9721 2.29688 28.1457 2.29688 29.3193 2.29688C29.7099 2.29688 29.9826 2.45586 29.9893 2.85964C29.9961 3.27011 29.7216 3.43225 29.3317 3.4319C28.7449 3.43213 28.1582 3.43249 27.5714 3.43295Z" fill="black"/>
<path d="M27.5192 5.36282C26.9482 5.36282 26.3777 5.36282 25.8067 5.36282C25.419 5.36282 25.1413 5.20736 25.1406 4.79724C25.1399 4.38713 25.4215 4.22815 25.806 4.22779C26.9794 4.22615 28.1527 4.22615 29.3261 4.22779C29.7102 4.22779 29.9925 4.38537 29.9921 4.79654C29.9918 5.20771 29.7148 5.36352 29.3268 5.36282C28.7241 5.36188 28.1216 5.36188 27.5192 5.36282Z" fill="black"/>
<path d="M27.5758 25.6986C26.9889 25.6986 26.4024 25.6954 25.8155 25.6986C25.4249 25.7014 25.1501 25.5431 25.1409 25.139C25.1316 24.7348 25.4022 24.5621 25.7938 24.5625C26.9832 24.5625 28.1727 24.5625 29.3621 24.5625C29.7335 24.5625 29.9888 24.7331 29.9899 25.1161C29.9899 25.5199 29.7303 25.6965 29.3366 25.6961L27.5758 25.6986Z" fill="black"/>
<path d="M27.5914 22.6338C28.1779 22.6338 28.7646 22.6338 29.3514 22.6338C29.7203 22.6338 29.9806 22.7928 29.9923 23.1758C30.0051 23.5852 29.7388 23.7649 29.35 23.7664C28.1608 23.7708 26.9716 23.7708 25.7824 23.7664C25.3918 23.7664 25.1276 23.5838 25.1411 23.1747C25.1535 22.7921 25.4149 22.6341 25.7838 22.6341C26.3862 22.6325 26.9887 22.6324 27.5914 22.6338Z" fill="black"/>
</g>
<defs>
<clipPath id="clip0_66_1656">
<rect width="32" height="28" fill="white"/>
</clipPath>
</defs>
</svg>
