<svg width="35" height="35" viewBox="0 0 35 35" fill="none" xmlns="http://www.w3.org/2000/svg">
<g clip-path="url(#clip0_1137_11593)">
<path d="M20.3404 32.2532C20.3519 33.1421 20.2365 33.9969 19.4515 34.4984C19.0359 34.7605 18.5049 34.9542 18.0201 34.977C16.7388 35.0112 16.1039 34.2134 15.7345 32.2304C14.9265 32.2304 14.0953 32.2646 13.2757 32.219C12.9871 32.2076 12.5831 32.0936 12.433 31.8771C11.5904 30.7146 10.4822 30.3727 9.08542 30.5436C8.34664 30.6348 7.59631 30.555 6.77672 30.555C6.77672 31.1249 6.77672 31.6491 6.77672 32.1962C5.43767 32.1962 4.17942 32.1962 2.875 32.1962C2.875 28.515 2.875 24.8451 2.875 21.0956C3.82157 21.0956 4.7566 21.0956 5.69162 21.0956C6.3496 21.0956 6.92678 20.0926 6.78826 19.4658C6.5343 18.3717 5.70317 18.0982 4.79123 17.9044C4.13325 17.7676 3.93701 17.4485 3.96009 16.7761C4.01781 15.1008 3.99472 13.4368 3.97164 11.7615C3.96009 11.3626 4.09861 11.1688 4.47955 11.089C4.72197 11.0321 4.95284 10.8953 5.19525 10.8611C6.13028 10.7471 6.59202 10.1773 6.7998 9.34531C6.84598 9.16296 6.85752 8.93502 6.77672 8.76407C6.55739 8.2626 6.31497 7.76114 6.02639 7.29386C5.83015 6.96335 5.89941 6.7696 6.16491 6.51887C7.45778 5.25381 8.75066 3.98875 10.032 2.7009C10.2975 2.43877 10.5053 2.38178 10.817 2.58693C11.0363 2.73509 11.3249 2.79207 11.5327 2.95163C12.2945 3.55567 13.0564 3.38471 13.8067 2.95163C13.9568 2.87185 14.0838 2.7009 14.1415 2.54134C14.3493 2.00568 14.5455 1.47003 14.6956 0.922974C14.7764 0.626654 14.938 0.546875 15.2266 0.546875C17.1082 0.558272 19.0013 0.558272 20.8829 0.546875C21.2177 0.546875 21.3677 0.660844 21.437 0.968562C21.4947 1.24209 21.6679 1.50422 21.7025 1.77774C21.8179 2.71229 22.4413 3.13398 23.2724 3.32773C23.4687 3.37332 23.7226 3.33912 23.9189 3.24795C24.5307 2.97442 25.1194 2.66671 25.812 2.3248C27.2549 3.77221 28.6979 5.20822 30.1293 6.66703C30.2101 6.74681 30.2332 6.97475 30.187 7.10011C30.06 7.41923 29.9215 7.73834 29.7253 8.01187C29.2635 8.66149 29.1481 9.32252 29.6445 9.99494C29.8176 10.2343 30.0485 10.485 30.3024 10.599C30.7873 10.8269 31.3298 10.9295 31.8146 11.1346C31.9763 11.203 32.161 11.431 32.161 11.6019C32.184 13.4824 32.184 15.3629 32.161 17.2434C32.161 17.4029 31.9647 17.6195 31.8031 17.6993C31.5145 17.8474 31.1913 17.9386 30.8796 18.007C30.1293 18.1665 29.6214 18.5198 29.4136 19.3062C29.3212 19.6595 29.252 19.9331 29.4482 20.2636C29.7599 20.8106 30.0254 21.3805 30.3602 22.0301C29.5752 22.7823 28.7787 23.5459 27.9937 24.3209C27.4281 24.8679 26.8509 25.4036 26.3315 25.9848C26.0429 26.304 25.8466 26.7028 25.6504 27.0789C25.6042 27.1701 25.685 27.3639 25.7543 27.4778C26.0429 28.0249 26.0313 28.5605 25.7658 29.119C25.6966 29.2672 25.6735 29.5179 25.7427 29.666C26.3546 30.9425 25.6504 32.1392 24.2075 32.1848C23.1108 32.219 22.0142 32.1962 20.9175 32.1962C20.7328 32.2304 20.5712 32.2418 20.3404 32.2532ZM11.5904 22.2011C6.3496 17.7221 7.25 10.6901 11.0594 7.20269C15.0881 3.51008 21.1369 3.52148 25.154 7.28246C28.9172 10.7927 29.7714 17.8132 24.5653 22.1897C26.0198 22.9191 26.2276 23.4661 25.5696 25.1529C26.5277 24.2069 27.3704 23.3635 28.2131 22.5202C28.9403 21.8022 28.9749 21.7794 28.467 20.9018C28.0745 20.218 28.0745 19.6481 28.34 18.8618C28.7325 17.7107 29.4482 17.1864 30.5564 16.9927C30.9258 16.9243 31.0297 16.7191 31.0297 16.3544C31.0066 15.3059 31.0181 14.2688 31.0181 13.2203C31.0181 12.0692 31.0297 12.0236 29.933 11.7387C29.1943 11.5449 28.8941 11.089 28.5247 10.4508C27.9014 9.35671 28.0745 8.46775 28.721 7.5332C28.9288 7.22548 28.8826 7.02034 28.6055 6.75821C27.809 6.0174 27.0472 5.23102 26.2737 4.46742C25.535 3.73802 25.5119 3.69243 24.6346 4.20529C23.8842 4.63838 23.284 4.56999 22.4644 4.28507C21.3793 3.92037 20.8598 3.30493 20.6867 2.27921C20.6059 1.77774 20.3057 1.64098 19.7978 1.66377C18.782 1.70936 17.7546 1.66377 16.7388 1.67517C15.3882 1.68657 15.6999 1.47003 15.3189 2.71229C15.0996 3.4303 14.6956 3.795 14.003 4.14831C12.8948 4.71815 11.9944 4.61558 11.0478 3.95456C10.7131 3.71522 10.4822 3.8064 10.2167 4.07993C9.50099 4.82073 8.75066 5.53873 8.01187 6.25674C7.1692 7.08872 7.12302 7.11151 7.71174 8.11444C8.09268 8.76407 8.00033 9.28833 7.781 9.99494C7.41161 11.1802 6.68437 11.7159 5.54156 11.9096C5.14908 11.978 5.04518 12.2059 5.05673 12.5934C5.07982 13.7103 5.11445 14.8386 5.04518 15.9555C4.99901 16.628 5.21834 16.9927 5.88786 17.0838C6.82289 17.2206 7.44624 17.6765 7.63094 18.6566C7.67711 18.9301 7.90798 19.1695 7.9657 19.4316C8.02342 19.6823 8.0465 19.99 7.94261 20.1952C7.63094 20.8562 7.25 21.483 6.85752 22.1897C8.47361 22.2011 9.98582 22.2011 11.5904 22.2011ZM20.3288 19.9217C21.6332 20.104 21.8987 20.0356 22.7414 19.2151C24.473 17.5511 25.1194 15.5111 24.7038 13.1861C24.1844 10.2685 21.7371 8.13724 18.6435 7.78393C15.9192 7.47621 13.0564 9.14017 11.879 11.7273C10.6784 14.36 11.3941 17.4485 13.5874 19.4202C14.2569 20.0242 14.9611 20.047 15.8038 19.9217C15.8038 19.2265 15.8384 18.5654 15.7922 17.9044C15.7691 17.6309 15.6421 17.3232 15.469 17.118C14.8687 16.457 13.9683 15.9327 13.6567 15.1691C13.3334 14.3828 13.622 13.3684 13.5528 12.4681C13.4489 10.9067 14.7302 9.57325 16.9235 10.1089C16.9235 10.6901 16.9235 11.2714 16.9235 11.864C16.935 13.528 16.7388 13.3342 18.4472 13.3342C19.1514 13.3342 19.186 13.3 19.1976 12.582C19.1976 11.7387 19.1976 10.8839 19.1976 9.99494C19.5785 9.99494 19.8555 9.99494 20.1441 9.99494C21.6679 10.0177 22.5798 10.9067 22.5914 12.4225C22.6029 13.2203 22.6144 14.0181 22.5798 14.8158C22.5683 15.0324 22.4759 15.3059 22.3259 15.4655C21.7833 16.0467 21.183 16.5938 20.629 17.175C20.502 17.3004 20.3519 17.4827 20.3519 17.6423C20.3173 18.3831 20.3288 19.1467 20.3288 19.9217ZM14.6494 25.4378C14.6148 25.3694 14.5801 25.301 14.5455 25.2326C14.28 25.0275 14.003 24.8224 13.7375 24.6172C14.5224 23.8422 15.2266 23.1128 15.9654 22.4176C16.1039 22.2808 16.3694 22.2238 16.5772 22.2238C18.1586 22.2125 19.7286 22.2125 21.31 22.2125C21.5178 22.2125 21.7718 22.2808 21.9334 22.1897C22.1758 22.0757 22.499 21.8705 22.5452 21.654C22.6144 21.2893 22.2912 21.0956 21.9218 21.0842C21.8295 21.0842 21.7256 21.0842 21.6332 21.0842C19.5554 21.0842 17.4776 21.0728 15.3997 21.0956C15.1342 21.0956 14.811 21.2323 14.6032 21.4147C14.0261 21.9161 13.5181 22.4974 12.9525 22.9988C12.7563 23.1698 12.4561 23.2952 12.2022 23.3066C10.6092 23.3294 9.00462 23.318 7.41161 23.318C7.21537 23.318 7.00759 23.3407 6.82289 23.3521C6.82289 25.4036 6.82289 27.3867 6.82289 29.4039C7.87335 29.4039 8.87764 29.4837 9.87038 29.3811C11.0709 29.2558 11.9944 29.5977 12.7101 30.555C12.8717 30.7716 13.1372 31.0451 13.3681 31.0679C14.1646 31.1363 14.9726 31.0907 15.7691 31.0907C15.7691 28.7657 15.7691 26.5205 15.7691 24.0929C15.3305 24.6286 14.9842 25.0389 14.6494 25.4378ZM13.6451 20.9132C9.46636 17.8588 9.29321 12.6618 11.9713 9.49347C14.7187 6.24534 19.5323 5.72108 22.9492 8.34238C24.6577 9.65303 25.6619 11.3968 25.9044 13.5052C26.216 16.2519 25.2464 18.5654 23.1801 20.3775C23.3879 20.7195 23.5495 21.0044 23.7226 21.2893C26.5162 19.4202 27.7859 15.2033 26.6547 11.7159C25.5003 8.16003 21.9449 5.31079 17.4776 5.57292C13.7606 5.78947 10.3552 8.34238 9.32784 12.2173C8.33509 15.9555 10.0435 19.7849 12.7794 21.5742C12.8602 21.5058 12.941 21.4375 13.0333 21.3691C13.2296 21.2323 13.4142 21.0956 13.6451 20.9132ZM15.8038 11.1802C15.0534 11.2486 14.7302 11.5563 14.6956 12.2401C14.6725 12.9467 14.684 13.642 14.684 14.3486C14.684 14.8158 16.3232 16.5938 16.7965 16.6507C16.8196 16.6507 16.8311 16.6507 16.8542 16.6507C17.6623 16.6507 18.4703 16.6621 19.2784 16.6507C19.6939 16.6394 21.4255 14.9412 21.437 14.5309C21.4485 13.7331 21.4601 12.9353 21.437 12.1376C21.4139 11.5449 20.9984 11.1916 20.3404 11.2144C20.3404 11.8526 20.375 12.4909 20.3288 13.1291C20.3057 13.3798 20.1672 13.6534 20.0172 13.8699C19.6939 14.3486 19.2322 14.5195 18.6319 14.4625C18.1356 14.4169 17.6392 14.4511 17.1313 14.4511C16.5195 14.4397 15.8153 13.7445 15.8153 13.1405C15.8038 12.5023 15.8038 11.864 15.8038 11.1802ZM16.9466 23.3635C16.935 23.5231 16.9235 23.6143 16.9235 23.7055C16.9235 26.6687 16.9235 29.6319 16.9235 32.5951C16.9235 32.6521 16.9235 32.709 16.9235 32.766C16.9697 33.3359 17.3506 33.7689 17.8585 33.8487C18.378 33.9285 18.8859 33.6664 19.0937 33.1991C19.3245 32.6748 19.186 32.219 18.7358 31.8429C18.5396 31.6719 18.3549 31.4554 18.2279 31.2274C17.8816 30.5778 18.4011 29.9624 18.3549 29.4039C18.3087 28.7999 17.9162 28.2186 18.251 27.569C18.2625 27.5576 18.2741 27.5348 18.2741 27.5234C18.2741 27.3183 18.3433 27.0903 18.2625 26.9194C17.997 26.3609 17.9855 25.8253 18.2741 25.2782C18.3433 25.1529 18.4011 24.9933 18.378 24.8679C18.251 24.3665 18.0894 23.8764 17.9393 23.3521C17.6854 23.3635 17.3391 23.3635 16.9466 23.3635ZM4.02935 22.258C4.02935 25.2326 4.02935 28.1617 4.02935 31.0793C4.58344 31.0793 5.09136 31.0793 5.59927 31.0793C5.59927 28.1161 5.59927 25.2098 5.59927 22.258C5.06827 22.258 4.5719 22.258 4.02935 22.258ZM22.0026 26.6687C22.6722 26.6687 23.3532 26.6687 24.0228 26.6687C24.4268 26.6687 24.7962 26.5889 24.8077 26.1216C24.8193 25.6543 24.473 25.5404 24.0574 25.5404C22.6952 25.5404 21.3216 25.5404 19.9594 25.5404C19.567 25.5404 19.2437 25.6543 19.2322 26.0874C19.2206 26.5661 19.5785 26.6687 19.9825 26.6687C20.652 26.6687 21.3331 26.6687 22.0026 26.6687ZM22.0604 29.9852C21.3908 29.9852 20.7098 29.9852 20.0402 29.9852C19.6247 29.9852 19.2206 30.0535 19.2322 30.5664C19.2322 31.0337 19.6131 31.1249 20.0172 31.1249C21.3677 31.1249 22.7068 31.1249 24.0574 31.1249C24.4614 31.1249 24.8193 31.0109 24.8077 30.5436C24.7962 30.0763 24.4268 29.9852 24.0228 29.9852C23.3648 29.9852 22.7183 29.9852 22.0604 29.9852ZM21.9796 24.4349C22.7068 24.4349 23.434 24.4349 24.1728 24.4349C24.5422 24.4349 24.8308 24.2753 24.8193 23.8764C24.8077 23.4775 24.5191 23.3407 24.1382 23.3407C22.7414 23.3407 21.3331 23.3407 19.9363 23.3407C19.5439 23.3407 19.2322 23.4547 19.2322 23.8992C19.2322 24.3095 19.5439 24.4349 19.9017 24.4349C20.5943 24.4463 21.2869 24.4349 21.9796 24.4349ZM21.9796 28.8797C22.6952 28.8797 23.3994 28.8797 24.1151 28.8797C24.5076 28.8797 24.8308 28.7543 24.8193 28.3212C24.8077 27.9223 24.5191 27.7856 24.1382 27.7856C22.7414 27.7856 21.3331 27.7856 19.9363 27.7856C19.5439 27.7856 19.2206 27.9109 19.2322 28.344C19.2437 28.7885 19.59 28.8797 19.971 28.8797C20.629 28.8797 21.31 28.8797 21.9796 28.8797ZM19.1629 17.8246C18.4126 17.8246 17.6969 17.8246 16.9697 17.8246C16.9697 18.554 16.9697 19.2379 16.9697 19.9559C17.72 19.9559 18.4241 19.9559 19.1629 19.9559C19.1629 19.2151 19.1629 18.5312 19.1629 17.8246Z" fill="black"/>
<path d="M1.66278 3.31664C0.739297 3.30524 -0.0225758 2.54165 0.000511274 1.62989C0.0235983 0.729534 0.808559 -0.0112672 1.73204 0.000129769C2.65552 0.0115267 3.4174 0.797915 3.39431 1.69827C3.37122 2.61003 2.60935 3.32804 1.66278 3.31664ZM1.69741 0.889091C1.44345 1.25379 1.16641 1.48173 1.1895 1.66408C1.21258 1.85783 1.52426 2.15415 1.70895 2.15415C1.89365 2.15415 2.19378 1.85783 2.21687 1.66408C2.22841 1.47033 1.95137 1.25379 1.69741 0.889091Z" fill="black"/>
<path d="M33.3178 31.6798C34.2528 31.6798 35.0147 32.432 35.0147 33.3324C35.0147 34.2327 34.2298 34.9963 33.3063 34.9963C32.3828 34.9963 31.6094 34.2327 31.6094 33.3324C31.6094 32.4206 32.3828 31.6684 33.3178 31.6798ZM33.3524 34.1074C33.5949 33.7199 33.8488 33.4919 33.8257 33.3096C33.7911 33.1158 33.4679 32.8423 33.2832 32.8423C33.0985 32.8537 32.8099 33.1614 32.7984 33.3552C32.7868 33.5489 33.0754 33.7541 33.3524 34.1074Z" fill="black"/>
<path d="M1.15625 8.84181C1.15625 8.47711 1.15625 8.15799 1.15625 7.80469C1.5141 7.80469 1.84886 7.80469 2.2298 7.80469C2.2298 8.1466 2.2298 8.47711 2.2298 8.84181C1.87195 8.84181 1.50256 8.84181 1.15625 8.84181Z" fill="black"/>
<path d="M32.7969 26.125C33.1663 26.125 33.4895 26.125 33.8473 26.125C33.8473 26.4783 33.8473 26.8088 33.8473 27.1849C33.5126 27.1849 33.1778 27.1849 32.7969 27.1849C32.7969 26.843 32.7969 26.4897 32.7969 26.125Z" fill="black"/>
<path d="M2.21826 6.07618C1.87195 6.07618 1.53719 6.07618 1.15625 6.07618C1.15625 5.73428 1.15625 5.40376 1.15625 5.03906C1.50256 5.03906 1.83732 5.03906 2.21826 5.03906C2.21826 5.39237 2.21826 5.71148 2.21826 6.07618Z" fill="black"/>
<path d="M33.8548 28.9219C33.8548 29.3208 33.8548 29.6171 33.8548 29.9476C33.4969 29.9476 33.1622 29.9476 32.7812 29.9476C32.7812 29.6057 32.7812 29.2752 32.7812 28.9219C33.1506 28.9219 33.4969 28.9219 33.8548 28.9219Z" fill="black"/>
<path d="M2.21452 11.6345C1.84513 11.6345 1.52191 11.6345 1.16406 11.6345C1.16406 11.2812 1.16406 10.962 1.16406 10.5859C1.51037 10.5859 1.84513 10.5859 2.21452 10.5859C2.21452 10.9392 2.21452 11.2812 2.21452 11.6345Z" fill="black"/>
<path d="M32.7734 23.375C33.1544 23.375 33.4776 23.375 33.847 23.375C33.847 23.7169 33.847 24.036 33.847 24.4007C33.4891 24.4007 33.1544 24.4007 32.7734 24.4007C32.7734 24.0588 32.7734 23.7511 32.7734 23.375Z" fill="black"/>
</g>
<defs>
<clipPath id="clip0_1137_11593">
<rect width="35" height="35" fill="white"/>
</clipPath>
</defs>
</svg>
