<svg width="31" height="31" viewBox="0 0 31 31" fill="none" xmlns="http://www.w3.org/2000/svg">
<g clip-path="url(#clip0_1137_11604)">
<path d="M24.5673 10.9406C25.4527 10.0448 26.318 9.13896 27.2135 8.26331C28.1392 7.35747 29.5579 7.39773 30.403 8.3237C31.208 9.19935 31.1778 10.5179 30.3024 11.4036C28.5115 13.2153 26.7104 15.0169 24.8893 16.8084C24.5673 17.1205 24.4264 17.4325 24.4264 17.8955C24.4465 21.4886 24.4365 25.0718 24.4365 28.6649C24.4365 30.1847 23.6315 31 22.1122 31C15.5017 31 8.90126 31 2.29075 31C0.781496 31 -0.0234375 30.1847 -0.0234375 28.6549C-0.0234375 19.8883 -0.0234375 11.1117 -0.0234375 2.34513C-0.00331416 0.805195 0.801619 0 2.35112 0C8.94151 0 15.5319 0 22.1223 0C23.6416 0 24.4465 0.805195 24.4465 2.325C24.4465 4.99221 24.4465 7.65942 24.4465 10.3266C24.4465 10.5078 24.4465 10.689 24.4465 10.8701C24.4868 10.9003 24.527 10.9205 24.5673 10.9406ZM7.02979 1.23799C6.83862 1.22792 6.67763 1.21786 6.51665 1.21786C5.1382 1.21786 3.76981 1.21786 2.39136 1.21786C1.46569 1.21786 1.21415 1.47955 1.21415 2.42565C1.21415 11.1519 1.21415 19.8682 1.21415 28.5945C1.21415 29.5406 1.46569 29.8023 2.40142 29.8023C8.96163 29.8023 15.5118 29.8023 22.072 29.8023C22.9876 29.8023 23.2492 29.5406 23.2492 28.6448C23.2492 25.4442 23.2492 22.2334 23.2492 19.0328C23.2492 18.8919 23.2391 18.7409 23.2291 18.5597C23.0077 18.6503 22.8266 18.751 22.6455 18.8013C22.1625 18.9221 22.0317 19.2039 22.0418 19.7071C22.072 22.3744 22.0619 25.0416 22.0519 27.7088C22.0519 28.4133 21.8607 28.5945 21.1564 28.5945C19.0736 28.5945 17.0009 28.5945 14.9181 28.5945C14.3446 28.5945 14.0629 28.3831 14.073 27.9705C14.083 27.5679 14.3346 27.3867 14.898 27.3867C16.689 27.3867 18.49 27.3867 20.281 27.3867C20.4621 27.3867 20.6332 27.3867 20.8243 27.3867C20.8243 24.7799 20.8243 22.2334 20.8243 19.6266C20.2508 19.8782 19.7377 20.15 19.1843 20.3312C18.9327 20.4117 18.5705 20.4117 18.3592 20.2909C18.0373 20.0997 18.1479 19.7474 18.2989 19.4354C18.8019 18.3182 19.2748 17.1909 19.798 16.0938C19.9892 15.6912 20.3112 15.3591 20.5326 14.9766C20.6634 14.7451 20.8243 14.4834 20.8344 14.2419C20.8545 10.8903 20.8445 7.52857 20.8445 4.17695C20.8445 4.01591 20.8344 3.85487 20.8243 3.68377C19.6773 3.68377 18.5605 3.68377 17.4537 3.68377C17.182 4.95195 16.5783 5.57597 15.5621 5.57597C13.3485 5.58604 11.135 5.58604 8.92138 5.57597C8.0762 5.57597 7.38195 5.01234 7.16059 4.18701C7.11028 4.01591 7.0801 3.84481 7.03985 3.69383C5.88276 3.69383 4.77598 3.69383 3.67926 3.69383C3.67926 11.6149 3.67926 19.4857 3.67926 27.3968C4.96715 27.3968 6.22486 27.3968 7.47251 27.3968C8.24725 27.3968 9.01194 27.3968 9.78669 27.3968C10.159 27.3968 10.4004 27.5981 10.4105 27.9705C10.4206 28.3529 10.1892 28.5442 9.82693 28.5945C9.69613 28.6146 9.55527 28.6045 9.42447 28.6045C7.46244 28.6045 5.50042 28.6045 3.53839 28.6045C2.55235 28.6045 2.43161 28.4838 2.43161 27.5175C2.43161 19.989 2.43161 12.4604 2.43161 4.92175C2.43161 4.39838 2.43161 3.88507 2.43161 3.36169C2.43161 2.60682 2.61272 2.42565 3.38747 2.42565C4.04148 2.42565 4.69549 2.42565 5.34949 2.42565C5.91295 2.42565 6.4764 2.42565 7.04991 2.42565C7.02979 1.98279 7.02979 1.63052 7.02979 1.23799ZM8.27744 1.23799C8.27744 2.07338 8.25731 2.86851 8.2875 3.65357C8.29756 4.0763 8.52898 4.34805 8.98176 4.34805C11.145 4.34805 13.3083 4.34805 15.4615 4.34805C15.8639 4.34805 16.1356 4.12662 16.1457 3.76429C16.1859 2.9289 16.1557 2.10357 16.1557 1.24805C13.5196 1.23799 10.9337 1.23799 8.27744 1.23799ZM17.4134 2.41558C18.6812 2.41558 19.8785 2.41558 21.0859 2.41558C21.8607 2.41558 22.0317 2.58669 22.0317 3.36169C22.0317 6.51201 22.0317 9.66234 22.0317 12.8127C22.0317 12.9838 22.0317 13.1448 22.0317 13.3159C22.072 13.326 22.1223 13.336 22.1625 13.3562C22.4644 13.0442 22.7763 12.7321 23.048 12.4C23.1486 12.2692 23.219 12.0779 23.219 11.9169C23.2291 8.68604 23.2291 5.44513 23.219 2.21429C23.219 1.53994 22.9071 1.22792 22.233 1.21786C20.8445 1.20779 19.4459 1.21786 18.0574 1.21786C17.8461 1.21786 17.6348 1.21786 17.3933 1.21786C17.4134 1.63052 17.4134 1.99286 17.4134 2.41558ZM22.7964 17.0903C24.5975 15.2886 26.3884 13.487 28.119 11.7558C27.7266 11.3231 27.2839 10.85 26.8915 10.4273C25.0905 12.2289 23.2995 14.0205 21.4884 15.8221C21.911 16.2247 22.3537 16.6575 22.7964 17.0903ZM27.8172 9.40065C28.28 9.88377 28.7227 10.3468 29.1655 10.8097C29.8597 10.2159 29.9704 9.60195 29.4774 9.10877C29.0246 8.65584 28.3807 8.77662 27.8172 9.40065ZM19.949 18.6604C20.6332 18.3484 21.1664 18.1068 21.7299 17.8653C21.3878 17.513 21.096 17.201 20.764 16.8487C20.4923 17.4425 20.2508 17.986 19.949 18.6604Z" fill="black"/>
<path d="M10.4146 9.81404C10.4146 10.4179 10.4246 11.0218 10.4146 11.6257C10.4045 12.139 10.1831 12.3705 9.68006 12.3705C8.47266 12.3806 7.27532 12.3806 6.06792 12.3705C5.56484 12.3605 5.34348 12.129 5.34348 11.6157C5.33342 10.4079 5.33342 9.21015 5.34348 8.00235C5.34348 7.48904 5.56484 7.26761 6.07799 7.25755C7.28539 7.24748 8.48272 7.24748 9.69012 7.25755C10.1932 7.25755 10.4045 7.49911 10.4146 8.01242C10.4146 8.61631 10.4146 9.21015 10.4146 9.81404ZM6.57101 11.1325C7.44637 11.1325 8.29155 11.1325 9.15686 11.1325C9.15686 10.2368 9.15686 9.38125 9.15686 8.49554C8.28149 8.49554 7.43631 8.49554 6.57101 8.49554C6.57101 9.38125 6.57101 10.2368 6.57101 11.1325Z" fill="black"/>
<path d="M10.4068 16.5083C10.4068 17.1122 10.4168 17.7161 10.4068 18.32C10.3967 18.8031 10.1753 19.0245 9.69237 19.0245C8.47491 19.0346 7.24739 19.0346 6.02993 19.0245C5.54697 19.0245 5.33567 18.793 5.33567 18.2999C5.32561 17.082 5.32561 15.8541 5.33567 14.6362C5.33567 14.1632 5.56709 13.9317 6.05005 13.9216C7.26751 13.9115 8.49503 13.9115 9.7125 13.9216C10.1753 13.9216 10.4168 14.1833 10.4068 14.6564C10.4068 15.2703 10.4068 15.8843 10.4068 16.5083ZM9.14904 17.7966C9.14904 16.8908 9.14904 16.0252 9.14904 15.1697C8.26362 15.1697 7.41844 15.1697 6.58332 15.1697C6.58332 16.0654 6.58332 16.931 6.58332 17.7966C7.44862 17.7966 8.28374 17.7966 9.14904 17.7966Z" fill="black"/>
<path d="M10.4146 23.1522C10.4146 23.7561 10.4246 24.36 10.4146 24.9639C10.4045 25.4571 10.2033 25.6685 9.71025 25.6685C8.48272 25.6785 7.26526 25.6785 6.03774 25.6685C5.54472 25.6685 5.34348 25.4571 5.34348 24.9438C5.33342 23.736 5.33342 22.5282 5.34348 21.3204C5.34348 20.797 5.54472 20.5957 6.07799 20.5857C7.28539 20.5756 8.49279 20.5756 9.70019 20.5857C10.2335 20.5857 10.4146 20.787 10.4246 21.3305C10.4146 21.9444 10.4146 22.5483 10.4146 23.1522ZM9.15686 24.4506C9.15686 23.5649 9.15686 22.7194 9.15686 21.8438C8.28149 21.8438 7.43631 21.8438 6.57101 21.8438C6.57101 22.7194 6.57101 23.575 6.57101 24.4506C7.44637 24.4506 8.27143 24.4506 9.15686 24.4506Z" fill="black"/>
<path d="M14.4782 23.1354C14.0959 22.7831 13.8041 22.5215 13.5123 22.2396C13.2406 21.9679 13.1702 21.6458 13.462 21.3539C13.7437 21.062 14.0757 21.0922 14.3474 21.3741C14.6392 21.6659 14.9109 21.988 15.263 22.3805C15.6051 21.9981 15.8567 21.6861 16.1384 21.3942C16.41 21.1124 16.732 21.052 17.0238 21.3338C17.3357 21.6357 17.2754 21.9679 16.9836 22.2598C16.7119 22.5315 16.4201 22.7831 16.0881 23.075C16.4 23.3971 16.6515 23.6487 16.893 23.9104C17.2653 24.2929 17.3156 24.6351 17.054 24.9169C16.7823 25.1887 16.4201 25.1484 16.0478 24.7861C15.8063 24.5546 15.5649 24.3231 15.3234 24.0916C15.3133 24.0815 15.2932 24.0815 15.1725 23.9708C14.9209 24.2526 14.6895 24.5546 14.4279 24.8263C14.0959 25.1685 13.7236 25.1987 13.462 24.937C13.1903 24.6653 13.2205 24.3331 13.5727 23.9708C13.8443 23.689 14.126 23.4575 14.4782 23.1354Z" fill="black"/>
<path d="M14.5202 10.3906C15.3352 9.57534 16.0194 8.8708 16.7237 8.16625C17.106 7.78378 17.4381 7.73346 17.7198 8.01528C18.0015 8.29709 17.9613 8.6393 17.589 9.02177C16.774 9.84709 15.959 10.6624 15.1339 11.4776C14.7013 11.9104 14.4498 11.9104 14.0272 11.4977C13.6348 11.1153 13.2424 10.7227 12.8499 10.3302C12.5783 10.0585 12.5079 9.73638 12.7896 9.4445C13.0914 9.13248 13.4335 9.19287 13.7153 9.48476C13.9769 9.74644 14.2183 10.0484 14.5202 10.3906Z" fill="black"/>
<path d="M14.5511 17.0575C15.346 16.2322 16.0604 15.5075 16.7748 14.7728C17.0565 14.4809 17.3684 14.3601 17.7004 14.652C18.0023 14.9238 17.9922 15.2559 17.7105 15.5377C16.815 16.4436 15.9195 17.3394 15.014 18.2351C14.7322 18.517 14.4103 18.4968 14.1185 18.2251C13.6858 17.8023 13.2532 17.3796 12.8406 16.9468C12.569 16.665 12.5287 16.3429 12.8105 16.051C13.1022 15.7692 13.4242 15.8195 13.6959 16.0913C13.9675 16.3832 14.209 16.6751 14.5511 17.0575Z" fill="black"/>
<path d="M12.2919 27.375C12.6541 27.4656 12.8554 27.687 12.8051 28.0594C12.7548 28.4016 12.5133 28.6029 12.1712 28.5727C11.809 28.5425 11.5977 28.301 11.6279 27.9185C11.6782 27.536 11.9297 27.375 12.2919 27.375Z" fill="black"/>
</g>
<defs>
<clipPath id="clip0_1137_11604">
<rect width="31" height="31" fill="white"/>
</clipPath>
</defs>
</svg>
