<svg width="31" height="31" viewBox="0 0 31 31" fill="none" xmlns="http://www.w3.org/2000/svg">
<rect width="31" height="31" rx="15.5" fill="#D19928" fill-opacity="0.2"/>
<path d="M5.84927 21.0692C5.85731 21.0202 5.8661 20.9871 5.8676 20.9544C5.94294 19.2753 6.02405 17.5963 6.09135 15.9172C6.15413 14.3562 6.20184 12.7947 6.25708 11.2335C6.24851 11.1792 6.25646 11.1243 6.28032 11.0728C6.30417 11.0213 6.34329 10.9747 6.39462 10.9366C6.44596 10.8985 6.50813 10.8699 6.57631 10.8531C6.64448 10.8364 6.71682 10.8318 6.78769 10.8398C7.27971 10.8355 7.77173 10.8355 8.26375 10.8398C8.62008 10.8434 8.76748 10.9655 8.77878 11.2405C8.90953 14.4177 9.04086 17.5955 9.17278 20.7739C9.1768 20.8696 9.1866 20.9653 9.19413 21.0679H10.0329V20.8129C10.0329 19.0425 10.0329 17.2721 10.0329 15.5015C10.0329 15.1429 10.1004 15.0728 10.5444 14.961C11.4255 14.7392 12.3047 14.513 13.1886 14.2975C13.2588 14.2888 13.3216 14.2593 13.3633 14.2155C13.405 14.1716 13.4222 14.1169 13.4111 14.0634C13.4028 13.3484 13.4058 12.6331 13.4078 11.9181C13.4078 11.5695 13.557 11.4599 14.008 11.5018C15.8243 11.6706 17.6399 11.8463 19.4555 12.0186C19.7897 12.0503 20.1249 12.0775 20.4577 12.116C20.8622 12.1625 20.9614 12.2563 20.9619 12.574C20.9631 13.1919 20.9631 13.8098 20.9619 14.4276V14.6805H21.3062C22.3722 14.6805 23.4382 14.6805 24.5041 14.6805C25.0403 14.6805 25.157 14.7708 25.157 15.1871C25.157 17.0617 25.157 18.9363 25.157 20.8108V21.0502C25.1909 21.0625 25.2268 21.0711 25.2638 21.0759C25.9533 21.0376 26.0171 21.2575 25.997 21.6692C25.9822 21.9674 25.9958 22.2662 25.9937 22.5647C25.9915 22.8915 25.8489 23.0005 25.4174 23.0007C23.7137 23.0016 22.0099 23.0016 20.306 23.0007H5.68178C5.11024 23.0007 5.00025 22.916 5 22.4763C5 22.1777 5 21.8792 5 21.5806C5 21.1727 5.11426 21.086 5.65642 21.0784C5.71066 21.0778 5.76389 21.0732 5.84927 21.0692ZM15.9378 21.0629H24.2887V15.3381H15.9378V21.0629ZM15.0532 21.0667V14.4952C13.7325 14.8301 12.4416 15.1622 11.144 15.4822C11.0569 15.4948 10.9798 15.5331 10.9296 15.5888C10.8794 15.6445 10.8601 15.7131 10.8758 15.7796C10.8836 17.4664 10.8804 19.153 10.8814 20.8397C10.8814 20.9132 10.8917 20.9867 10.8977 21.0665L15.0532 21.0667ZM25.1249 21.7285H5.86434V22.3601H24.4602C25.2396 22.3601 25.2396 22.3601 25.1249 21.7285ZM8.3441 21.0707L7.95538 12.7834H7.08878C6.95845 15.5563 6.82887 18.3104 6.69905 21.0707H8.3441ZM14.2591 12.1709V14.0154C14.6027 13.93 14.9208 13.8519 15.2385 13.7719C15.6855 13.6592 15.9152 13.7851 15.92 14.1493C15.9223 14.3199 15.92 14.4906 15.92 14.6606H16.7527C16.7527 14.4621 16.7484 14.2824 16.7527 14.1028C16.7464 14.0561 16.7528 14.0088 16.7714 13.964C16.79 13.9192 16.8204 13.8778 16.8608 13.8423C16.9012 13.8067 16.9507 13.7779 17.0063 13.7575C17.0618 13.7371 17.1223 13.7256 17.1839 13.7237C17.4237 13.7279 17.5791 13.8668 17.5874 14.0961C17.5942 14.2818 17.5887 14.4676 17.5887 14.6607H18.4096C18.4196 14.6422 18.4272 14.623 18.4322 14.6033C18.4347 14.4437 18.4339 14.2841 18.4377 14.1248C18.4437 13.8734 18.6094 13.7187 18.8646 13.7239C19.1114 13.7288 19.2679 13.877 19.2726 14.1176C19.2762 14.2963 19.2726 14.4751 19.2726 14.6615H20.1013V12.7267L14.2591 12.1709ZM7.91947 12.1198V11.505H7.11816V12.1198H7.91947Z" fill="#D19928"/>
<path d="M22.5978 9.60187C22.1751 9.48976 21.7648 9.35216 21.3708 9.19037C20.976 9.00542 20.6528 8.74384 20.4342 8.43239C20.2156 8.12095 20.1095 7.77083 20.1268 7.41787C20.1268 7.10418 20.2916 6.98934 20.7009 7.00925C21.135 7.02334 21.5598 7.10941 21.9458 7.26146C22.3318 7.41352 22.6696 7.6279 22.9358 7.88966C22.975 7.92794 23.0159 7.96335 23.0199 7.96622C23.3745 7.73329 23.6999 7.48333 24.0721 7.28428C24.4969 7.07539 24.9992 6.9772 25.5034 7.00446C25.5724 6.99721 25.6426 7.0026 25.7083 7.02019C25.774 7.03778 25.8332 7.06706 25.881 7.1056C25.9289 7.14414 25.9639 7.19083 25.9834 7.24178C26.0028 7.29273 26.0059 7.34647 25.9926 7.39854C25.9173 8.3802 25.2109 9.3165 23.7097 9.51613C23.5056 9.54331 23.4641 9.61431 23.4255 9.75518C23.3666 9.99906 23.2664 10.2361 23.1274 10.4603C23.0411 10.5886 22.9048 10.6933 22.7372 10.7602C22.5696 10.8271 22.379 10.8528 22.1915 10.8339C22.0985 10.8343 22.0086 10.8086 21.9391 10.7615C21.8696 10.7145 21.8253 10.6495 21.8148 10.5791C21.793 10.5067 21.8072 10.4307 21.8546 10.3658C21.902 10.3009 21.9792 10.2516 22.0715 10.2275C22.5081 10.0817 22.6116 9.95576 22.5978 9.60187ZM23.5603 8.87036C24.3511 8.78271 25.0562 8.22996 25.0565 7.71377C24.3845 7.722 23.7052 8.24049 23.5603 8.87036ZM22.5654 8.8562C22.5491 8.3381 21.684 7.67721 21.0316 7.73693C21.0982 8.0234 21.2827 8.28628 21.5584 8.48748C21.8341 8.68868 22.1867 8.81775 22.5652 8.85601L22.5654 8.8562Z" fill="#D19928"/>
<path d="M13.8851 8.53455C13.8357 8.86073 13.7471 9.18278 13.6207 9.49668C13.5137 9.69462 13.3349 9.8652 13.1052 9.98845C12.8755 10.1117 12.6045 10.1825 12.324 10.1926C11.6005 10.2523 10.9177 10.2001 10.4155 9.72483C10.1827 9.49136 10.0493 9.20916 10.0333 8.91619C10.0334 8.83071 10.0104 8.74614 9.96577 8.66772C9.92115 8.5893 9.85584 8.51872 9.7739 8.46036C9.69196 8.402 9.59514 8.35711 9.48947 8.32849C9.3838 8.29986 9.27153 8.28811 9.15965 8.29396C9.05033 8.29218 8.94101 8.29218 8.8317 8.29396C8.71266 8.28757 8.59322 8.30089 8.48157 8.333C8.36993 8.3651 8.26872 8.41524 8.18489 8.47997C8.10106 8.5447 8.0366 8.62248 7.99593 8.70799C7.95526 8.79349 7.93934 8.88469 7.94928 8.97533C7.9445 9.23218 7.94928 9.48903 7.94727 9.74588C7.94941 9.80822 7.94377 9.87058 7.93044 9.93211C7.92081 10.0097 7.8715 10.0813 7.79318 10.1315C7.71485 10.1816 7.61379 10.2062 7.51183 10.2001C7.46319 10.2034 7.41417 10.199 7.36785 10.1872C7.32153 10.1754 7.27889 10.1564 7.2426 10.1315C7.20631 10.1066 7.17715 10.0763 7.15694 10.0424C7.13672 10.0085 7.12589 9.97181 7.12512 9.93459C7.10207 9.47235 7.12928 9.00944 7.20648 8.55062C7.28304 8.30862 7.46003 8.0919 7.71112 7.9327C7.96222 7.77349 8.27402 7.68029 8.60017 7.66696C9.18979 7.62696 9.76936 7.62562 10.2593 7.93893C10.4316 8.04212 10.5739 8.1714 10.6773 8.31861C10.7807 8.46583 10.843 8.62779 10.8602 8.79427C10.8853 9.02394 10.9167 9.26031 11.1844 9.4119C11.3733 9.5107 11.5925 9.57058 11.8208 9.58571C12.049 9.60083 12.2785 9.57069 12.4869 9.49822C12.8915 9.38721 12.9932 9.10911 12.9806 8.79963C12.9701 8.54297 12.9748 8.28593 12.9806 8.02907C12.9854 7.79175 13.1494 7.65509 13.4113 7.65892C13.6694 7.66275 13.8038 7.78454 13.8143 8.02429C13.8143 8.03826 13.8143 8.05204 13.8143 8.06601C13.8143 8.21913 13.8143 8.37186 13.8143 8.52421L13.8851 8.53455Z" fill="#D19928"/>
<path d="M18.4449 8.92602C18.1807 8.92602 17.9163 8.93023 17.6521 8.92602C17.593 8.93095 17.5332 8.92622 17.4766 8.91215C17.42 8.89809 17.3681 8.87501 17.3241 8.84445C17.2802 8.81389 17.2453 8.77654 17.2217 8.73491C17.1982 8.69327 17.1865 8.64828 17.1876 8.60295C17.1866 8.55921 17.198 8.51582 17.2208 8.47569C17.2437 8.43557 17.2775 8.39962 17.3201 8.37027C17.3627 8.34091 17.413 8.31882 17.4676 8.30548C17.5223 8.29213 17.58 8.28784 17.6371 8.29289C18.1746 8.28779 18.7122 8.28779 19.2497 8.29289C19.3069 8.28927 19.3645 8.29488 19.4187 8.30937C19.4728 8.32385 19.5224 8.34689 19.5641 8.37696C19.6057 8.40704 19.6386 8.44348 19.6606 8.4839C19.6825 8.52433 19.693 8.56783 19.6914 8.61156C19.6896 8.65511 19.6763 8.69793 19.6523 8.73747C19.6283 8.77701 19.5941 8.81245 19.5518 8.84168C19.5094 8.87091 19.4597 8.89332 19.4057 8.90759C19.3517 8.92185 19.2944 8.92766 19.2374 8.92468C18.9735 8.93062 18.7101 8.92583 18.4449 8.92602Z" fill="#D19928"/>
<path d="M18.4441 9.87934C18.1802 9.87934 17.9168 9.88374 17.6521 9.87934C17.3556 9.8734 17.184 9.75053 17.1876 9.55799C17.1869 9.51421 17.1984 9.47081 17.2213 9.43067C17.2442 9.39053 17.2781 9.35455 17.3206 9.32512C17.3632 9.29569 17.4134 9.27347 17.468 9.25993C17.5227 9.2464 17.5804 9.24185 17.6375 9.24659C18.1746 9.24072 18.7117 9.24072 19.2487 9.24659C19.306 9.24325 19.3636 9.24912 19.4177 9.26381C19.4718 9.2785 19.5213 9.30168 19.5629 9.33186C19.6046 9.36204 19.6374 9.39855 19.6594 9.43902C19.6814 9.47948 19.6919 9.52301 19.6904 9.56679C19.6892 9.61043 19.6763 9.65342 19.6524 9.6931C19.6286 9.73278 19.5943 9.7683 19.5517 9.79747C19.509 9.82664 19.459 9.84884 19.4047 9.86269C19.3504 9.87654 19.293 9.88175 19.2359 9.878C18.9725 9.88412 18.7083 9.87934 18.4441 9.87934Z" fill="#D19928"/>
<path d="M23.0652 18.0735H23.8107L22.6245 18.9656L21.4568 18.0768H22.1712C22.1679 17.8892 22.1154 17.7041 22.0167 17.5323C21.9179 17.3605 21.775 17.2055 21.5964 17.0765C21.2148 16.7816 20.697 16.6121 20.1536 16.6044C19.6103 16.5967 19.0845 16.7513 18.6887 17.0352C18.6556 17.0589 18.6229 17.083 18.5883 17.106C18.3623 17.2591 18.132 17.2731 17.9552 17.1443C17.9132 17.1099 17.8809 17.0693 17.8607 17.0249C17.8404 16.9806 17.8324 16.9335 17.8374 16.8866C17.8423 16.8398 17.86 16.7943 17.8893 16.753C17.9187 16.7116 17.959 16.6754 18.0077 16.6467C18.8542 16.0166 19.8567 15.7951 20.9907 16.0679C21.498 16.179 21.9541 16.3964 22.3074 16.6952C22.6606 16.9941 22.8967 17.3626 22.9888 17.7587C23.015 17.8532 23.0348 17.9493 23.0652 18.0735Z" fill="#D19928"/>
<path d="M17.1719 18.3351H16.4688L17.6181 17.4531L18.7732 18.3287H18.045C18.0647 18.5714 18.1591 18.8071 18.3205 19.0168C18.4819 19.2264 18.7058 19.4042 18.9741 19.5357C19.3673 19.7364 19.839 19.8282 20.3104 19.7955C20.7817 19.7628 21.2239 19.6077 21.5631 19.3562C21.6031 19.3276 21.6405 19.2972 21.6817 19.2698C21.761 19.2067 21.8698 19.1698 21.9845 19.1674C22.0991 19.1649 22.2105 19.197 22.2944 19.2566C22.3353 19.2872 22.3675 19.324 22.3889 19.3645C22.4103 19.4051 22.4204 19.4485 22.4187 19.4922C22.417 19.5359 22.4034 19.5789 22.3789 19.6183C22.3543 19.6578 22.3193 19.693 22.276 19.7217C22.003 19.9457 21.6727 20.1247 21.3055 20.2477C20.9383 20.3708 20.5419 20.4352 20.1408 20.4372C19.7397 20.4391 19.3423 20.3785 18.9731 20.2591C18.6038 20.1396 18.2706 19.9639 17.9938 19.7426C17.5259 19.3537 17.3708 19.0926 17.1719 18.3351Z" fill="#D19928"/>
<path d="M13.4089 16.9156C13.4089 16.7074 13.4016 16.4989 13.4114 16.2909C13.4076 16.2066 13.4477 16.1246 13.523 16.0628C13.5982 16.0009 13.7026 15.9643 13.8131 15.9609C13.8703 15.9615 13.9268 15.9708 13.9793 15.9882C14.0317 16.0055 14.0791 16.0307 14.1187 16.0622C14.1583 16.0936 14.1893 16.1308 14.2099 16.1715C14.2304 16.2122 14.2402 16.2556 14.2385 16.2991C14.2471 16.7156 14.2478 17.1321 14.2385 17.5485C14.2403 17.5922 14.2301 17.6356 14.2087 17.6761C14.1874 17.7166 14.1552 17.7533 14.1143 17.7839C14.0734 17.8145 14.0246 17.8383 13.9711 17.8537C13.9175 17.8692 13.8603 17.8761 13.8031 17.8739C13.7482 17.8727 13.6942 17.8629 13.6443 17.8452C13.5945 17.8275 13.55 17.8023 13.5134 17.771C13.4768 17.7398 13.449 17.7031 13.4315 17.6634C13.4141 17.6237 13.4075 17.5817 13.4121 17.5399C13.4018 17.3323 13.4086 17.1238 13.4089 16.9156Z" fill="#D19928"/>
<path d="M12.5495 16.9328C12.5495 17.134 12.5576 17.3347 12.5473 17.5363C12.5514 17.5799 12.5435 17.6237 12.5244 17.6649C12.5052 17.7061 12.475 17.7439 12.4358 17.7758C12.3965 17.8077 12.349 17.8331 12.2963 17.8504C12.2436 17.8676 12.1867 17.8764 12.1293 17.8761C12.0719 17.8759 12.0153 17.8665 11.9628 17.8488C11.9104 17.831 11.8633 17.8051 11.8246 17.7729C11.7859 17.7406 11.7564 17.7025 11.7379 17.6611C11.7194 17.6197 11.7123 17.5758 11.7171 17.5323C11.7089 17.1231 11.7089 16.7138 11.7171 16.3045C11.7124 16.2605 11.7197 16.2164 11.7386 16.1747C11.7574 16.1331 11.7875 16.0949 11.8268 16.0626C11.8661 16.0303 11.9138 16.0046 11.9668 15.9871C12.0199 15.9696 12.0771 15.9607 12.1349 15.9609C12.1927 15.9612 12.2498 15.9707 12.3026 15.9887C12.3554 16.0067 12.4026 16.0329 12.4414 16.0656C12.4801 16.0982 12.5095 16.1367 12.5277 16.1785C12.5459 16.2204 12.5525 16.2646 12.547 16.3085C12.5578 16.5163 12.5495 16.7248 12.5495 16.9328Z" fill="#D19928"/>
<path d="M11.7212 19.4772C11.7212 19.2831 11.7167 19.0889 11.7212 18.895C11.728 18.6628 11.8762 18.5348 12.1298 18.5313C12.3877 18.5277 12.5494 18.6515 12.5542 18.881C12.5624 19.2829 12.5624 19.6849 12.5542 20.0868C12.5599 20.1303 12.5538 20.1742 12.5361 20.2157C12.5184 20.2573 12.4895 20.2956 12.4513 20.3281C12.4132 20.3607 12.3665 20.3869 12.3144 20.4051C12.2622 20.4232 12.2057 20.4328 12.1484 20.4334C12.0889 20.4342 12.0298 20.4254 11.975 20.4076C11.9203 20.3897 11.8711 20.3632 11.8308 20.3299C11.7904 20.2965 11.7599 20.257 11.741 20.2139C11.7222 20.1708 11.7155 20.1252 11.7215 20.0801C11.7155 19.8793 11.7212 19.678 11.7212 19.4772Z" fill="#D19928"/>
<path d="M14.2422 19.4869C14.2422 19.6881 14.2487 19.8889 14.2407 20.0904C14.2441 20.1338 14.2361 20.1772 14.2171 20.2181C14.1981 20.2591 14.1685 20.2967 14.1301 20.3288C14.0917 20.361 14.0453 20.3869 13.9936 20.4051C13.9418 20.4233 13.8858 20.4334 13.8289 20.4349C13.7716 20.4365 13.7146 20.4288 13.6615 20.4123C13.6085 20.3958 13.5607 20.3709 13.5212 20.3392C13.4818 20.3075 13.4517 20.2698 13.4329 20.2285C13.4141 20.1873 13.4071 20.1434 13.4123 20.1C13.4042 19.6839 13.4042 19.2678 13.4123 18.8517C13.4069 18.8098 13.4134 18.7676 13.4314 18.7278C13.4495 18.688 13.4786 18.6517 13.5167 18.6213C13.5549 18.5909 13.6012 18.5672 13.6525 18.5517C13.7038 18.5362 13.759 18.5294 13.8141 18.5317C13.8712 18.5298 13.9283 18.5372 13.9815 18.5533C14.0347 18.5693 14.0829 18.5937 14.1229 18.6249C14.163 18.6561 14.194 18.6933 14.2139 18.7342C14.2339 18.7751 14.2423 18.8187 14.2387 18.8622C14.2495 19.0701 14.242 19.2783 14.2422 19.4869Z" fill="#D19928"/>
</svg>
