<svg width="31" height="31" viewBox="0 0 31 31" fill="none" xmlns="http://www.w3.org/2000/svg">
<rect width="31" height="31" rx="15.5" fill="#E07D91" fill-opacity="0.2"/>
<path d="M20.152 21.8623C20.152 21.3914 20.1487 20.9691 20.152 20.547C20.142 20.3997 20.1637 20.2521 20.2158 20.1138C20.2678 19.9755 20.349 19.8498 20.4539 19.745C20.5588 19.6403 20.685 19.5588 20.8241 19.5061C20.9633 19.4533 21.1122 19.4305 21.2609 19.4392C22.3285 19.4319 23.3961 19.4319 24.4636 19.4392C24.6124 19.4307 24.7613 19.4538 24.9004 19.5069C25.0395 19.5601 25.1655 19.642 25.27 19.7473C25.3745 19.8526 25.4551 19.9788 25.5063 20.1175C25.5576 20.2561 25.5784 20.404 25.5673 20.5513C25.5713 21.3783 25.5713 22.2053 25.5673 23.0323C25.5761 23.1773 25.5538 23.3225 25.5018 23.4584C25.4499 23.5942 25.3695 23.7176 25.266 23.8205C25.1625 23.9234 25.0381 24.0034 24.9011 24.0552C24.7641 24.1071 24.6176 24.1296 24.4712 24.1213C23.4037 24.1295 22.3361 24.1295 21.2685 24.1213C20.5746 24.1168 20.1574 23.6869 20.1515 22.9931C20.1504 22.8604 20.1515 22.7274 20.1515 22.5572H18.7685C18.4773 22.5572 18.1861 22.5618 17.895 22.5555C17.7512 22.5583 17.6084 22.5316 17.4755 22.477C17.3426 22.4225 17.2225 22.3414 17.1227 22.2387C17.023 22.1361 16.9457 22.0141 16.8958 21.8805C16.8459 21.7468 16.8244 21.6044 16.8326 21.4622C16.8287 19.866 16.8313 18.2697 16.8313 16.6734V16.3436H13.9001C13.8948 16.455 13.8853 16.5664 13.8853 16.6779C13.8842 17.7837 13.8853 18.8895 13.884 19.9953C13.8822 20.8211 13.4622 21.2365 12.6294 21.2371C10.834 21.2384 9.03868 21.2384 7.24334 21.2371C6.42936 21.2371 6.00022 20.8127 6 20.0132C6 16.9553 6 13.8975 6 10.8396C6 10.0249 6.4324 9.59782 7.25746 9.59675C8.24735 9.59567 9.23747 9.60428 10.2274 9.59352C10.4848 9.58701 10.7409 9.63235 10.9801 9.72681C11.2193 9.82126 11.4367 9.96284 11.619 10.143C12.1594 10.6542 12.7042 11.1607 13.2535 11.6625C13.4585 11.8404 13.6215 12.0608 13.7308 12.3081C13.8401 12.5554 13.8932 12.8235 13.8862 13.0934C13.8816 13.8249 13.8862 14.5551 13.8862 15.2859V15.6127H16.832V15.3046C16.832 13.6026 16.832 11.9005 16.832 10.1985C16.832 9.3943 17.2359 8.9965 18.0518 8.99521C18.7394 8.99521 19.427 8.99521 20.152 8.99521C20.152 8.68928 20.1498 8.40444 20.152 8.11938C20.1583 7.4434 20.5774 7.01054 21.2533 7.00581C22.3305 6.99806 23.4077 6.99806 24.4851 7.00581C24.6291 6.99901 24.773 7.02212 24.9074 7.07366C25.0419 7.1252 25.1639 7.20404 25.2658 7.3051C25.3677 7.40616 25.4471 7.52721 25.4989 7.66048C25.5508 7.79374 25.5739 7.93628 25.5669 8.07893C25.5735 8.92515 25.5735 9.77137 25.5669 10.6176C25.5733 10.7578 25.5505 10.8979 25.4998 11.0291C25.4492 11.1602 25.3718 11.2796 25.2725 11.3797C25.1732 11.4799 25.0541 11.5587 24.9226 11.6113C24.7912 11.6638 24.6502 11.689 24.5085 11.6851C23.4119 11.6973 22.3153 11.6973 21.2185 11.6851C21.077 11.689 20.9361 11.6641 20.8047 11.612C20.6732 11.5599 20.5539 11.4818 20.4541 11.3823C20.3543 11.2828 20.2761 11.1641 20.2243 11.0336C20.1725 10.903 20.1483 10.7634 20.153 10.6232C20.147 10.3261 20.153 10.0287 20.153 9.68969H19.8273C19.2157 9.68969 18.6043 9.68667 17.993 9.69098C17.6755 9.69334 17.5369 9.80651 17.5369 10.0866C17.5339 11.904 17.5348 13.7213 17.5397 15.5385C17.5451 15.5633 17.5536 15.5873 17.5652 15.6099H20.1535C20.1535 15.2354 20.1535 14.855 20.1535 14.4744C20.1535 13.6083 20.5418 13.2182 21.4068 13.2171C22.3769 13.2158 23.3474 13.2158 24.3185 13.2171C25.1707 13.2182 25.5703 13.6115 25.5708 14.4464C25.5708 15.2158 25.5725 15.9849 25.5708 16.7543C25.5688 17.4797 25.1507 17.9022 24.4171 17.9068C23.4079 17.9128 22.3974 17.9098 21.389 17.9081C20.5581 17.9065 20.1556 17.5079 20.1537 16.6899C20.1537 16.5847 20.1537 16.4795 20.1537 16.3496H17.5473C17.5423 16.4447 17.5332 16.5374 17.533 16.6303C17.5321 18.1977 17.5321 19.7651 17.533 21.3324C17.533 21.7698 17.6225 21.86 18.0566 21.8608C18.7431 21.8632 19.4301 21.8623 20.152 21.8623ZM9.97175 10.2932C9.04831 10.2932 8.167 10.2932 7.28591 10.2932C6.81681 10.2932 6.69953 10.4078 6.69953 10.8682C6.69953 13.9056 6.69953 16.9429 6.69953 19.9803C6.69953 20.4297 6.81224 20.5422 7.26571 20.5425C9.05077 20.5433 10.8358 20.5433 12.6209 20.5425C13.0737 20.5425 13.1812 20.4329 13.1814 19.9751C13.1821 17.8798 13.1821 15.7845 13.1814 13.6891C13.1814 13.5882 13.171 13.4873 13.1645 13.3697C12.6773 13.3697 12.2211 13.3482 11.768 13.3738C10.1507 13.468 9.90182 12.9198 9.96805 11.6034C9.98956 11.183 9.97175 10.7607 9.97175 10.2932ZM22.845 17.2134C23.3688 17.2134 23.8926 17.2175 24.4165 17.2119C24.754 17.2082 24.8664 17.092 24.8678 16.7543C24.8706 15.9661 24.8706 15.1781 24.8678 14.3901C24.8678 14.0306 24.7592 13.9168 24.4043 13.9157C23.3763 13.9118 22.3483 13.9118 21.3204 13.9157C20.9627 13.917 20.8554 14.0293 20.8541 14.3877C20.8516 15.1662 20.8516 15.9448 20.8541 16.7233C20.8541 17.1105 20.9599 17.211 21.3616 17.2134C21.8555 17.2159 22.3502 17.2136 22.845 17.2134ZM22.8684 7.69985C22.3446 7.69985 21.8207 7.69641 21.2969 7.70114C20.9733 7.70415 20.8558 7.81818 20.8541 8.13487C20.85 8.94222 20.85 9.74957 20.8541 10.5569C20.8556 10.874 20.9735 10.9926 21.296 10.9939C22.334 10.9982 23.372 10.9982 24.4099 10.9939C24.7511 10.9928 24.866 10.8775 24.8675 10.5421C24.8707 9.74433 24.8707 8.94659 24.8675 8.14885C24.8662 7.81474 24.7516 7.70243 24.4115 7.69964C23.8965 7.69684 23.3825 7.69985 22.8682 7.69985H22.8684ZM22.8684 23.4277C23.3922 23.4277 23.9161 23.4318 24.4399 23.4262C24.744 23.423 24.8656 23.3046 24.8671 23.0067C24.8717 22.1891 24.8717 21.3722 24.8671 20.5558C24.8654 20.2546 24.7464 20.1358 24.4399 20.1343C23.3922 20.1296 22.3446 20.1296 21.2969 20.1343C20.9738 20.1356 20.856 20.2535 20.8545 20.5704C20.8506 21.3778 20.8506 22.1851 20.8545 22.9925C20.8563 23.3089 20.9742 23.424 21.2969 23.4271C21.8203 23.4316 22.3441 23.4279 22.868 23.4279L22.8684 23.4277ZM10.7688 10.3398L10.6756 10.4063C10.6756 11.0384 10.67 11.6703 10.6789 12.3021C10.6748 12.3486 10.6805 12.3954 10.6957 12.4395C10.7108 12.4837 10.7351 12.5242 10.7668 12.5586C10.7986 12.593 10.8373 12.6204 10.8804 12.6393C10.9234 12.6581 10.97 12.6678 11.017 12.6679C11.702 12.6804 12.3872 12.6724 13.0724 12.6724L13.1402 12.5799C12.3884 11.794 11.5969 11.0464 10.7688 10.3398Z" fill="#D05959"/>
<path d="M9.96006 19.265C9.25315 19.265 8.54623 19.2686 7.83932 19.2639C7.54331 19.262 7.36783 19.0776 7.42473 18.8427C7.43921 18.7611 7.4842 18.6879 7.55074 18.6377C7.61727 18.5875 7.70046 18.5639 7.78372 18.5718C9.2171 18.5718 10.6505 18.5718 12.0838 18.5718C12.3138 18.5718 12.4613 18.6837 12.4596 18.916C12.4622 18.9647 12.4539 19.0133 12.4354 19.0585C12.417 19.1037 12.3887 19.1443 12.3526 19.1774C12.3165 19.2106 12.2736 19.2355 12.2267 19.2503C12.1798 19.2652 12.1303 19.2697 12.0815 19.2635C11.3735 19.2669 10.6665 19.2645 9.96006 19.265Z" fill="#D05959"/>
<path d="M9.95663 14.9151C10.636 14.9151 11.3153 14.9136 11.9946 14.9151C12.3132 14.9151 12.4663 15.0311 12.4631 15.2576C12.4598 15.4782 12.2926 15.6079 11.9881 15.6085C10.6197 15.6108 9.25153 15.6108 7.88345 15.6085C7.54313 15.6085 7.35853 15.4209 7.4289 15.1666C7.48558 14.9612 7.63934 14.9134 7.83176 14.9141C8.53976 14.9169 9.2482 14.9151 9.95663 14.9151Z" fill="#D05959"/>
<path d="M9.93031 17.4452C9.25119 17.4452 8.57208 17.4476 7.89318 17.4452C7.57719 17.4437 7.41648 17.3239 7.41409 17.1025C7.4117 16.8811 7.57762 16.7525 7.88558 16.7518C9.26307 16.7494 10.6406 16.7494 12.0183 16.7518C12.3171 16.7518 12.4882 16.8994 12.463 17.1234C12.4344 17.3785 12.2517 17.4461 12.0259 17.4461L9.93031 17.4452Z" fill="#D05959"/>
<path d="M22.8546 15.3215C22.5054 15.3215 22.1562 15.3252 21.807 15.3202C21.519 15.3161 21.3668 15.1911 21.3672 14.9713C21.3676 14.7514 21.5192 14.6285 21.8081 14.627C22.5065 14.6243 23.2049 14.6243 23.9034 14.627C24.1892 14.6281 24.3434 14.7542 24.343 14.9713C24.3425 15.1883 24.1909 15.3155 23.9023 15.3192C23.5526 15.3254 23.2039 15.3215 22.8546 15.3215Z" fill="#D05959"/>
<path d="M22.8789 16.5055C22.5199 16.5055 22.1612 16.5083 21.8022 16.5055C21.5174 16.5027 21.3559 16.3751 21.3678 16.1567C21.3821 15.9048 21.5468 15.8125 21.7804 15.8125C22.4983 15.8125 23.2161 15.8125 23.934 15.8125C24.1701 15.8125 24.3403 15.9136 24.336 16.1651C24.3316 16.4166 24.1646 16.5093 23.9253 16.5072C23.5774 16.5029 23.2284 16.5055 22.8789 16.5055Z" fill="#D05959"/>
<path d="M22.8618 9.10115C22.5028 9.10115 22.144 9.10115 21.785 9.10115C21.5483 9.10115 21.3759 9.00993 21.375 8.75822C21.375 8.51124 21.537 8.40604 21.7774 8.40625C22.4953 8.40625 23.2131 8.40625 23.931 8.40625C24.1699 8.40625 24.3367 8.50349 24.3408 8.75047C24.3449 9.00154 24.177 9.10072 23.9386 9.10051C23.5796 9.10065 23.2207 9.10087 22.8618 9.10115Z" fill="#D05959"/>
<path d="M22.8299 10.281C22.4807 10.281 22.1316 10.281 21.7824 10.281C21.5453 10.281 21.3754 10.1859 21.375 9.935C21.3746 9.68415 21.5468 9.58691 21.782 9.58669C22.4997 9.58569 23.2174 9.58569 23.9351 9.58669C24.1701 9.58669 24.3427 9.68307 24.3425 9.93457C24.3423 10.1861 24.1729 10.2814 23.9355 10.281C23.5669 10.2804 23.1984 10.2804 22.8299 10.281Z" fill="#D05959"/>
<path d="M22.8645 22.7183C22.5056 22.7183 22.1468 22.7164 21.7878 22.7183C21.5489 22.7201 21.3808 22.6233 21.3751 22.3761C21.3695 22.1289 21.535 22.0232 21.7745 22.0234C22.5021 22.0234 23.2296 22.0234 23.9572 22.0234C24.1843 22.0234 24.3405 22.1278 24.3411 22.3621C24.3411 22.6091 24.1824 22.717 23.9415 22.7168L22.8645 22.7183Z" fill="#D05959"/>
<path d="M22.874 20.8443C23.2328 20.8443 23.5917 20.8443 23.9506 20.8443C24.1762 20.8443 24.3354 20.9416 24.3426 21.1759C24.3504 21.4263 24.1875 21.5362 23.9497 21.5371C23.2223 21.5398 22.4949 21.5398 21.7675 21.5371C21.5286 21.5371 21.367 21.4254 21.3753 21.1752C21.3829 20.9412 21.5427 20.8446 21.7684 20.8446C22.1369 20.8436 22.5054 20.8435 22.874 20.8443Z" fill="#D05959"/>
</svg>
