<svg width="31" height="31" viewBox="0 0 31 31" fill="none" xmlns="http://www.w3.org/2000/svg">
<rect width="31" height="31" rx="15.5" fill="#34C289" fill-opacity="0.2"/>
<path d="M15.9582 17.0252V18.0297H22.1156C22.5311 18.0297 22.6162 18.1096 22.6162 18.506C22.6162 19.0443 22.6162 19.5826 22.6162 20.1214C22.6162 20.3836 22.4976 20.5274 22.2943 20.5125C22.05 20.4947 21.994 20.3335 21.994 20.1277C21.9975 19.6403 21.994 19.1525 21.994 18.6464H15.9517C15.9517 18.8138 15.9517 18.9918 15.9517 19.1698C15.9517 19.5095 15.9547 19.8491 15.9517 20.1887C15.9487 20.3812 15.8516 20.512 15.6408 20.5111C15.4301 20.5101 15.335 20.3768 15.3335 20.1854C15.3295 19.763 15.3335 19.3406 15.3335 18.9182C15.3335 18.8292 15.3335 18.7407 15.3335 18.6402H9.37831C9.37831 18.7311 9.37831 18.8182 9.37831 18.9053C9.37831 19.3382 9.37831 19.7668 9.37831 20.1974C9.38339 20.2371 9.37957 20.2773 9.36709 20.3155C9.35461 20.3536 9.33377 20.3887 9.30596 20.4184C9.27816 20.4482 9.24404 20.4718 9.20592 20.4878C9.16779 20.5038 9.12654 20.5117 9.08495 20.5111C9.04362 20.5169 9.00143 20.5139 8.96148 20.5021C8.92154 20.4903 8.88483 20.4701 8.85403 20.4429C8.82324 20.4158 8.79914 20.3824 8.78349 20.3452C8.76784 20.3079 8.76103 20.2678 8.76357 20.2277C8.75589 19.5901 8.75589 18.9524 8.76357 18.3145C8.76607 18.1264 8.90274 18.0384 9.09046 18.0316C9.25416 18.0259 9.41785 18.0316 9.58155 18.0316H15.3074V17.0272H10.5397C10.0967 17.0272 10.0121 16.9454 10.0121 16.5191C10.0121 13.7193 10.0121 10.9195 10.0121 8.11966C10.0286 7.88608 9.97655 7.65273 9.86189 7.44616C9.68796 7.10428 9.55172 6.74586 9.4554 6.37674C9.43978 6.33536 9.43466 6.291 9.44047 6.24734C9.44627 6.20368 9.46284 6.16198 9.48878 6.1257C9.51473 6.08943 9.54931 6.05963 9.58965 6.03879C9.62999 6.01794 9.67492 6.00664 9.72072 6.00583C9.79799 5.99997 9.87555 5.99853 9.953 6.00151H21.5584C22.063 6.00151 22.1657 6.13669 21.9779 6.5913C21.8308 6.94825 21.6551 7.29462 21.5029 7.64965C21.4808 7.72944 21.4744 7.81247 21.4838 7.89452C21.4838 10.7688 21.4838 13.6431 21.4838 16.5177C21.4838 16.9651 21.4173 17.0276 20.9412 17.0276H15.9582V17.0252ZM16.8378 16.409V16.13C16.8378 15.1774 16.8378 14.2249 16.8378 13.2724C16.8378 12.9486 16.9349 12.8572 17.2678 12.8568C18.0257 12.8548 18.7838 12.8548 19.542 12.8568C19.927 12.8568 20.0071 12.9347 20.0076 13.3123C20.0076 14.248 20.0076 15.1842 20.0076 16.1199C20.0076 16.2161 20.0176 16.3123 20.0231 16.4085H20.8376V7.66745H10.6518V16.409H11.5029V16.1256C11.5029 15.1731 11.5029 14.2206 11.5029 13.2681C11.5029 12.9357 11.585 12.8568 11.9279 12.8558C12.6955 12.8542 13.4622 12.8542 14.2281 12.8558C14.5735 12.8558 14.6551 12.9347 14.6556 13.2657C14.6556 14.2182 14.6556 15.1707 14.6556 16.1232V16.408L16.8378 16.409ZM19.3658 16.4253V13.4668H17.4635C17.4635 14.4198 17.4635 15.3617 17.47 16.3051C17.47 16.3464 17.5641 16.4215 17.6157 16.422C18.1924 16.4282 18.7686 16.4253 19.3678 16.4253H19.3658ZM12.1331 16.4071H14.0109V13.4725H12.1331V16.4071ZM10.2183 6.61102C10.331 7.0512 10.331 7.0512 10.769 7.0512H20.791C21.195 7.0512 21.2055 7.04158 21.2796 6.61102H10.2183Z" fill="#34C289" stroke="#34C289" stroke-width="0.1"/>
<path d="M22.1668 24.9976C21.7556 24.9933 21.3549 24.8719 21.0154 24.6489C20.676 24.4259 20.4129 24.1111 20.2595 23.7445C20.1061 23.3778 20.0693 22.9757 20.1536 22.5889C20.2379 22.2021 20.4397 21.848 20.7333 21.5714C21.027 21.2948 21.3994 21.108 21.8035 21.0347C22.2076 20.9614 22.6252 21.0048 23.0036 21.1595C23.382 21.3142 23.7042 21.5733 23.9295 21.9039C24.1548 22.2345 24.273 22.6218 24.2693 23.017C24.2672 23.2799 24.2111 23.5398 24.1042 23.7818C23.9973 24.0238 23.8416 24.2431 23.6463 24.4271C23.4509 24.6112 23.2196 24.7563 22.9657 24.8542C22.7118 24.9521 22.4403 25.0008 22.1668 24.9976ZM23.3227 23.8493C23.5568 23.5786 23.6725 23.2312 23.6453 22.8802C23.6181 22.5293 23.4502 22.2021 23.177 21.9678C23.0357 21.843 22.8701 21.7462 22.6898 21.683C22.5095 21.6198 22.3179 21.5914 22.1262 21.5995C21.9344 21.6076 21.7462 21.652 21.5723 21.7301C21.3985 21.8083 21.2424 21.9186 21.113 22.0549C20.8747 22.294 20.738 22.6101 20.7298 22.9411C20.7215 23.2721 20.8423 23.5942 21.0684 23.844L21.4804 23.4865C21.1996 22.9622 21.2437 22.5595 21.6071 22.2632C21.7623 22.1359 21.958 22.0634 22.1619 22.0576C22.3658 22.0517 22.5656 22.1129 22.7284 22.2309C23.1289 22.5244 23.1855 22.9218 22.9047 23.4966L23.3227 23.8493ZM21.5776 24.2644C21.7667 24.3615 21.9788 24.4099 22.1932 24.4049C22.4076 24.3998 22.617 24.3415 22.801 24.2356C22.7336 24.1374 22.6414 24.0573 22.5329 24.0029C22.4245 23.9484 22.3034 23.9213 22.1811 23.9242C22.0588 23.927 21.9392 23.9597 21.8336 24.0191C21.7281 24.0785 21.6399 24.1628 21.5776 24.2639V24.2644ZM22.2609 22.6201L22.1387 22.6153C22.0646 22.7168 21.9465 22.8111 21.9265 22.9213C21.918 22.9563 21.9189 22.9929 21.9292 23.0275C21.9395 23.0621 21.9588 23.0935 21.9854 23.1189C22.0119 23.1443 22.0447 23.1628 22.0808 23.1726C22.1168 23.1824 22.1549 23.1831 22.1913 23.1748C22.251 23.1579 22.3055 23.1271 22.3498 23.0852C22.3942 23.0432 22.4271 22.9914 22.4456 22.9343C22.4536 22.8356 22.3285 22.7255 22.2609 22.6196V22.6201Z" fill="#34C289"/>
<path d="M9.06999 24.9977C8.65897 24.9958 8.25776 24.8769 7.91699 24.656C7.57622 24.4352 7.31118 24.1223 7.15533 23.7568C6.99948 23.3913 6.9598 22.9896 7.04131 22.6025C7.12281 22.2153 7.32185 21.8601 7.61329 21.5815C7.90472 21.303 8.2755 21.1137 8.6788 21.0375C9.08211 20.9614 9.49986 21.0017 9.87932 21.1535C10.2588 21.3053 10.5829 21.5617 10.8109 21.8904C11.0388 22.2191 11.1603 22.6053 11.16 23.0003C11.1619 23.264 11.1091 23.5255 11.0047 23.7694C10.9002 24.0133 10.7461 24.2348 10.5515 24.4208C10.3569 24.6068 10.1256 24.7536 9.87122 24.8526C9.61683 24.9517 9.34444 25.001 9.06999 24.9977ZM10.2134 23.8537C10.332 23.7136 10.4208 23.5523 10.4745 23.3792C10.5283 23.2061 10.546 23.0245 10.5267 22.8448C10.5073 22.665 10.4513 22.4908 10.3618 22.3319C10.2723 22.173 10.1511 22.0326 10.0051 21.9188C9.85693 21.8016 9.68617 21.7136 9.50258 21.6598C9.31898 21.606 9.12616 21.5875 8.93513 21.6054C8.7441 21.6233 8.55861 21.6771 8.38925 21.7639C8.2199 21.8507 8.07001 21.9687 7.94814 22.1112C7.7331 22.3528 7.61561 22.6607 7.61708 22.9786C7.61855 23.2965 7.73889 23.6033 7.95615 23.8431L8.37415 23.4866C8.23408 23.3135 8.16483 23.0971 8.17949 22.8782C8.19416 22.6594 8.29172 22.4533 8.45375 22.2989C8.60135 22.1635 8.79241 22.0802 8.99566 22.0627C9.19891 22.0452 9.40232 22.0946 9.57259 22.2026C9.9986 22.4759 10.0647 22.8531 9.79686 23.5015L10.2134 23.8537ZM9.70175 24.2669C9.63616 24.165 9.54445 24.0809 9.43539 24.0228C9.32633 23.9646 9.20357 23.9343 9.07885 23.9348C8.95413 23.9353 8.83162 23.9665 8.72305 24.0255C8.61448 24.0845 8.52348 24.1693 8.45875 24.2717C8.65361 24.3586 8.86595 24.4033 9.08075 24.4025C9.29555 24.4018 9.50756 24.3556 9.70175 24.2674V24.2669ZM9.02994 23.2283L9.15058 23.223C9.21666 23.1167 9.32679 23.0152 9.33881 22.9036C9.34441 22.8681 9.34052 22.8318 9.32753 22.7982C9.31454 22.7645 9.29285 22.7346 9.26452 22.7113C9.23619 22.6879 9.20215 22.6718 9.16558 22.6645C9.12901 22.6573 9.09112 22.6591 9.05547 22.6698C8.99726 22.6908 8.94536 22.7254 8.9044 22.7704C8.86344 22.8154 8.83468 22.8694 8.82069 22.9276C8.81969 23.0277 8.95485 23.1282 9.02994 23.2283Z" fill="#34C289"/>
<path d="M13.5547 23.0151C13.5518 22.6195 13.6709 22.232 13.8971 21.9014C14.1233 21.5709 14.4464 21.3122 14.8256 21.1581C15.2047 21.004 15.6229 20.9613 16.0272 21.0355C16.4316 21.1097 16.804 21.2975 17.0973 21.575C17.3907 21.8526 17.5919 22.2074 17.6754 22.5948C17.7589 22.9822 17.7211 23.3847 17.5666 23.7514C17.4122 24.1181 17.1481 24.4326 16.8077 24.6551C16.4673 24.8776 16.0659 24.9981 15.6543 25.0015C15.3806 25.004 15.1091 24.9545 14.8553 24.8559C14.6015 24.7574 14.3705 24.6116 14.1755 24.4271C13.9804 24.2426 13.8252 24.0229 13.7187 23.7806C13.6122 23.5383 13.5564 23.2782 13.5547 23.0151ZM14.9334 23.49C14.7955 23.3148 14.728 23.0976 14.7436 22.8785C14.7591 22.6593 14.8566 22.4529 15.018 22.2974C15.1636 22.1597 15.355 22.0758 15.5586 22.0603C15.7622 22.0448 15.965 22.0988 16.1313 22.2127C16.2854 22.3288 16.406 22.4808 16.4818 22.6543C16.5329 22.7943 16.547 22.9442 16.5228 23.0907C16.4986 23.2371 16.4368 23.3755 16.3431 23.4933L16.7756 23.856C16.8945 23.7156 16.9833 23.554 17.037 23.3805C17.0906 23.207 17.108 23.025 17.0882 22.845C17.0684 22.665 17.0117 22.4906 16.9215 22.3317C16.8312 22.1728 16.7092 22.0326 16.5624 21.9193C16.2623 21.6838 15.8773 21.5723 15.4918 21.6094C15.1063 21.6465 14.7519 21.829 14.5064 22.117C14.2903 22.3573 14.1725 22.6649 14.1747 22.9824C14.1769 23.3 14.299 23.606 14.5184 23.8435L14.9334 23.49ZM15.017 24.2789C15.2128 24.3639 15.4254 24.4073 15.6402 24.4063C15.8551 24.4052 16.0671 24.3596 16.262 24.2727C16.1966 24.1702 16.1049 24.0857 15.9957 24.0272C15.8865 23.9688 15.7635 23.9383 15.6385 23.9387C15.5135 23.9391 15.3907 23.9705 15.2819 24.0297C15.1732 24.089 15.0821 24.1741 15.0175 24.277L15.017 24.2789ZM15.3254 22.8732C15.3254 22.913 15.3254 22.9528 15.3254 22.9925C15.432 23.0589 15.5336 23.1681 15.6468 23.1811C15.6835 23.1875 15.7213 23.1846 15.7565 23.1727C15.7917 23.1608 15.8231 23.1403 15.8476 23.1133C15.8721 23.0862 15.8888 23.0535 15.8962 23.0183C15.9036 22.9831 15.9013 22.9467 15.8895 22.9127C15.861 22.8165 15.7258 22.6813 15.6347 22.6789C15.5356 22.6755 15.43 22.8025 15.3259 22.8732H15.3254Z" fill="#34C289"/>
<path d="M17.0455 10.4722C17.1916 10.4722 17.3378 10.4722 17.484 10.4722C17.5315 10.4653 17.5799 10.4688 17.6257 10.4826C17.6716 10.4963 17.7136 10.5199 17.7485 10.5515C17.7835 10.583 17.8106 10.6218 17.8277 10.6649C17.8449 10.708 17.8516 10.7543 17.8474 10.8002C17.8559 11.1057 17.8544 11.4122 17.8474 11.7181C17.8511 11.76 17.8454 11.8021 17.8308 11.8416C17.8162 11.8812 17.793 11.9173 17.7628 11.9476C17.7325 11.9779 17.6959 12.0016 17.6553 12.0172C17.6147 12.0328 17.5712 12.0399 17.5275 12.038C17.1926 12.0477 16.8567 12.0481 16.5218 12.038C16.4761 12.0403 16.4303 12.0328 16.3879 12.0161C16.3455 11.9994 16.3075 11.9739 16.2766 11.9414C16.2456 11.9088 16.2226 11.8702 16.2091 11.8281C16.1956 11.786 16.1919 11.7415 16.1984 11.6979C16.1984 11.4001 16.1984 11.1024 16.1984 10.8051C16.193 10.7593 16.1985 10.7129 16.2146 10.6695C16.2307 10.6261 16.257 10.5869 16.2914 10.5548C16.3257 10.5226 16.3673 10.4985 16.4129 10.4843C16.4585 10.4701 16.5069 10.4661 16.5544 10.4726L17.0455 10.4722ZM16.8302 11.4266H17.2061V11.0898H16.8302V11.4266Z" fill="#34C289" stroke="#34C289" stroke-width="0.1"/>
<path d="M15.3312 11.206C15.3412 12.0334 15.3813 12.0594 14.5303 12.0459C14.3671 12.0435 14.2039 12.0459 14.0407 12.0426C13.9929 12.0474 13.9446 12.0418 13.8994 12.0262C13.8542 12.0106 13.8132 11.9854 13.7795 11.9525C13.7458 11.9196 13.7203 11.8798 13.7049 11.8361C13.6894 11.7924 13.6844 11.7459 13.6902 11.7C13.6902 11.4027 13.6902 11.1054 13.6902 10.8081C13.6839 10.7625 13.6886 10.716 13.704 10.6724C13.7193 10.6288 13.745 10.5891 13.7789 10.5565C13.8127 10.524 13.854 10.4993 13.8994 10.4846C13.9448 10.4698 13.9932 10.4653 14.0407 10.4714C14.3586 10.4714 14.6764 10.4714 14.9918 10.4714C15.0373 10.4667 15.0832 10.4719 15.1262 10.4867C15.1693 10.5015 15.2083 10.5255 15.2403 10.5568C15.2723 10.5881 15.2965 10.626 15.3112 10.6676C15.3258 10.7092 15.3304 10.7535 15.3247 10.7971C15.3332 10.9568 15.3312 11.1141 15.3312 11.206ZM14.345 11.0852C14.277 11.4581 14.33 11.5038 14.6955 11.4027V11.0852H14.345Z" fill="#34C289" stroke="#34C289" stroke-width="0.1"/>
<path d="M15.336 9.27878C15.336 9.43609 15.3395 9.59292 15.336 9.74975C15.3402 9.79148 15.3348 9.83359 15.3203 9.87315C15.3059 9.9127 15.2826 9.94876 15.2521 9.97879C15.2217 10.0088 15.1848 10.0321 15.144 10.0471C15.1033 10.062 15.0596 10.0682 15.0161 10.0653C14.6812 10.0725 14.3453 10.073 14.0104 10.0653C13.9688 10.0675 13.9273 10.0611 13.8885 10.0467C13.8497 10.0322 13.8146 10.01 13.7854 9.98157C13.7562 9.95311 13.7336 9.91901 13.7192 9.88153C13.7047 9.84405 13.6987 9.80405 13.7015 9.76418C13.6935 9.44186 13.693 9.11955 13.7015 8.79723C13.6991 8.75539 13.7063 8.71355 13.7224 8.67463C13.7386 8.6357 13.7633 8.60062 13.795 8.57183C13.8267 8.54304 13.8645 8.52122 13.9059 8.50789C13.9472 8.49455 13.9911 8.49003 14.0344 8.49464C14.3523 8.49127 14.6707 8.49464 14.9891 8.49464C15.0367 8.48876 15.0852 8.4935 15.1307 8.5085C15.1762 8.52351 15.2174 8.54836 15.2513 8.58115C15.2852 8.61394 15.3108 8.65378 15.3261 8.69759C15.3413 8.7414 15.3459 8.788 15.3395 8.83379C15.3375 8.98196 15.3365 9.13061 15.336 9.27878ZM14.3388 9.10271V9.44908H14.7017V9.10271H14.3388Z" fill="#34C289" stroke="#34C289" stroke-width="0.1"/>
<path d="M16.1987 9.26582C16.1851 8.48119 16.1736 8.47253 16.9996 8.48744C17.1633 8.49033 17.3265 8.48744 17.4902 8.48744C17.538 8.48198 17.5864 8.48688 17.6319 8.50176C17.6774 8.51663 17.7189 8.54112 17.7532 8.57342C17.7876 8.60572 17.814 8.64502 17.8305 8.68841C17.8471 8.73181 17.8532 8.7782 17.8486 8.8242C17.8556 9.12198 17.8546 9.42024 17.8486 9.71803C17.8538 9.76384 17.8484 9.81018 17.8328 9.85374C17.8171 9.8973 17.7916 9.93698 17.7581 9.96995C17.7246 10.0029 17.684 10.0284 17.639 10.0444C17.5941 10.0605 17.546 10.0668 17.4982 10.063C17.1883 10.0678 16.8785 10.0702 16.5686 10.063C16.3063 10.0572 16.2057 9.94893 16.2002 9.68819C16.1961 9.54724 16.1987 9.40677 16.1987 9.26582ZM16.8284 9.44237H17.2134V9.10562H16.8284V9.44237Z" fill="#34C289" stroke="#34C289" stroke-width="0.1"/>
<path d="M11.184 11.2358C11.184 11.0871 11.184 10.9385 11.184 10.7903C11.1788 10.7488 11.1833 10.7066 11.1973 10.667C11.2113 10.6274 11.2344 10.5913 11.2649 10.5614C11.2954 10.5315 11.3325 10.5086 11.3734 10.4943C11.4143 10.4801 11.4581 10.4749 11.5014 10.4791C11.8273 10.4752 12.1522 10.4791 12.4796 10.4791C12.5228 10.4735 12.5668 10.4773 12.6082 10.4901C12.6497 10.503 12.6877 10.5246 12.7194 10.5534C12.751 10.5821 12.7756 10.6174 12.7913 10.6564C12.807 10.6955 12.8134 10.7375 12.81 10.7793C12.818 11.1006 12.8165 11.4229 12.81 11.7443C12.8136 11.784 12.8083 11.824 12.7943 11.8615C12.7803 11.899 12.7581 11.9332 12.7291 11.9616C12.7001 11.9901 12.665 12.0122 12.6262 12.0264C12.5875 12.0407 12.546 12.0466 12.5046 12.044C12.1702 12.0517 11.8353 12.0526 11.5034 12.044C11.4578 12.0474 11.412 12.0408 11.3695 12.0246C11.327 12.0084 11.2889 11.9831 11.2581 11.9507C11.2272 11.9182 11.2046 11.8794 11.1917 11.8372C11.1789 11.795 11.1763 11.7506 11.184 11.7072C11.187 11.5494 11.184 11.3926 11.184 11.2358ZM12.1822 11.0944H11.8208V11.4277H12.1822V11.0944Z" fill="#34C289" stroke="#34C289" stroke-width="0.1"/>
<path d="M19.541 10.4717C19.7042 10.4717 19.8674 10.4717 20.0306 10.4717C20.0739 10.4672 20.1177 10.4719 20.1589 10.4855C20.2001 10.4992 20.2376 10.5213 20.2688 10.5505C20.3 10.5797 20.3242 10.6152 20.3395 10.6543C20.3548 10.6935 20.361 10.7355 20.3575 10.7772C20.364 11.0908 20.361 11.4026 20.3575 11.7182C20.3624 11.7598 20.3578 11.8019 20.3439 11.8416C20.33 11.8813 20.3072 11.9176 20.2771 11.9479C20.247 11.9782 20.2104 12.0017 20.1698 12.0169C20.1291 12.0321 20.0856 12.0385 20.0421 12.0357C19.7084 12.044 19.3736 12.044 19.0379 12.0357C18.9944 12.0381 18.9509 12.0315 18.9104 12.0162C18.8698 12.0008 18.8333 11.9773 18.8032 11.947C18.7731 11.9168 18.7502 11.8806 18.7361 11.841C18.722 11.8014 18.717 11.7593 18.7215 11.7177C18.7178 11.4124 18.7178 11.1077 18.7215 10.8037C18.7155 10.758 18.7207 10.7115 18.7365 10.6681C18.7524 10.6246 18.7785 10.5853 18.8128 10.5531C18.8472 10.521 18.8888 10.497 18.9345 10.4829C18.9801 10.4689 19.0286 10.4652 19.0759 10.4722C19.2316 10.4732 19.3868 10.4717 19.541 10.4717ZM19.3578 11.4247H19.7132V11.0846H19.3578V11.4247Z" fill="#34C289" stroke="#34C289" stroke-width="0.1"/>
<path d="M11.182 9.2841C11.182 9.12728 11.182 8.97045 11.182 8.81362C11.1766 8.77207 11.181 8.72991 11.1947 8.69017C11.2084 8.65044 11.2311 8.61412 11.2612 8.58384C11.2913 8.55356 11.3279 8.53007 11.3686 8.51506C11.4093 8.50006 11.4529 8.49391 11.4963 8.49707C11.8312 8.48986 12.1661 8.4913 12.501 8.49707C12.5424 8.49438 12.5839 8.5003 12.6227 8.51442C12.6614 8.52854 12.6966 8.55052 12.7257 8.57888C12.7548 8.60723 12.7773 8.64129 12.7914 8.67873C12.8056 8.71617 12.8112 8.7561 12.8079 8.79582C12.8156 9.11653 12.8156 9.43853 12.8079 9.76181C12.8109 9.80355 12.8045 9.84542 12.789 9.88453C12.7735 9.92363 12.7493 9.95902 12.7182 9.98826C12.687 10.0175 12.6497 10.0399 12.6086 10.0539C12.5676 10.0678 12.5239 10.0731 12.4805 10.0692C12.1626 10.0735 11.8448 10.0731 11.5294 10.0692C11.4818 10.075 11.4336 10.0701 11.3883 10.0549C11.3431 10.0398 11.3021 10.0148 11.2685 9.98193C11.235 9.94905 11.2098 9.90916 11.195 9.86539C11.1801 9.82161 11.176 9.77514 11.183 9.72958C11.183 9.57997 11.182 9.43276 11.182 9.2841ZM11.8177 9.44911H12.1747V9.11237H11.8177V9.44911Z" fill="#34C289" stroke="#34C289" stroke-width="0.1"/>
<path d="M18.7221 9.26035C18.7091 8.46418 18.7081 8.47524 19.5231 8.48727C19.6522 8.48727 19.7809 8.48727 19.91 8.48727C20.271 8.48727 20.3566 8.56761 20.3606 8.90484C20.3606 9.1776 20.3606 9.45037 20.3606 9.72266C20.3665 9.76837 20.3616 9.81478 20.3461 9.85838C20.3306 9.90198 20.3051 9.94164 20.2713 9.97435C20.2376 10.0071 20.1965 10.032 20.1513 10.0472C20.106 10.0624 20.0578 10.0676 20.0102 10.0623C19.7008 10.0661 19.3914 10.0623 19.082 10.0623C19.0323 10.0681 18.9818 10.0627 18.9346 10.0466C18.8874 10.0305 18.8447 10.0041 18.8099 9.96943C18.7751 9.9348 18.749 9.89289 18.7339 9.84699C18.7188 9.80109 18.7149 9.75244 18.7226 9.70485C18.7226 9.55701 18.7224 9.40884 18.7221 9.26035ZM19.3579 9.4446H19.7258V9.10159H19.3579V9.4446Z" fill="#34C289" stroke="#34C289" stroke-width="0.1"/>
</svg>
