<svg width="31" height="31" viewBox="0 0 31 31" fill="none" xmlns="http://www.w3.org/2000/svg">
<rect width="31" height="31" rx="15.5" fill="#389FE7" fill-opacity="0.2"/>
<g clip-path="url(#clip0_1736_11360)">
<path d="M22.6501 17.1195V15.4055H15.9265V17.1204C16.0049 17.1266 16.0824 17.1381 16.1609 17.1381C16.6349 17.1381 17.1089 17.131 17.5821 17.1434C17.6877 17.1377 17.7934 17.1537 17.8926 17.1905C17.9918 17.2273 18.0825 17.284 18.1592 17.3572C18.2358 17.4304 18.2967 17.5185 18.3383 17.6162C18.3798 17.7139 18.401 17.819 18.4006 17.9252C18.4129 19.3521 18.4129 20.7789 18.4006 22.2058C18.4018 22.4056 18.3263 22.5981 18.1898 22.7435C18.0533 22.889 17.8663 22.976 17.6675 22.9867C17.5768 22.9962 17.4856 23.0004 17.3944 22.9991C16.1274 22.9991 14.8606 22.9991 13.5942 22.9991C12.8893 22.9991 12.5898 22.7037 12.5889 22.0041C12.5889 20.707 12.5889 19.4081 12.5889 18.1074C12.5889 17.4396 12.8938 17.1416 13.5625 17.1389C14.0612 17.1389 14.5608 17.1389 15.0762 17.1389V15.4081H8.35612V17.1389H9.17905C9.43457 17.1389 9.68921 17.1389 9.94473 17.1389C10.0638 17.1295 10.1836 17.1459 10.2958 17.1872C10.408 17.2285 10.51 17.2936 10.5948 17.378C10.6797 17.4625 10.7453 17.5644 10.7873 17.6767C10.8293 17.789 10.8467 17.909 10.8382 18.0287C10.8487 18.7601 10.8382 19.4924 10.8382 20.2238C10.8382 20.8279 10.8382 21.431 10.8382 22.0351C10.8548 22.1659 10.8414 22.2988 10.7987 22.4235C10.7561 22.5483 10.6855 22.6615 10.5923 22.7545C10.4992 22.8475 10.386 22.9178 10.2615 22.9599C10.137 23.002 10.0045 23.0148 9.87424 22.9973C8.57081 23.002 7.26767 23.002 5.96483 22.9973C5.83178 23.0174 5.6959 23.0056 5.56827 22.9629C5.44063 22.9202 5.32485 22.8478 5.23037 22.7517C5.13589 22.6555 5.06537 22.5384 5.02458 22.4097C4.98378 22.281 4.97386 22.1445 4.99562 22.0112C4.99562 20.7141 4.99562 19.4151 4.99562 18.1145C4.97562 17.9817 4.98706 17.8461 5.02899 17.7186C5.07091 17.5911 5.14217 17.4753 5.23697 17.3805C5.33177 17.2858 5.44747 17.2148 5.57468 17.1733C5.7019 17.1318 5.83706 17.1209 5.96923 17.1416C6.46882 17.1416 6.96927 17.1416 7.49529 17.1416C7.50145 17.0364 7.51026 16.9488 7.51026 16.8612C7.51026 16.2943 7.51026 15.7274 7.51026 15.1596C7.51026 14.682 7.61511 14.575 8.08738 14.575H15.0701V12.8672C14.552 12.8672 14.0524 12.8672 13.5519 12.8672C12.8876 12.8672 12.5827 12.5639 12.5827 11.8943C12.5827 10.586 12.5827 9.27794 12.5827 7.97018C12.5627 7.83951 12.5735 7.70595 12.6145 7.58029C12.6554 7.45463 12.7253 7.34042 12.8184 7.24689C12.9114 7.15336 13.0252 7.08315 13.1503 7.04194C13.2755 7.00074 13.4085 6.98969 13.5387 7.0097C14.8422 7.00557 16.1453 7.00557 17.4481 7.0097C17.5784 6.98993 17.7114 7.00122 17.8365 7.04266C17.9615 7.08409 18.0751 7.15451 18.1681 7.24821C18.261 7.34191 18.3306 7.45627 18.3713 7.582C18.412 7.70774 18.4226 7.84133 18.4023 7.97196C18.4059 9.2691 18.4059 10.568 18.4023 11.8687C18.4023 12.5258 18.1045 12.8168 17.4455 12.8212C16.945 12.8212 16.4446 12.8212 15.9212 12.8212V14.5759H22.8457C23.3902 14.5759 23.4766 14.6643 23.4766 15.2171C23.4766 15.8468 23.4766 16.4765 23.4766 17.1434H24.9092C25.7022 17.1434 25.9921 17.4361 25.9921 18.2392C25.9921 19.4927 25.9921 20.7459 25.9921 21.9988C25.9921 22.6957 25.6864 23.0017 24.9894 23.0035C23.7136 23.0035 22.4378 23.0035 21.1619 23.0035C20.4571 23.0035 20.1531 22.6904 20.1522 21.9767C20.1522 20.7049 20.1522 19.4334 20.1522 18.1622C20.1522 17.4449 20.4535 17.1451 21.1672 17.1434H22.5611C22.5914 17.1378 22.6211 17.1298 22.6501 17.1195ZM10.0099 22.1669V17.9924H5.83619V22.1669H10.0099ZM13.4136 22.1669C13.5176 22.1722 13.5898 22.1775 13.6603 22.1775C14.8806 22.1775 16.1018 22.1722 17.3221 22.1837C17.5583 22.1837 17.6094 22.1041 17.6076 21.8856C17.5988 20.6881 17.6076 19.4897 17.6023 18.2922C17.6023 18.2038 17.5935 18.1153 17.5865 17.9906H13.4136V22.1669ZM20.9972 17.9632V22.097H25.1595V17.9632H20.9972ZM17.575 12.0465C17.5861 12.0058 17.5944 11.9645 17.5997 11.9226C17.5997 10.6252 17.5997 9.32687 17.6067 8.0312C17.6067 7.83044 17.5072 7.81629 17.3512 7.81629C16.1133 7.81629 14.8745 7.81629 13.6365 7.81629C13.566 7.81629 13.4955 7.82868 13.4207 7.83575V11.9598L17.575 12.0465Z" fill="#389FE7"/>
</g>
<defs>
<clipPath id="clip0_1736_11360">
<rect width="21" height="16" fill="white" transform="translate(5 7)"/>
</clipPath>
</defs>
</svg>
