<svg xmlns="http://www.w3.org/2000/svg" width="20.462" height="25.499" viewBox="0 0 20.462 25.499">
  <g id="Group_90965" data-name="Group 90965" transform="translate(338.089 -242.884)">
    <path id="Path_137995" data-name="Path 137995" d="M-318.919,249.255h-1.215c-1.048,0-2.1,0-3.144,0-.518,0-.746-.232-.746-.752q0-1.987,0-3.974v-.369h-10.692a1.917,1.917,0,0,0-2.082,2.086c0,.727,0,1.454,0,2.181a1.628,1.628,0,0,1-.019.3.614.614,0,0,1-.628.527.571.571,0,0,1-.614-.534,22.238,22.238,0,0,1,.1-3.364,2.974,2.974,0,0,1,2.955-2.45c2.425-.028,4.851-.012,7.277-.014,1.388,0,2.775.006,4.163,0a1,1,0,0,1,.771.313q2.416,2.428,4.849,4.839a1.011,1.011,0,0,1,.324.767q-.007,8.128-.005,16.256a3.181,3.181,0,0,1-3.339,3.322q-6.887,0-13.775,0a3.185,3.185,0,0,1-3.34-3.321q-.007-1.808,0-3.616a.643.643,0,0,1,.56-.7.62.62,0,0,1,.667.395,1.47,1.47,0,0,1,.055.441c0,1.155,0,2.311,0,3.466a2.625,2.625,0,0,0,.052.592,1.9,1.9,0,0,0,1.928,1.472q6.633,0,13.266,0c.25,0,.5,0,.749,0a1.9,1.9,0,0,0,1.878-1.833c.009-.229.005-.458.005-.687q0-7.456,0-14.912Zm-1.057-1.28-2.753-2.755v2.755Z" transform="translate(0 0)" fill="#004eeb"/>
    <path id="Path_137996" data-name="Path 137996" d="M-327.353,343.237c-.113-.123-.176-.2-.243-.263-.8-.8-1.6-1.585-2.386-2.395a1.058,1.058,0,0,1-.27-.567.473.473,0,0,1,.357-.526,1.265,1.265,0,0,1,.644.065c.137.047.237.206.35.318q1.727,1.722,3.451,3.445a.669.669,0,0,1,.009,1.1q-1.84,1.841-3.686,3.676a.638.638,0,0,1-.955.044.638.638,0,0,1,.065-.954c.076-.079.155-.155.233-.233l2.45-2.445h-9.811c-.422,0-.66-.144-.754-.451a.619.619,0,0,1,.524-.809,3.111,3.111,0,0,1,.359-.01h9.664Z" transform="translate(-0.148 -88.871)" fill="#004eeb"/>
  </g>
</svg>
