<svg width="31" height="30" viewBox="0 0 31 30" fill="none" xmlns="http://www.w3.org/2000/svg">
<g clip-path="url(#clip0_1137_11568)">
<path d="M0 15.5152C0 12.0961 0 8.677 0 5.25792C0 3.52884 1.02596 2.53242 2.79624 2.51288C3.48021 2.50311 4.17424 2.51288 4.85821 2.51288C5.33095 2.51288 5.83387 2.61057 6.19598 2.16121C6.27644 2.06352 6.47761 2.0049 6.60837 2.01467C7.22193 2.10259 7.48345 1.77045 7.7852 1.31132C9.06262 -0.574061 11.9796 -0.388453 13.0659 1.62392C13.2268 1.91698 13.4079 1.9756 13.7096 2.01467C14.0516 2.05375 14.3835 2.23936 14.7154 2.35658C14.8965 2.41519 15.0775 2.51288 15.2586 2.51288C16.4656 2.52265 17.6726 2.51288 18.8796 2.52265C20.66 2.53242 21.6759 3.52884 21.6859 5.25792C21.696 7.86619 21.696 10.4647 21.6859 13.073C21.6859 13.4149 21.8167 13.5419 22.1184 13.7079C22.6213 13.9912 23.1746 14.3331 23.4763 14.7923C25.8803 18.4946 28.244 22.2166 30.5876 25.9482C31.7141 27.7555 30.3965 29.9925 28.2339 29.9925C23.5266 30.0023 18.8193 30.0023 14.1119 29.9925C13.1564 29.9925 12.3819 29.6018 11.8689 28.83C11.6778 28.5565 11.4766 28.4979 11.1749 28.4979C8.439 28.5077 5.71317 28.5077 2.97729 28.4979C1.00584 28.5077 0 27.5308 0 25.6161C0 22.2459 0 18.8854 0 15.5152ZM3.13822 25.4793C3.24886 25.4891 3.32933 25.5086 3.4098 25.5086C6.17586 25.5086 8.94192 25.5184 11.708 25.4989C11.8991 25.4989 12.1506 25.3035 12.2612 25.1374C14.3131 21.9333 16.355 18.7291 18.3868 15.5152C18.5175 15.31 18.598 15.0365 18.598 14.7923C18.608 11.8812 18.608 8.97006 18.608 6.04919C18.608 5.88312 18.5879 5.70728 18.5779 5.51191C17.3809 5.51191 16.2343 5.51191 15.0977 5.51191C14.987 5.51191 14.8462 5.54121 14.7859 5.61936C14.464 5.99058 14.0415 6.01011 13.599 6.01011C11.5169 6.01011 9.44484 6.01011 7.36275 6.01011C6.80954 6.00035 6.23621 6.0785 5.83387 5.57052C5.8037 5.53144 5.71317 5.51191 5.65282 5.51191C4.81798 5.51191 3.98313 5.51191 3.12816 5.51191C3.13822 12.184 3.13822 18.8072 3.13822 25.4793ZM21.1729 29.0157C23.4663 29.0157 25.7596 29.0254 28.0629 29.0157C29.6119 29.0059 30.4468 27.6383 29.6421 26.3781C27.3186 22.6855 24.975 19.0124 22.6314 15.3393C21.9173 14.2257 20.4588 14.2354 19.7245 15.3393C19.3725 15.8668 19.0406 16.4139 18.6986 16.9609C16.7271 20.0577 14.7657 23.1641 12.7943 26.2608C12.5227 26.6809 12.3215 27.1205 12.4422 27.6382C12.6535 28.5272 13.2972 29.0254 14.303 29.0254C16.5863 29.0254 18.8796 29.0157 21.1729 29.0157ZM11.4565 26.4953C11.2252 26.4953 11.0441 26.4953 10.8631 26.4953C8.37865 26.4953 5.90428 26.4953 3.41986 26.4953C2.3939 26.4953 2.06197 26.1827 2.06197 25.1863C2.06197 18.7193 2.06197 12.2621 2.06197 5.7952C2.06197 4.84763 2.42408 4.49595 3.38968 4.49595C4.134 4.49595 4.88838 4.49595 5.65282 4.49595C5.65282 4.14427 5.65282 3.86098 5.65282 3.51907C4.72745 3.51907 3.82219 3.51907 2.927 3.51907C1.59929 3.51907 1.0159 4.07589 1.0159 5.3556C1.0159 12.1254 1.0159 18.8952 1.0159 25.6747C1.0159 26.9349 1.58923 27.4917 2.8767 27.5015C5.52206 27.5015 8.17748 27.5015 10.8228 27.5015C10.9838 27.5015 11.1447 27.482 11.3157 27.4722C11.366 27.1498 11.4062 26.8567 11.4565 26.4953ZM6.76931 3.05994C6.76931 3.71444 6.76931 4.33965 6.76931 4.96485C9.16321 4.96485 11.537 4.96485 13.9007 4.96485C13.9007 4.30057 13.9007 3.67537 13.9007 3.05017C13.78 3.0404 13.6895 3.02086 13.609 3.03063C12.8848 3.10878 12.402 2.96225 12.1506 2.16121C11.9192 1.39924 11.1849 1.03779 10.3803 1.01825C9.5756 0.998717 8.8011 1.32109 8.54964 2.07329C8.25795 2.95248 7.7148 3.13809 6.90006 3.0404C6.87995 3.02086 6.83971 3.0404 6.76931 3.05994ZM15.0071 4.49595C16.1035 4.49595 17.1395 4.49595 18.1856 4.49595C19.3121 4.49595 19.634 4.80855 19.634 5.87335C19.634 8.21786 19.634 10.5526 19.634 12.8971C19.634 13.2195 19.634 13.5419 19.634 13.9131C19.8955 13.8154 20.1067 13.7079 20.328 13.6493C20.5795 13.5809 20.66 13.4637 20.66 13.2C20.6499 10.4842 20.66 7.7685 20.6499 5.05277C20.6499 4.09543 20.0162 3.51907 19.0305 3.5093C18.2459 3.49953 17.4513 3.5093 16.6668 3.5093C16.1236 3.5093 15.5704 3.5093 15.0172 3.5093C15.0071 3.87075 15.0071 4.15404 15.0071 4.49595Z" fill="black"/>
<path d="M13.6831 13.9859C14.699 13.9859 15.725 13.9859 16.7409 13.9859C17.1331 13.9859 17.5355 14.0152 17.5355 14.5135C17.5355 14.9824 17.1532 15.0117 16.7811 15.0117C14.7091 15.0117 12.627 15.0214 10.5549 15.0019C10.3337 15.0019 10.042 14.9042 9.9112 14.7479C9.63962 14.4255 9.96149 14.0055 10.4745 14.0055C11.5407 13.9762 12.6169 13.9859 13.6831 13.9859Z" fill="black"/>
<path d="M13.6606 9.49517C12.6045 9.49517 11.5483 9.49517 10.5023 9.49517C10.1502 9.49517 9.83841 9.42679 9.82835 9.0165C9.8183 8.58667 10.1402 8.49875 10.5224 8.50852C12.6346 8.50852 14.7369 8.50852 16.8491 8.50852C17.2213 8.50852 17.5431 8.5769 17.5431 9.0165C17.5331 9.46586 17.1911 9.50494 16.829 9.49517C15.7729 9.49517 14.7167 9.49517 13.6606 9.49517Z" fill="black"/>
<path d="M6.05139 11.1377C6.59454 10.0827 7.11758 9.08626 7.63056 8.08984C7.67079 8.00192 7.72108 7.914 7.76132 7.82609C7.92225 7.53302 8.17371 7.43533 8.47547 7.56233C8.79733 7.69909 8.80739 7.99215 8.68669 8.27545C8.57605 8.52944 8.43523 8.77366 8.31453 9.01788C7.80155 10.0143 7.27851 11.0205 6.75548 12.0169C6.44367 12.6226 6.14192 12.6616 5.64905 12.183C5.36742 11.9094 5.07572 11.6359 4.80415 11.3526C4.59292 11.1279 4.56275 10.8837 4.79409 10.659C5.01537 10.4441 5.27689 10.4441 5.50824 10.6395C5.67923 10.786 5.8301 10.9326 6.05139 11.1377Z" fill="black"/>
<path d="M6.06289 22.1334C6.6161 21.0784 7.12908 20.082 7.64206 19.0758C7.68229 18.9879 7.72253 18.9 7.77282 18.812C7.93375 18.5385 8.1651 18.4017 8.48697 18.558C8.80884 18.7143 8.82895 18.9879 8.69819 19.2712C8.42662 19.828 8.13492 20.375 7.85329 20.9221C7.49118 21.6352 7.12908 22.3483 6.75692 23.0517C6.47529 23.5792 6.14336 23.6281 5.70079 23.208C5.4091 22.9345 5.12746 22.6609 4.84583 22.3776C4.61448 22.1432 4.56419 21.8892 4.81565 21.645C5.06711 21.4105 5.32863 21.4496 5.57003 21.6743C5.71085 21.8111 5.86172 21.9478 6.06289 22.1334Z" fill="black"/>
<path d="M6.06657 16.6342C6.62984 15.5401 7.16294 14.4948 7.71615 13.4593C7.80668 13.2835 7.97767 13.0978 8.14866 13.0295C8.26936 12.9806 8.58117 13.0685 8.62141 13.176C8.70187 13.3714 8.74211 13.6644 8.65158 13.8403C8.1386 14.9148 7.57533 15.9699 7.03218 17.0249C6.37838 18.2851 6.29792 18.2949 5.27196 17.3082C5.11103 17.1519 4.87968 17.0054 4.79921 16.81C4.71875 16.6244 4.71875 16.2922 4.82939 16.1848C4.95009 16.0676 5.28202 16.0676 5.48319 16.1359C5.68435 16.2141 5.83523 16.429 6.06657 16.6342Z" fill="black"/>
<path d="M12.1708 19.5189C12.7341 19.5189 13.3074 19.5189 13.8707 19.5189C14.2127 19.5189 14.444 19.6752 14.444 19.9976C14.4541 20.3102 14.2227 20.5153 13.8908 20.5153C12.7039 20.5251 11.517 20.5251 10.3301 20.5153C10.0082 20.5153 9.74673 20.3004 9.8272 19.9878C9.87749 19.8022 10.1591 19.5678 10.3502 19.5482C10.9638 19.4799 11.5673 19.5189 12.1708 19.5189Z" fill="black"/>
<path d="M11.8711 11.5077C11.3883 11.5077 10.8954 11.5077 10.4126 11.5077C10.0908 11.5077 9.83931 11.3709 9.82925 11.029C9.80914 10.6675 10.0606 10.5015 10.4026 10.4917C11.3883 10.4819 12.374 10.4819 13.3598 10.4917C13.6816 10.4917 13.923 10.648 13.923 10.9899C13.923 11.3611 13.6716 11.4979 13.3296 11.4979C12.8468 11.5174 12.3539 11.5077 11.8711 11.5077Z" fill="black"/>
<path d="M11.8602 16.0234C12.3631 16.0234 12.8661 16.0234 13.369 16.0234C13.711 16.0234 13.9222 16.17 13.9222 16.5119C13.9222 16.844 13.7009 17.0101 13.369 17.0199C12.3833 17.0296 11.3975 17.0296 10.4118 17.0199C10.0598 17.0199 9.81837 16.8538 9.82843 16.4923C9.83849 16.1602 10.0698 16.0234 10.4018 16.0234C10.8946 16.0234 11.3774 16.0234 11.8602 16.0234Z" fill="black"/>
<path d="M11.354 22.4886C11.0221 22.4886 10.6901 22.4886 10.3481 22.4886C10.0263 22.4886 9.78487 22.3128 9.84522 22.0295C9.88546 21.8341 10.1369 21.5508 10.318 21.5313C11.012 21.4726 11.7161 21.4922 12.4202 21.5117C12.732 21.5215 12.903 21.7266 12.8929 22.0295C12.8728 22.3421 12.6817 22.4886 12.3598 22.4788C12.0178 22.4886 11.6859 22.4886 11.354 22.4886Z" fill="black"/>
<path d="M22.7227 20.2298C22.7227 20.9625 22.7328 21.6952 22.7227 22.4278C22.7127 23.3363 22.0387 24.0104 21.1637 24.0006C20.2886 23.9908 19.6247 23.3265 19.6247 22.4083C19.6147 20.9625 19.6147 19.5167 19.6247 18.0709C19.6348 17.1527 20.2886 16.4982 21.1838 16.5079C22.0689 16.5079 22.7127 17.1722 22.7328 18.0905C22.7328 18.11 22.7328 18.1198 22.7328 18.1393C22.7227 18.8329 22.7227 19.5363 22.7227 20.2298ZM21.6867 20.2396C21.6867 19.546 21.6867 18.8427 21.6867 18.1491C21.6867 17.8072 21.5761 17.5043 21.1737 17.5141C20.7714 17.5141 20.6607 17.8169 20.6607 18.1588C20.6607 19.5558 20.6607 20.9527 20.6607 22.3399C20.6607 22.6818 20.7714 22.9749 21.1838 22.9749C21.6062 22.9749 21.6867 22.672 21.6867 22.3301C21.6867 21.6365 21.6867 20.943 21.6867 20.2396Z" fill="black"/>
<path d="M22.723 26.4927C22.723 27.323 22.0088 28.0166 21.1539 28.0068C20.319 27.9971 19.625 27.323 19.625 26.5122C19.625 25.6819 20.3291 25.0078 21.1941 25.0078C22.029 25.0078 22.723 25.6819 22.723 26.4927ZM21.7473 26.6197C21.7473 26.5415 21.7473 26.4731 21.7473 26.395C21.5562 26.268 21.355 26.014 21.1841 26.0335C20.9929 26.0531 20.7113 26.3266 20.7012 26.4927C20.6912 26.649 20.9829 26.9225 21.174 26.9518C21.345 26.9713 21.5562 26.7369 21.7473 26.6197Z" fill="black"/>
</g>
<defs>
<clipPath id="clip0_1137_11568">
<rect width="31" height="30" fill="white"/>
</clipPath>
</defs>
</svg>
