<svg width="25" height="35" viewBox="0 0 25 35" fill="none" xmlns="http://www.w3.org/2000/svg">
<g clip-path="url(#clip0_1137_11528)">
<path d="M21.3866 29.1492C21.3866 28.5289 21.3866 28.006 21.3866 27.4466C18.6418 27.4466 15.9094 27.4466 13.1522 27.4466C13.1522 27.9938 13.1522 28.5411 13.1522 29.1492C13.5231 29.1492 13.8569 29.137 14.2031 29.1492C15.0068 29.1856 15.4643 29.6356 15.4643 30.4139C15.4766 31.5328 15.4766 32.6394 15.4643 33.7583C15.4519 34.5244 15.0068 34.9622 14.2279 34.9744C13.078 34.9865 11.9158 34.9865 10.7659 34.9744C9.98702 34.9622 9.54191 34.5244 9.52955 33.7583C9.51719 32.6638 9.51719 31.5692 9.52955 30.4747C9.52955 29.6234 9.98702 29.1735 10.8525 29.137C11.1616 29.1248 11.4707 29.137 11.8293 29.137C11.8293 28.5533 11.8293 28.006 11.8293 27.4223C9.10917 27.4223 6.38909 27.4223 3.63192 27.4223C3.63192 27.9574 3.63192 28.4925 3.63192 29.137C3.96575 29.137 4.29958 29.1248 4.64577 29.137C5.48652 29.1735 5.93163 29.6113 5.94399 30.4382C5.95636 31.5328 5.95636 32.6273 5.94399 33.7218C5.93163 34.5244 5.48652 34.9622 4.68286 34.9744C3.54538 34.9865 2.42025 34.9865 1.28276 34.9744C0.466741 34.9622 0.021637 34.5366 0.009273 33.7339C-0.003091 32.6759 -0.003091 31.5936 0.009273 30.5234C0.009273 29.6234 0.454377 29.1856 1.36931 29.1613C1.67841 29.1492 1.98751 29.1613 2.3708 29.1613C2.3708 28.4925 2.3708 27.8722 2.3708 27.252C2.3708 26.4129 2.53153 26.2548 3.37228 26.2426C5.94399 26.2426 8.52807 26.2426 11.0998 26.2426C11.3471 26.2426 11.582 26.2426 11.854 26.2426C11.854 25.2576 11.854 24.3333 11.854 23.3361C11.6191 23.3361 11.3965 23.3361 11.174 23.3361C9.29463 23.3361 7.42767 23.3483 5.54834 23.3361C4.27485 23.3239 3.59483 22.6672 3.59483 21.4268C3.59483 14.9205 3.59483 8.41427 3.59483 1.90802C3.59483 0.691893 4.27485 0.023026 5.49889 0.023026C8.72589 -0.0012965 11.9653 -0.0134577 15.2046 0.023026C15.5137 0.023026 15.897 0.181122 16.1196 0.400024C17.764 1.96882 19.3837 3.54978 20.9786 5.16722C21.2135 5.41045 21.399 5.82393 21.399 6.16444C21.4237 11.2478 21.4237 16.3434 21.4114 21.4268C21.4114 22.6672 20.7313 23.3361 19.4578 23.3483C17.5785 23.3604 15.7115 23.3483 13.8322 23.3483C13.6097 23.3483 13.3871 23.3483 13.1522 23.3483C13.1522 24.3455 13.1522 25.2697 13.1522 26.2548C13.4242 26.2548 13.6715 26.2548 13.9064 26.2548C16.4781 26.2548 19.0622 26.2548 21.6339 26.2548C22.4747 26.2548 22.6354 26.4129 22.6478 27.252C22.6478 27.8236 22.6478 28.383 22.6601 28.9546C22.6601 28.9911 22.6848 29.0275 22.7219 29.1613C23.031 29.1613 23.3772 29.1492 23.7111 29.1613C24.5518 29.1978 24.9969 29.6356 25.0093 30.4626C25.0216 31.5571 25.0216 32.6516 25.0093 33.7461C24.9969 34.5487 24.5518 34.9865 23.7358 34.9865C22.5983 34.9987 21.4732 34.9987 20.3357 34.9865C19.5197 34.9744 19.0746 34.5366 19.0622 33.7461C19.0498 32.6516 19.0498 31.5571 19.0622 30.4626C19.0746 29.6478 19.5197 29.1978 20.3604 29.1613C20.6819 29.137 21.0033 29.1492 21.3866 29.1492ZM14.8584 1.14186C14.5864 1.14186 14.401 1.14186 14.2155 1.14186C11.4089 1.14186 8.61461 1.14186 5.80799 1.14186C4.91778 1.14186 4.75705 1.29995 4.75705 2.1634C4.75705 8.51156 4.75705 14.8476 4.75705 21.1957C4.75705 22.0227 4.91778 22.1808 5.78326 22.1808C10.2343 22.1808 14.6853 22.1808 19.1364 22.1808C20.1255 22.1808 20.2491 22.0592 20.2491 21.1106C20.2491 16.4528 20.2491 11.7829 20.2491 7.12518C20.2491 6.90628 20.2491 6.68738 20.2491 6.40767C18.7284 6.40767 17.2941 6.40767 15.8599 6.40767C14.9944 6.40767 14.8584 6.27389 14.8584 5.42261C14.8584 4.01191 14.8584 2.61337 14.8584 1.14186ZM4.70759 30.3653C3.50828 30.3653 2.39552 30.3653 1.24567 30.3653C1.24567 31.5328 1.24567 32.6759 1.24567 33.8191C2.42025 33.8191 3.54538 33.8191 4.70759 33.8191C4.70759 32.6638 4.70759 31.5328 4.70759 30.3653ZM10.7412 33.8069C11.9158 33.8069 13.0657 33.8069 14.2155 33.8069C14.2155 32.6394 14.2155 31.5084 14.2155 30.3774C13.0286 30.3774 11.8911 30.3774 10.7412 30.3774C10.7412 31.5328 10.7412 32.6516 10.7412 33.8069ZM20.2862 30.3653C20.2862 31.5328 20.2862 32.6516 20.2862 33.8069C21.4608 33.8069 22.5983 33.8069 23.7605 33.8069C23.7605 32.6394 23.7605 31.5206 23.7605 30.3653C22.6107 30.3653 21.4855 30.3653 20.2862 30.3653ZM16.1196 2.13908C16.1196 3.19711 16.1196 4.20649 16.1196 5.22803C17.1829 5.22803 18.2091 5.22803 19.1982 5.22803C18.1843 4.20649 17.1705 3.18494 16.1196 2.13908Z" fill="black"/>
<path d="M12.1796 14.0208C10.7948 14.0208 9.42238 14.0208 8.03761 14.0208C7.59251 14.0208 7.15977 13.96 7.17213 13.4006C7.17213 12.8412 7.61724 12.8047 8.04998 12.8047C10.8071 12.8047 13.5643 12.8047 16.3215 12.8047C16.7542 12.8047 17.2117 12.8412 17.2241 13.3884C17.2364 13.9722 16.7666 14.0208 16.3091 14.0208C14.9367 14.0208 13.5643 14.0208 12.1796 14.0208Z" fill="black"/>
<path d="M12.1919 9.8975C10.7948 9.8975 9.3853 9.8975 7.98817 9.8975C7.5678 9.8975 7.15979 9.84886 7.17215 9.31376C7.18451 8.77867 7.59253 8.74219 8.0129 8.74219C10.8195 8.74219 13.6138 8.74219 16.4204 8.74219C16.8532 8.74219 17.2488 8.81516 17.2364 9.33809C17.2241 9.86102 16.8161 9.90966 16.3957 9.8975C14.9986 9.8975 13.5891 9.8975 12.1919 9.8975Z" fill="black"/>
<path d="M12.2505 16.9297C13.6477 16.9297 15.0572 16.9297 16.4543 16.9297C16.8747 16.9297 17.2332 17.0027 17.2332 17.4891C17.2456 17.9634 16.887 18.0728 16.4667 18.0728C13.6229 18.0728 10.7792 18.0728 7.9355 18.0728C7.52749 18.0728 7.16894 18.012 7.15657 17.5134C7.14421 17.0148 7.4904 16.9297 7.91077 16.9418C9.36973 16.9418 10.8163 16.9297 12.2505 16.9297Z" fill="black"/>
</g>
<defs>
<clipPath id="clip0_1137_11528">
<rect width="25" height="35" fill="white"/>
</clipPath>
</defs>
</svg>
