<svg width="25" height="29" viewBox="0 0 25 29" fill="none" xmlns="http://www.w3.org/2000/svg">
<g clip-path="url(#clip0_1137_11441)">
<path d="M9.98545 26.0956C9.20467 26.3749 8.45452 26.6541 7.68906 26.9334C5.95911 27.5696 4.19855 28.1747 2.48392 28.8575C0.998919 29.4471 -0.164584 27.8955 0.0191271 26.7628C0.631497 23.1319 1.22856 19.5011 1.81031 15.8703C2.16242 13.698 2.49922 11.5257 2.88196 9.36897C2.97381 8.85693 3.17283 8.36041 3.41778 7.91043C3.55556 7.64666 3.86175 7.44494 4.13731 7.27426C4.4435 7.08807 4.7803 7.19668 4.9487 7.47598C5.13241 7.75527 5.05587 8.14318 4.76499 8.32937C4.38226 8.57763 4.21386 8.93451 4.13731 9.35345C3.69335 12.2085 3.21876 15.0635 2.75948 17.9185C2.26959 20.8666 1.77969 23.8147 1.3051 26.7783C1.27449 26.9955 1.32041 27.2438 1.41227 27.4455C1.53474 27.7093 1.76438 27.7713 2.07057 27.6627C4.76499 26.6697 7.45942 25.6766 10.1538 24.6991C10.6591 24.5129 10.9959 24.7146 11.0877 25.2732C11.103 25.3663 11.1183 25.4749 11.1489 25.568C11.3633 26.3593 11.547 26.468 12.3278 26.2973C15.2365 25.6456 18.1453 25.0094 21.054 24.3732C21.9267 24.1871 22.141 23.9698 22.2788 23.0699C22.7687 19.7494 23.2433 16.4289 23.7331 13.1084C23.7944 12.6739 23.4882 12.5343 23.1973 12.3946C22.6462 12.1619 22.0951 11.9292 21.5286 11.743C21.1153 11.6033 20.9316 11.3706 20.8703 10.9361C20.5948 8.93451 20.2886 6.9329 20.013 4.9313C19.9671 4.55891 19.814 4.27961 19.5078 4.04687C19.1557 3.78309 19.0944 3.42622 19.3088 3.13141C19.5078 2.8366 19.8752 2.79005 20.2273 3.02279C20.8856 3.45725 21.1612 4.10893 21.253 4.85372C21.498 6.65361 21.7583 8.46902 22.0185 10.2689C22.0491 10.5017 22.141 10.6258 22.3553 10.7034C22.8299 10.874 23.3198 11.0447 23.7791 11.262C24.6211 11.6654 25.0651 12.3326 24.9732 13.0308C24.912 13.5584 24.8354 14.0704 24.7589 14.598C24.4221 16.9564 24.0853 19.2994 23.7485 21.6579C23.6566 22.3096 23.5647 22.9457 23.4576 23.5974C23.2739 24.6681 22.6156 25.2887 21.6052 25.5215C19.2016 26.0645 16.7828 26.5921 14.3792 27.1196C13.675 27.2748 12.9707 27.3989 12.2665 27.5851C11.1796 27.8799 10.4907 27.2438 10.1232 26.468C10.0926 26.3593 10.0467 26.2507 9.98545 26.0956Z" fill="black"/>
<path d="M8.46856 13.0805C8.46856 13.065 8.46856 13.0495 8.46856 13.0495C8.54511 12.4443 8.43794 12.0564 7.76434 11.7461C6.52429 11.203 5.98846 9.77553 6.34058 8.41009C6.66207 7.19982 7.93274 6.25332 9.15748 6.31539C10.4894 6.37745 11.6376 7.35498 11.8978 8.62732C12.1581 9.96172 11.4845 11.3737 10.2291 11.8702C9.76985 12.0564 9.66268 12.2737 9.70861 12.7081C9.73923 13.096 9.72392 13.4839 9.70861 13.8718C9.6933 14.3373 9.46366 14.6011 9.08093 14.6011C8.6982 14.6011 8.46856 14.3373 8.45325 13.8718C8.46856 13.6081 8.46856 13.3443 8.46856 13.0805ZM7.48877 9.20142C7.48877 10.1014 8.19299 10.8306 9.08093 10.8306C9.96887 10.8306 10.7037 10.1014 10.7037 9.21694C10.7037 8.33251 9.98418 7.58772 9.09624 7.57221C8.2083 7.57221 7.48877 8.30148 7.48877 9.20142Z" fill="black"/>
<path d="M14.8061 6.7988C14.9898 6.08505 14.699 5.72817 14.0253 5.40233C12.8159 4.82822 12.2801 3.27659 12.7088 2.01977C13.168 0.669851 14.4999 -0.183547 15.8012 0.0336818C17.225 0.266427 18.266 1.43015 18.2966 2.84214C18.3272 4.08344 17.5771 5.21613 16.3983 5.63507C16.1227 5.72817 16.0309 5.8523 16.0462 6.14711C16.0768 6.6126 16.0615 7.07809 16.0462 7.54358C16.0309 8.0401 15.8012 8.3194 15.4185 8.3194C15.0358 8.3194 14.8061 8.02459 14.8061 7.54358C14.8061 7.2798 14.8061 7.04706 14.8061 6.7988ZM15.4491 1.2905C14.5612 1.2905 13.8416 2.00425 13.8263 2.9042C13.8263 3.80415 14.5306 4.54893 15.4185 4.54893C16.3064 4.54893 17.0413 3.83518 17.0413 2.93523C17.0566 2.03529 16.3217 1.2905 15.4491 1.2905Z" fill="black"/>
<path d="M15.674 21.3988C15.8271 20.8402 15.5974 20.4678 14.9085 20.1575C13.6532 19.5834 13.1173 18.0007 13.5766 16.7129C14.0818 15.3009 15.4596 14.5251 16.9293 14.8199C18.2306 15.0837 19.1951 16.3715 19.1339 17.7835C19.0879 18.9783 18.3684 19.9868 17.2508 20.3747C16.9753 20.4678 16.8834 20.592 16.8987 20.8868C16.914 21.3833 16.914 21.8643 16.8987 22.3608C16.8834 22.7953 16.6385 23.059 16.271 23.0435C15.9189 23.0435 15.6893 22.7953 15.674 22.3763C15.6587 22.0815 15.674 21.8022 15.674 21.3988ZM16.3016 16.0146C15.429 16.0146 14.6789 16.7594 14.6789 17.6439C14.6789 18.5283 15.4137 19.2731 16.3016 19.2731C17.1896 19.2731 17.9244 18.5438 17.9244 17.6439C17.9091 16.7749 17.1743 16.0146 16.3016 16.0146Z" fill="black"/>
<path d="M7.25781 4.42565C7.47214 3.51018 7.60993 2.5792 7.91611 1.69477C8.25291 0.717246 9.01838 0.360371 10.0135 0.562083C10.4268 0.639665 10.8402 0.732763 11.2535 0.841377C11.6975 0.949991 11.9271 1.27583 11.8353 1.64823C11.7434 2.0051 11.4066 2.17578 10.978 2.08268C10.5799 1.98958 10.1666 1.94304 9.78384 1.8189C9.3858 1.69477 9.15616 1.88097 9.0643 2.1913C8.91121 2.70334 8.81936 3.23089 8.71219 3.75845C8.65095 4.05326 8.62034 4.34806 8.5591 4.64288C8.48255 4.98423 8.19168 5.18595 7.87018 5.1394C7.53338 5.09285 7.31905 4.81355 7.25781 4.42565Z" fill="black"/>
<path d="M7.48461 9.19953C7.48461 8.29958 8.21946 7.57031 9.09209 7.57031C9.98002 7.57031 10.6996 8.3151 10.6996 9.21504C10.6996 10.115 9.96471 10.8443 9.07678 10.8287C8.18884 10.8287 7.46931 10.0995 7.48461 9.19953ZM9.07678 9.85121C9.47482 9.85121 9.76569 9.60295 9.76569 9.24607C9.781 8.87368 9.50543 8.60991 9.10739 8.59439C8.70935 8.57887 8.38786 8.85817 8.38786 9.23056C8.38786 9.57192 8.67874 9.8357 9.07678 9.85121Z" fill="white"/>
<path d="M15.4509 1.28931C16.3235 1.28931 17.0584 2.03409 17.0431 2.93404C17.0431 3.83398 16.3082 4.56325 15.4203 4.54773C14.5323 4.54773 13.8281 3.80295 13.8281 2.903C13.8434 2.00306 14.563 1.27379 15.4509 1.28931ZM15.4356 3.55469C15.8336 3.55469 16.1245 3.27539 16.1398 2.91852C16.1398 2.56164 15.803 2.26683 15.4203 2.28235C15.0376 2.29787 14.7467 2.57716 14.7467 2.93404C14.7467 3.29091 15.0529 3.55469 15.4356 3.55469Z" fill="white"/>
<path d="M16.3022 16.0156C17.1748 16.0156 17.9249 16.7759 17.9096 17.6448C17.9096 18.5293 17.1748 19.2741 16.2868 19.2741C15.3989 19.2741 14.6641 18.5293 14.6641 17.6448C14.6794 16.7604 15.4142 16.0156 16.3022 16.0156ZM16.3022 18.281C16.7155 18.281 16.9911 18.0172 16.9911 17.6448C16.9911 17.2724 16.6849 17.0087 16.3022 17.0087C15.9041 17.0087 15.6132 17.288 15.6132 17.6604C15.6132 18.0327 15.8888 18.281 16.3022 18.281Z" fill="white"/>
<path d="M9.07954 9.85108C8.6815 9.85108 8.39062 9.5873 8.39062 9.21491C8.39062 8.84252 8.71212 8.56322 9.11016 8.57874C9.5082 8.59426 9.76846 8.85804 9.76846 9.23043C9.76846 9.60282 9.47758 9.85108 9.07954 9.85108Z" fill="black"/>
<path d="M15.4313 3.55417C15.0333 3.55417 14.7424 3.2904 14.7271 2.93352C14.7118 2.57665 15.018 2.29735 15.4007 2.28184C15.7988 2.26632 16.1356 2.56113 16.1203 2.918C16.1356 3.27488 15.8294 3.53866 15.4313 3.55417Z" fill="black"/>
<path d="M16.3058 18.2802C15.8924 18.2802 15.6169 18.0319 15.6016 17.6595C15.6016 17.3026 15.8924 17.0233 16.2905 17.0078C16.6885 17.0078 16.9794 17.2716 16.9794 17.644C16.9947 18.0164 16.7038 18.2802 16.3058 18.2802Z" fill="black"/>
</g>
<defs>
<clipPath id="clip0_1137_11441">
<rect width="25" height="29" fill="white"/>
</clipPath>
</defs>
</svg>
