<svg width="29" height="29" viewBox="0 0 29 29" fill="none" xmlns="http://www.w3.org/2000/svg">
<g clip-path="url(#clip0_1137_11534)">
<path d="M11.7968 20.3152C11.411 20.7199 11.0252 21.1059 10.6677 21.52C10.583 21.6141 10.5359 21.8024 10.5642 21.9342C10.6771 22.5271 10.5171 23.0166 10.0937 23.4402C8.55994 24.9744 7.04501 26.5181 5.50186 28.0335C4.18453 29.3324 2.20854 29.323 0.938264 28.0617C-0.332015 26.791 -0.341425 24.8238 0.957083 23.4966C2.47201 21.953 4.01516 20.4282 5.5395 18.9033C5.95351 18.4892 6.44281 18.3103 7.0356 18.4233C7.16734 18.4515 7.35552 18.4139 7.44962 18.3292C7.86364 17.9715 8.24942 17.5762 8.65403 17.1902C6.80037 14.2159 6.3393 11.0721 7.34612 7.7683C8.1271 5.17986 9.7173 3.15617 12.0038 1.70664C16.5204 -1.15477 22.5236 -0.345295 26.071 3.58914C29.7501 7.66477 29.9571 13.7076 26.5697 17.9621C23.2293 22.1883 17.0002 23.5814 11.7968 20.3152ZM8.00478 11.0533C8.00478 16.569 12.4084 20.9929 17.9035 20.9929C23.3987 20.9929 27.8494 16.569 27.8494 11.0909C27.8588 5.60342 23.4269 1.14188 17.9412 1.13247C12.446 1.13247 8.01419 5.55636 8.00478 11.0533ZM7.00737 24.8615C6.05702 23.8826 5.10666 22.9225 4.17512 21.9718C3.32827 22.8001 2.43437 23.6096 1.61575 24.4944C0.891216 25.285 0.985311 26.5086 1.73807 27.2617C2.50024 28.0241 3.71406 28.1182 4.50445 27.3934C5.39835 26.5745 6.20757 25.6803 7.00737 24.8615ZM5.04079 20.9835C6.05702 22.0095 7.00737 22.9695 7.99537 23.9673C8.4188 23.5343 8.86104 23.0919 9.30329 22.6401C9.52911 22.4048 9.52911 22.1789 9.29388 21.9436C8.55053 21.2 7.80718 20.4658 7.07324 19.7222C6.81918 19.4681 6.59336 19.4869 6.34871 19.7316C5.89706 20.1646 5.46422 20.5788 5.04079 20.9835ZM9.30329 18.1974C9.00218 18.508 8.6258 18.8845 8.24942 19.261C8.73872 19.741 9.25624 20.2399 9.76435 20.7388C10.1031 20.3905 10.4795 20.014 10.8088 19.6752C10.3383 19.1951 9.83022 18.7151 9.30329 18.1974Z" fill="black"/>
<path d="M9.67969 11.0689C9.67969 6.4944 13.3494 2.8141 17.913 2.80469C22.5048 2.80469 26.1933 6.4944 26.1839 11.0783C26.1745 15.6434 22.486 19.3143 17.9224 19.3048C13.3306 19.3048 9.67969 15.6528 9.67969 11.0689ZM10.8088 11.0595C10.7994 15.0033 13.9516 18.1753 17.9036 18.1848C21.8367 18.1942 25.036 15.0316 25.0454 11.1065C25.0548 7.14386 21.8838 3.95302 17.9224 3.95302C13.9892 3.9436 10.8182 7.11563 10.8088 11.0595Z" fill="black"/>
<path d="M17.9242 15.0569C16.7386 15.0569 15.6753 14.6898 14.7532 13.9556C14.0098 13.3626 13.2853 12.732 12.5796 12.0825C12.0244 11.5742 11.9209 10.7365 12.4384 10.2282C13.4829 9.20228 14.5085 8.10101 15.8823 7.50802C17.7548 6.69854 19.5332 6.97151 21.1422 8.19514C21.8856 8.75989 22.5819 9.39994 23.2782 10.04C23.8427 10.5577 23.9368 11.4425 23.4005 11.9319C22.4031 12.8261 21.3774 13.7203 20.2577 14.4451C19.6085 14.8686 18.7428 14.9439 17.9712 15.1792C17.9524 15.1416 17.9336 15.1039 17.9242 15.0569ZM17.8959 13.918C18.8181 13.918 19.6649 13.6356 20.38 13.0708C21.0669 12.5249 21.7162 11.9319 22.3843 11.3672C22.6477 11.1507 22.6195 10.9624 22.3749 10.7553C21.7821 10.2471 21.2175 9.70114 20.5965 9.2211C18.8369 7.85628 17.0209 7.84687 15.2613 9.21169C14.6309 9.70114 14.0569 10.2565 13.4453 10.7836C13.21 10.9907 13.2288 11.1695 13.4547 11.3672C14.0757 11.8943 14.6685 12.4496 15.2989 12.9673C16.0611 13.5697 16.9174 13.918 17.8959 13.918Z" fill="black"/>
<path d="M17.9313 9.34375C18.8628 9.34375 19.6438 10.1344 19.6438 11.0662C19.6438 11.9981 18.8628 12.7793 17.9313 12.7699C16.9997 12.7699 16.2188 11.9793 16.2188 11.0568C16.2188 10.1344 16.9997 9.34375 17.9313 9.34375ZM18.4864 11.0662C18.4582 10.7086 18.2606 10.5015 17.9219 10.5015C17.5737 10.5015 17.3573 10.718 17.3573 11.0662C17.3573 11.4051 17.5737 11.631 17.9219 11.6216C18.27 11.6216 18.4582 11.4145 18.4864 11.0662Z" fill="black"/>
</g>
<defs>
<clipPath id="clip0_1137_11534">
<rect width="29" height="29" fill="white"/>
</clipPath>
</defs>
</svg>
