<svg width="52" height="52" viewBox="0 0 52 52" fill="none" xmlns="http://www.w3.org/2000/svg">
<g filter="url(#filter0_d_1508_7020)">
<path d="M46 23C46 11.9543 37.0457 3 26 3C14.9543 3 6 11.9543 6 23C6 34.0457 14.9543 43 26 43C37.0457 43 46 34.0457 46 23Z" fill="#389FE7"/>
</g>
<path d="M14 11H38V35H14V11Z" fill="#389FE7"/>
<path d="M18 15V17C18 16.4696 18.2107 15.9609 18.5858 15.5858C18.9609 15.2107 19.4696 15 20 15H32C32.5304 15 33.0391 15.2107 33.4142 15.5858C33.7893 15.9609 34 16.4696 34 17V29C34 29.5304 33.7893 30.0391 33.4142 30.4142C33.0391 30.7893 32.5304 31 32 31H20C19.4696 31 18.9609 30.7893 18.5858 30.4142C18.2107 30.0391 18 29.5304 18 29V15Z" fill="#389FE7" stroke="white" stroke-width="1.5" stroke-linecap="round" stroke-linejoin="round"/>
<path d="M23 15V31V15Z" fill="#389FE7"/>
<path d="M23 15V31" stroke="white" stroke-width="1.5" stroke-linecap="round" stroke-linejoin="round"/>
<path d="M29 21L27 23L29 25" fill="#389FE7"/>
<path d="M29 21L27 23L29 25" stroke="white" stroke-width="1.5" stroke-linecap="round" stroke-linejoin="round"/>
<defs>
<filter id="filter0_d_1508_7020" x="0" y="0" width="52" height="52" filterUnits="userSpaceOnUse" color-interpolation-filters="sRGB">
<feFlood flood-opacity="0" result="BackgroundImageFix"/>
<feColorMatrix in="SourceAlpha" type="matrix" values="0 0 0 0 0 0 0 0 0 0 0 0 0 0 0 0 0 0 127 0" result="hardAlpha"/>
<feOffset dy="3"/>
<feGaussianBlur stdDeviation="3"/>
<feColorMatrix type="matrix" values="0 0 0 0 0 0 0 0 0 0 0 0 0 0 0 0 0 0 0.161 0"/>
<feBlend mode="normal" in2="BackgroundImageFix" result="effect1_dropShadow_1508_7020"/>
<feBlend mode="normal" in="SourceGraphic" in2="effect1_dropShadow_1508_7020" result="shape"/>
</filter>
</defs>
</svg>
