<svg width="17" height="17" viewBox="0 0 17 17" fill="none" xmlns="http://www.w3.org/2000/svg">
<path d="M2.66406 4.33333C2.66406 5.21739 3.01525 6.06523 3.64037 6.69036C4.26549 7.31548 5.11334 7.66667 5.9974 7.66667C6.88145 7.66667 7.7293 7.31548 8.35442 6.69036C8.97954 6.06523 9.33073 5.21739 9.33073 4.33333C9.33073 3.44928 8.97954 2.60143 8.35442 1.97631C7.7293 1.35119 6.88145 1 5.9974 1C5.11334 1 4.26549 1.35119 3.64037 1.97631C3.01525 2.60143 2.66406 3.44928 2.66406 4.33333Z" stroke="black" stroke-width="1.04167" stroke-linecap="round" stroke-linejoin="round"/>
<path d="M1 16V14.3333C1 13.4493 1.35119 12.6014 1.97631 11.9763C2.60143 11.3512 3.44928 11 4.33333 11H7.66667C8.55072 11 9.39857 11.3512 10.0237 11.9763C10.6488 12.6014 11 13.4493 11 14.3333V16" stroke="black" stroke-width="1.04167" stroke-linecap="round" stroke-linejoin="round"/>
<path d="M11.8359 1.10938C12.5529 1.29296 13.1885 1.70996 13.6423 2.29463C14.0961 2.87931 14.3425 3.5984 14.3425 4.33854C14.3425 5.07868 14.0961 5.79777 13.6423 6.38245C13.1885 6.96712 12.5529 7.38412 11.8359 7.56771" stroke="black" stroke-width="1.04167" stroke-linecap="round" stroke-linejoin="round"/>
<path d="M16 16V14.3333C15.9958 13.5976 15.7483 12.884 15.2961 12.3037C14.8439 11.7233 14.2124 11.3089 13.5 11.125" stroke="black" stroke-width="1.04167" stroke-linecap="round" stroke-linejoin="round"/>
</svg>
