<svg width="20" height="20" viewBox="0 0 20 20" fill="none" xmlns="http://www.w3.org/2000/svg">
<path d="M6.66927 4.16406H5.0026C4.56058 4.16406 4.13665 4.33966 3.82409 4.65222C3.51153 4.96478 3.33594 5.3887 3.33594 5.83073V15.8307C3.33594 16.2728 3.51153 16.6967 3.82409 17.0092C4.13665 17.3218 4.56058 17.4974 5.0026 17.4974H9.7501" stroke="black" stroke-width="1.04167" stroke-linecap="round" stroke-linejoin="round"/>
<path d="M14.9974 9.9974V5.83073C14.9974 5.3887 14.8218 4.96478 14.5092 4.65222C14.1967 4.33966 13.7728 4.16406 13.3307 4.16406H11.6641" stroke="black" stroke-width="1.04167" stroke-linecap="round" stroke-linejoin="round"/>
<path d="M6.66406 4.16667C6.66406 3.72464 6.83966 3.30072 7.15222 2.98816C7.46478 2.67559 7.8887 2.5 8.33073 2.5H9.9974C10.4394 2.5 10.8633 2.67559 11.1759 2.98816C11.4885 3.30072 11.6641 3.72464 11.6641 4.16667C11.6641 4.60869 11.4885 5.03262 11.1759 5.34518C10.8633 5.65774 10.4394 5.83333 9.9974 5.83333H8.33073C7.8887 5.83333 7.46478 5.65774 7.15222 5.34518C6.83966 5.03262 6.66406 4.60869 6.66406 4.16667Z" stroke="black" stroke-width="1.04167" stroke-linecap="round" stroke-linejoin="round"/>
<path d="M6.66406 9.16406H9.9974" stroke="black" stroke-width="1.04167" stroke-linecap="round" stroke-linejoin="round"/>
<path d="M6.66406 12.5H9.16406" stroke="black" stroke-width="1.04167" stroke-linecap="round" stroke-linejoin="round"/>
<path d="M11.6641 14.5833C11.6641 15.1359 11.8836 15.6658 12.2743 16.0565C12.665 16.4472 13.1949 16.6667 13.7474 16.6667C14.2999 16.6667 14.8298 16.4472 15.2205 16.0565C15.6112 15.6658 15.8307 15.1359 15.8307 14.5833C15.8307 14.0308 15.6112 13.5009 15.2205 13.1102C14.8298 12.7195 14.2999 12.5 13.7474 12.5C13.1949 12.5 12.665 12.7195 12.2743 13.1102C11.8836 13.5009 11.6641 14.0308 11.6641 14.5833Z" stroke="black" stroke-width="1.04167" stroke-linecap="round" stroke-linejoin="round"/>
<path d="M15.4141 16.25L17.4974 18.3333" stroke="black" stroke-width="1.04167" stroke-linecap="round" stroke-linejoin="round"/>
</svg>
